<svg width="835" height="463" viewBox="0 0 835 463" fill="none" xmlns="http://www.w3.org/2000/svg">
<rect x="119" y="378" width="437" height="69" stroke="#9D9D9D" stroke-width="2" stroke-dasharray="8 10"/>
<rect x="604" y="368" width="126" height="52" stroke="#9D9D9D" stroke-width="2" stroke-dasharray="8 10"/>
<rect x="120" y="18" width="436" height="69" stroke="#9D9D9D" stroke-width="2" stroke-dasharray="8 10"/>
<rect x="119" y="111" width="437" height="245" stroke="#9D9D9D" stroke-width="2" stroke-dasharray="8 10"/>
<rect x="127" y="26" width="205" height="54" fill="#C6DAF3"/>
<path d="M179.237 50.1847H177.021C176.936 49.7112 176.777 49.2945 176.545 48.9347C176.313 48.5748 176.029 48.2694 175.693 48.0185C175.357 47.7675 174.98 47.5781 174.563 47.4503C174.152 47.3224 173.714 47.2585 173.25 47.2585C172.412 47.2585 171.661 47.4692 170.998 47.8906C170.34 48.312 169.819 48.9299 169.436 49.7443C169.057 50.5587 168.867 51.553 168.867 52.7273C168.867 53.911 169.057 54.91 169.436 55.7244C169.819 56.5388 170.342 57.1544 171.005 57.571C171.668 57.9877 172.414 58.196 173.242 58.196C173.702 58.196 174.137 58.1345 174.549 58.0114C174.966 57.8835 175.342 57.6965 175.679 57.4503C176.015 57.2041 176.299 56.9034 176.531 56.5483C176.768 56.1884 176.931 55.7765 177.021 55.3125L179.237 55.3196C179.118 56.0346 178.889 56.6927 178.548 57.294C178.212 57.8906 177.778 58.4067 177.248 58.8423C176.723 59.2732 176.121 59.607 175.444 59.8438C174.767 60.0805 174.028 60.1989 173.228 60.1989C171.969 60.1989 170.847 59.9006 169.862 59.304C168.877 58.7027 168.1 57.8433 167.532 56.7259C166.969 55.6084 166.687 54.2756 166.687 52.7273C166.687 51.1742 166.971 49.8414 167.539 48.7287C168.108 47.6113 168.884 46.7543 169.869 46.1577C170.854 45.5563 171.974 45.2557 173.228 45.2557C174 45.2557 174.72 45.367 175.387 45.5895C176.06 45.8073 176.663 46.1293 177.198 46.5554C177.733 46.9768 178.176 47.4929 178.527 48.1037C178.877 48.7098 179.114 49.4034 179.237 50.1847ZM192.125 44.7727L187.438 62.1875H185.541L190.229 44.7727H192.125ZM211.074 50.1847H208.858C208.772 49.7112 208.614 49.2945 208.382 48.9347C208.15 48.5748 207.866 48.2694 207.529 48.0185C207.193 47.7675 206.817 47.5781 206.4 47.4503C205.988 47.3224 205.55 47.2585 205.086 47.2585C204.248 47.2585 203.498 47.4692 202.835 47.8906C202.177 48.312 201.656 48.9299 201.272 49.7443C200.894 50.5587 200.704 51.553 200.704 52.7273C200.704 53.911 200.894 54.91 201.272 55.7244C201.656 56.5388 202.179 57.1544 202.842 57.571C203.505 57.9877 204.251 58.196 205.079 58.196C205.538 58.196 205.974 58.1345 206.386 58.0114C206.803 57.8835 207.179 57.6965 207.515 57.4503C207.851 57.2041 208.136 56.9034 208.368 56.5483C208.604 56.1884 208.768 55.7765 208.858 55.3125L211.074 55.3196C210.955 56.0346 210.725 56.6927 210.385 57.294C210.048 57.8906 209.615 58.4067 209.085 58.8423C208.559 59.2732 207.958 59.607 207.281 59.8438C206.604 60.0805 205.865 60.1989 205.065 60.1989C203.806 60.1989 202.683 59.9006 201.699 59.304C200.714 58.7027 199.937 57.8433 199.369 56.7259C198.806 55.6084 198.524 54.2756 198.524 52.7273C198.524 51.1742 198.808 49.8414 199.376 48.7287C199.944 47.6113 200.721 46.7543 201.706 46.1577C202.69 45.5563 203.81 45.2557 205.065 45.2557C205.837 45.2557 206.556 45.367 207.224 45.5895C207.896 45.8073 208.5 46.1293 209.035 46.5554C209.57 46.9768 210.013 47.4929 210.363 48.1037C210.714 48.7098 210.95 49.4034 211.074 50.1847ZM217.605 57.5568V47.9545H219.515V57.5568H217.605ZM213.762 53.7074V51.804H223.365V53.7074H213.762ZM230.725 57.5568V47.9545H232.636V57.5568H230.725ZM226.883 53.7074V51.804H236.485V53.7074H226.883Z" fill="black"/>
<rect x="127" y="121" width="421" height="226" fill="#DAD2E9"/>
<path d="M240.792 227.812V225.545H254.3V227.812H248.854V243H246.229V227.812H240.792ZM259.389 235.227V243H256.841V225.545H259.355V232.04H259.517C259.824 231.335 260.292 230.776 260.923 230.361C261.554 229.946 262.378 229.739 263.395 229.739C264.292 229.739 265.076 229.923 265.747 230.293C266.423 230.662 266.946 231.213 267.315 231.946C267.69 232.673 267.878 233.582 267.878 234.673V243H265.329V234.98C265.329 234.02 265.082 233.276 264.588 232.747C264.093 232.213 263.406 231.946 262.525 231.946C261.923 231.946 261.383 232.074 260.906 232.33C260.434 232.585 260.062 232.96 259.789 233.455C259.522 233.943 259.389 234.534 259.389 235.227ZM276.552 243.264C275.325 243.264 274.254 242.983 273.339 242.42C272.424 241.858 271.714 241.071 271.209 240.06C270.703 239.048 270.45 237.866 270.45 236.514C270.45 235.156 270.703 233.969 271.209 232.952C271.714 231.935 272.424 231.145 273.339 230.582C274.254 230.02 275.325 229.739 276.552 229.739C277.78 229.739 278.851 230.02 279.765 230.582C280.68 231.145 281.39 231.935 281.896 232.952C282.402 233.969 282.655 235.156 282.655 236.514C282.655 237.866 282.402 239.048 281.896 240.06C281.39 241.071 280.68 241.858 279.765 242.42C278.851 242.983 277.78 243.264 276.552 243.264ZM276.561 241.125C277.356 241.125 278.015 240.915 278.538 240.494C279.061 240.074 279.447 239.514 279.697 238.815C279.953 238.116 280.081 237.347 280.081 236.506C280.081 235.67 279.953 234.903 279.697 234.205C279.447 233.5 279.061 232.935 278.538 232.509C278.015 232.082 277.356 231.869 276.561 231.869C275.76 231.869 275.095 232.082 274.566 232.509C274.044 232.935 273.655 233.5 273.399 234.205C273.149 234.903 273.024 235.67 273.024 236.506C273.024 237.347 273.149 238.116 273.399 238.815C273.655 239.514 274.044 240.074 274.566 240.494C275.095 240.915 275.76 241.125 276.561 241.125ZM285.259 243V229.909H287.722V231.989H287.858C288.097 231.284 288.518 230.73 289.12 230.327C289.728 229.918 290.415 229.713 291.182 229.713C291.341 229.713 291.529 229.719 291.745 229.73C291.966 229.741 292.14 229.756 292.265 229.773V232.21C292.162 232.182 291.981 232.151 291.719 232.116C291.458 232.077 291.196 232.057 290.935 232.057C290.333 232.057 289.796 232.185 289.324 232.44C288.858 232.69 288.489 233.04 288.216 233.489C287.944 233.932 287.807 234.437 287.807 235.006V243H285.259ZM295.96 225.545L300.818 239.761H301.014L305.872 225.545H308.719L302.437 243H299.395L293.113 225.545H295.96ZM321.944 231.06C321.78 230.543 321.558 230.08 321.28 229.67C321.007 229.256 320.68 228.903 320.3 228.614C319.919 228.318 319.484 228.094 318.996 227.94C318.513 227.787 317.981 227.71 317.402 227.71C316.419 227.71 315.533 227.963 314.743 228.469C313.953 228.974 313.328 229.716 312.868 230.693C312.413 231.665 312.186 232.855 312.186 234.264C312.186 235.679 312.416 236.875 312.876 237.852C313.337 238.83 313.967 239.571 314.768 240.077C315.569 240.582 316.481 240.835 317.504 240.835C318.453 240.835 319.28 240.642 319.984 240.256C320.694 239.869 321.243 239.324 321.629 238.619C322.021 237.909 322.217 237.074 322.217 236.114L322.899 236.241H317.905V234.068H324.766V236.054C324.766 237.52 324.453 238.793 323.828 239.872C323.209 240.946 322.351 241.776 321.254 242.361C320.163 242.946 318.913 243.239 317.504 243.239C315.925 243.239 314.538 242.875 313.345 242.148C312.158 241.42 311.231 240.389 310.567 239.054C309.902 237.713 309.569 236.122 309.569 234.281C309.569 232.889 309.763 231.639 310.149 230.531C310.535 229.423 311.078 228.483 311.777 227.71C312.481 226.932 313.308 226.338 314.257 225.929C315.212 225.514 316.254 225.307 317.385 225.307C318.328 225.307 319.206 225.446 320.018 225.724C320.837 226.003 321.564 226.398 322.2 226.909C322.842 227.42 323.373 228.028 323.794 228.733C324.214 229.432 324.498 230.207 324.646 231.06H321.944ZM333.98 243V225.545H340.202C341.554 225.545 342.676 225.778 343.568 226.244C344.466 226.71 345.136 227.355 345.58 228.179C346.023 228.997 346.244 229.943 346.244 231.017C346.244 232.085 346.02 233.026 345.571 233.838C345.128 234.645 344.457 235.273 343.56 235.722C342.668 236.17 341.545 236.395 340.193 236.395H335.48V234.128H339.955C340.807 234.128 341.5 234.006 342.034 233.761C342.574 233.517 342.969 233.162 343.219 232.696C343.469 232.23 343.594 231.67 343.594 231.017C343.594 230.358 343.466 229.787 343.21 229.304C342.96 228.821 342.565 228.452 342.026 228.196C341.491 227.935 340.79 227.804 339.92 227.804H336.614V243H333.98ZM342.597 235.125L346.909 243H343.909L339.682 235.125H342.597ZM354.482 243.264C353.193 243.264 352.082 242.989 351.15 242.438C350.224 241.881 349.508 241.099 349.002 240.094C348.502 239.082 348.252 237.898 348.252 236.54C348.252 235.199 348.502 234.017 349.002 232.994C349.508 231.972 350.212 231.173 351.116 230.599C352.025 230.026 353.087 229.739 354.303 229.739C355.042 229.739 355.758 229.861 356.451 230.105C357.144 230.349 357.766 230.733 358.318 231.256C358.869 231.778 359.303 232.457 359.622 233.293C359.94 234.122 360.099 235.131 360.099 236.318V237.222H349.693V235.312H357.602C357.602 234.642 357.465 234.048 357.193 233.531C356.92 233.009 356.536 232.597 356.042 232.295C355.553 231.994 354.979 231.844 354.32 231.844C353.604 231.844 352.979 232.02 352.445 232.372C351.917 232.719 351.508 233.173 351.218 233.736C350.934 234.293 350.792 234.898 350.792 235.551V237.043C350.792 237.918 350.945 238.662 351.252 239.276C351.565 239.889 351.999 240.358 352.556 240.682C353.113 241 353.764 241.159 354.508 241.159C354.991 241.159 355.431 241.091 355.829 240.955C356.227 240.812 356.57 240.602 356.86 240.324C357.15 240.045 357.372 239.702 357.525 239.293L359.937 239.727C359.744 240.437 359.397 241.06 358.897 241.594C358.403 242.122 357.781 242.534 357.031 242.83C356.286 243.119 355.437 243.264 354.482 243.264ZM365.234 235.227V243H362.686V229.909H365.132V232.04H365.294C365.595 231.347 366.067 230.79 366.709 230.369C367.357 229.949 368.172 229.739 369.155 229.739C370.047 229.739 370.828 229.926 371.499 230.301C372.169 230.67 372.689 231.222 373.058 231.955C373.428 232.687 373.612 233.594 373.612 234.673V243H371.064V234.98C371.064 234.031 370.817 233.29 370.323 232.756C369.828 232.216 369.149 231.946 368.286 231.946C367.695 231.946 367.169 232.074 366.709 232.33C366.254 232.585 365.894 232.96 365.627 233.455C365.365 233.943 365.234 234.534 365.234 235.227ZM381.691 243.256C380.634 243.256 379.691 242.986 378.861 242.446C378.037 241.901 377.389 241.125 376.918 240.119C376.452 239.108 376.219 237.895 376.219 236.48C376.219 235.065 376.455 233.855 376.926 232.849C377.404 231.844 378.057 231.074 378.887 230.54C379.716 230.006 380.656 229.739 381.708 229.739C382.52 229.739 383.173 229.875 383.668 230.148C384.168 230.415 384.554 230.727 384.827 231.085C385.105 231.443 385.321 231.759 385.475 232.031H385.628V225.545H388.176V243H385.688V240.963H385.475C385.321 241.241 385.1 241.56 384.81 241.918C384.526 242.276 384.134 242.588 383.634 242.855C383.134 243.122 382.486 243.256 381.691 243.256ZM382.253 241.082C382.986 241.082 383.605 240.889 384.111 240.503C384.622 240.111 385.009 239.568 385.27 238.875C385.537 238.182 385.671 237.375 385.671 236.455C385.671 235.545 385.54 234.75 385.279 234.068C385.017 233.386 384.634 232.855 384.128 232.474C383.622 232.094 382.997 231.903 382.253 231.903C381.486 231.903 380.847 232.102 380.335 232.5C379.824 232.898 379.438 233.44 379.176 234.128C378.921 234.815 378.793 235.591 378.793 236.455C378.793 237.33 378.923 238.116 379.185 238.815C379.446 239.514 379.833 240.068 380.344 240.477C380.861 240.881 381.497 241.082 382.253 241.082ZM397.215 243.264C395.926 243.264 394.815 242.989 393.883 242.438C392.957 241.881 392.241 241.099 391.735 240.094C391.235 239.082 390.985 237.898 390.985 236.54C390.985 235.199 391.235 234.017 391.735 232.994C392.241 231.972 392.946 231.173 393.849 230.599C394.758 230.026 395.821 229.739 397.036 229.739C397.775 229.739 398.491 229.861 399.184 230.105C399.877 230.349 400.5 230.733 401.051 231.256C401.602 231.778 402.036 232.457 402.355 233.293C402.673 234.122 402.832 235.131 402.832 236.318V237.222H392.426V235.312H400.335C400.335 234.642 400.198 234.048 399.926 233.531C399.653 233.009 399.269 232.597 398.775 232.295C398.286 231.994 397.713 231.844 397.054 231.844C396.338 231.844 395.713 232.02 395.179 232.372C394.65 232.719 394.241 233.173 393.951 233.736C393.667 234.293 393.525 234.898 393.525 235.551V237.043C393.525 237.918 393.679 238.662 393.985 239.276C394.298 239.889 394.732 240.358 395.289 240.682C395.846 241 396.497 241.159 397.241 241.159C397.724 241.159 398.164 241.091 398.562 240.955C398.96 240.812 399.304 240.602 399.593 240.324C399.883 240.045 400.105 239.702 400.258 239.293L402.67 239.727C402.477 240.437 402.13 241.06 401.63 241.594C401.136 242.122 400.514 242.534 399.764 242.83C399.019 243.119 398.17 243.264 397.215 243.264ZM405.419 243V229.909H407.882V231.989H408.019C408.257 231.284 408.678 230.73 409.28 230.327C409.888 229.918 410.576 229.713 411.343 229.713C411.502 229.713 411.689 229.719 411.905 229.73C412.127 229.741 412.3 229.756 412.425 229.773V232.21C412.323 232.182 412.141 232.151 411.88 232.116C411.618 232.077 411.357 232.057 411.095 232.057C410.493 232.057 409.956 232.185 409.485 232.44C409.019 232.69 408.649 233.04 408.377 233.489C408.104 233.932 407.968 234.437 407.968 235.006V243H405.419ZM419.564 243.264C418.274 243.264 417.163 242.989 416.231 242.438C415.305 241.881 414.589 241.099 414.083 240.094C413.583 239.082 413.333 237.898 413.333 236.54C413.333 235.199 413.583 234.017 414.083 232.994C414.589 231.972 415.294 231.173 416.197 230.599C417.106 230.026 418.169 229.739 419.385 229.739C420.123 229.739 420.839 229.861 421.532 230.105C422.225 230.349 422.848 230.733 423.399 231.256C423.95 231.778 424.385 232.457 424.703 233.293C425.021 234.122 425.18 235.131 425.18 236.318V237.222H414.774V235.312H422.683C422.683 234.642 422.547 234.048 422.274 233.531C422.001 233.009 421.618 232.597 421.123 232.295C420.635 231.994 420.061 231.844 419.402 231.844C418.686 231.844 418.061 232.02 417.527 232.372C416.998 232.719 416.589 233.173 416.299 233.736C416.015 234.293 415.873 234.898 415.873 235.551V237.043C415.873 237.918 416.027 238.662 416.333 239.276C416.646 239.889 417.081 240.358 417.637 240.682C418.194 241 418.845 241.159 419.589 241.159C420.072 241.159 420.512 241.091 420.91 240.955C421.308 240.812 421.652 240.602 421.941 240.324C422.231 240.045 422.453 239.702 422.606 239.293L425.018 239.727C424.825 240.437 424.478 241.06 423.978 241.594C423.484 242.122 422.862 242.534 422.112 242.83C421.368 243.119 420.518 243.264 419.564 243.264ZM427.767 243V229.909H430.231V231.989H430.367C430.606 231.284 431.026 230.73 431.628 230.327C432.236 229.918 432.924 229.713 433.691 229.713C433.85 229.713 434.037 229.719 434.253 229.73C434.475 229.741 434.648 229.756 434.773 229.773V232.21C434.671 232.182 434.489 232.151 434.228 232.116C433.966 232.077 433.705 232.057 433.444 232.057C432.841 232.057 432.304 232.185 431.833 232.44C431.367 232.69 430.998 233.04 430.725 233.489C430.452 233.932 430.316 234.437 430.316 235.006V243H427.767Z" fill="black"/>
<rect x="342" y="27" width="205" height="51" fill="#C6DAF3"/>
<path d="M387.809 45.4545H389.997V55.767C389.997 56.6998 389.812 57.4976 389.443 58.1605C389.078 58.8234 388.564 59.33 387.902 59.6804C387.239 60.026 386.462 60.1989 385.572 60.1989C384.753 60.1989 384.017 60.0497 383.363 59.7514C382.715 59.4531 382.201 59.0199 381.822 58.4517C381.448 57.8788 381.261 57.1828 381.261 56.3636H383.441C383.441 56.7661 383.534 57.1141 383.718 57.4077C383.908 57.7012 384.166 57.9309 384.492 58.0966C384.824 58.2576 385.203 58.3381 385.629 58.3381C386.093 58.3381 386.486 58.241 386.808 58.0469C387.135 57.848 387.383 57.5568 387.554 57.1733C387.724 56.7898 387.809 56.321 387.809 55.767V45.4545ZM400.924 49.2756C400.848 48.6032 400.536 48.0824 399.987 47.7131C399.437 47.339 398.746 47.152 397.913 47.152C397.316 47.152 396.8 47.2467 396.365 47.4361C395.929 47.6207 395.59 47.8764 395.349 48.2031C395.112 48.5251 394.994 48.892 394.994 49.304C394.994 49.6496 395.074 49.9479 395.235 50.1989C395.401 50.4498 395.616 50.6605 395.882 50.831C396.151 50.9967 396.44 51.1364 396.748 51.25C397.056 51.3589 397.352 51.4489 397.636 51.5199L399.056 51.8892C399.52 52.0028 399.996 52.1567 400.484 52.3509C400.972 52.545 401.424 52.8007 401.84 53.1179C402.257 53.4351 402.593 53.8281 402.849 54.2969C403.109 54.7656 403.24 55.3267 403.24 55.9801C403.24 56.804 403.026 57.5355 402.6 58.1747C402.179 58.8139 401.566 59.3182 400.761 59.6875C399.961 60.0568 398.992 60.2415 397.856 60.2415C396.767 60.2415 395.825 60.0687 395.029 59.723C394.234 59.3774 393.611 58.8873 393.161 58.2528C392.712 57.6136 392.463 56.8561 392.416 55.9801H394.617C394.66 56.5057 394.83 56.9437 395.129 57.294C395.432 57.6397 395.818 57.8977 396.286 58.0682C396.76 58.2339 397.278 58.3168 397.842 58.3168C398.462 58.3168 399.014 58.2197 399.497 58.0256C399.984 57.8267 400.368 57.5521 400.647 57.2017C400.927 56.8466 401.066 56.4323 401.066 55.9588C401.066 55.5279 400.943 55.1752 400.697 54.9006C400.455 54.6259 400.126 54.3987 399.71 54.2188C399.298 54.0388 398.831 53.8802 398.311 53.7429L396.592 53.2741C395.427 52.9569 394.504 52.4905 393.822 51.875C393.145 51.2595 392.806 50.4451 392.806 49.4318C392.806 48.5937 393.034 47.8622 393.488 47.2372C393.943 46.6122 394.558 46.1269 395.335 45.7812C396.111 45.4309 396.987 45.2557 397.963 45.2557C398.947 45.2557 399.816 45.4285 400.569 45.7741C401.327 46.1198 401.923 46.5956 402.359 47.2017C402.794 47.803 403.022 48.4943 403.041 49.2756H400.924ZM416.124 44.7727L411.437 62.1875H409.541L414.228 44.7727H416.124ZM422.274 47.3438V45.4545H433.532V47.3438H428.993V60H426.806V47.3438H422.274ZM443.752 49.2756C443.677 48.6032 443.364 48.0824 442.815 47.7131C442.266 47.339 441.574 47.152 440.741 47.152C440.144 47.152 439.628 47.2467 439.193 47.4361C438.757 47.6207 438.419 47.8764 438.177 48.2031C437.94 48.5251 437.822 48.892 437.822 49.304C437.822 49.6496 437.902 49.9479 438.063 50.1989C438.229 50.4498 438.445 50.6605 438.71 50.831C438.98 50.9967 439.268 51.1364 439.576 51.25C439.884 51.3589 440.18 51.4489 440.464 51.5199L441.884 51.8892C442.348 52.0028 442.824 52.1567 443.312 52.3509C443.8 52.545 444.252 52.8007 444.669 53.1179C445.085 53.4351 445.421 53.8281 445.677 54.2969C445.937 54.7656 446.068 55.3267 446.068 55.9801C446.068 56.804 445.855 57.5355 445.428 58.1747C445.007 58.8139 444.394 59.3182 443.589 59.6875C442.789 60.0568 441.821 60.2415 440.684 60.2415C439.595 60.2415 438.653 60.0687 437.857 59.723C437.062 59.3774 436.439 58.8873 435.99 58.2528C435.54 57.6136 435.291 56.8561 435.244 55.9801H437.446C437.488 56.5057 437.659 56.9437 437.957 57.294C438.26 57.6397 438.646 57.8977 439.115 58.0682C439.588 58.2339 440.107 58.3168 440.67 58.3168C441.29 58.3168 441.842 58.2197 442.325 58.0256C442.812 57.8267 443.196 57.5521 443.475 57.2017C443.755 56.8466 443.894 56.4323 443.894 55.9588C443.894 55.5279 443.771 55.1752 443.525 54.9006C443.284 54.6259 442.955 54.3987 442.538 54.2188C442.126 54.0388 441.66 53.8802 441.139 53.7429L439.42 53.2741C438.255 52.9569 437.332 52.4905 436.65 51.875C435.973 51.2595 435.634 50.4451 435.634 49.4318C435.634 48.5937 435.862 47.8622 436.316 47.2372C436.771 46.6122 437.386 46.1269 438.163 45.7812C438.939 45.4309 439.815 45.2557 440.791 45.2557C441.776 45.2557 442.644 45.4285 443.397 45.7741C444.155 46.1198 444.751 46.5956 445.187 47.2017C445.623 47.803 445.85 48.4943 445.869 49.2756H443.752Z" fill="black"/>
<rect x="271" y="386" width="133" height="54" fill="#ECD1D9"/>
<path d="M297.562 412.727C297.562 414.28 297.278 415.616 296.71 416.733C296.142 417.846 295.363 418.703 294.373 419.304C293.388 419.901 292.269 420.199 291.014 420.199C289.754 420.199 288.63 419.901 287.64 419.304C286.656 418.703 285.879 417.843 285.311 416.726C284.743 415.608 284.459 414.276 284.459 412.727C284.459 411.174 284.743 409.841 285.311 408.729C285.879 407.611 286.656 406.754 287.64 406.158C288.63 405.556 289.754 405.256 291.014 405.256C292.269 405.256 293.388 405.556 294.373 406.158C295.363 406.754 296.142 407.611 296.71 408.729C297.278 409.841 297.562 411.174 297.562 412.727ZM295.389 412.727C295.389 411.544 295.197 410.547 294.814 409.737C294.435 408.923 293.914 408.307 293.251 407.891C292.593 407.469 291.847 407.259 291.014 407.259C290.176 407.259 289.428 407.469 288.77 407.891C288.111 408.307 287.591 408.923 287.207 409.737C286.828 410.547 286.639 411.544 286.639 412.727C286.639 413.911 286.828 414.91 287.207 415.724C287.591 416.534 288.111 417.15 288.77 417.571C289.428 417.988 290.176 418.196 291.014 418.196C291.847 418.196 292.593 417.988 293.251 417.571C293.914 417.15 294.435 416.534 294.814 415.724C295.197 414.91 295.389 413.911 295.389 412.727ZM299.928 424.091V409.091H302.002V410.859H302.179C302.302 410.632 302.48 410.369 302.712 410.071C302.944 409.773 303.266 409.512 303.678 409.29C304.09 409.062 304.634 408.949 305.311 408.949C306.192 408.949 306.978 409.171 307.669 409.616C308.361 410.062 308.903 410.703 309.296 411.541C309.694 412.379 309.892 413.388 309.892 414.567C309.892 415.746 309.696 416.757 309.303 417.599C308.91 418.437 308.37 419.084 307.684 419.538C306.997 419.988 306.213 420.213 305.333 420.213C304.67 420.213 304.128 420.102 303.706 419.879C303.29 419.657 302.963 419.396 302.726 419.098C302.489 418.8 302.307 418.535 302.179 418.303H302.052V424.091H299.928ZM302.009 414.545C302.009 415.312 302.12 415.985 302.343 416.562C302.565 417.14 302.887 417.592 303.309 417.919C303.73 418.241 304.246 418.402 304.857 418.402C305.491 418.402 306.022 418.234 306.448 417.898C306.874 417.557 307.196 417.095 307.414 416.513C307.636 415.93 307.748 415.275 307.748 414.545C307.748 413.826 307.639 413.179 307.421 412.607C307.208 412.034 306.886 411.581 306.455 411.25C306.029 410.919 305.496 410.753 304.857 410.753C304.241 410.753 303.721 410.911 303.294 411.229C302.873 411.546 302.553 411.989 302.336 412.557C302.118 413.125 302.009 413.788 302.009 414.545ZM316.773 420.22C315.699 420.22 314.773 419.991 313.996 419.531C313.225 419.067 312.628 418.416 312.207 417.578C311.79 416.735 311.582 415.748 311.582 414.616C311.582 413.499 311.79 412.514 312.207 411.662C312.628 410.81 313.215 410.144 313.968 409.666C314.726 409.188 315.611 408.949 316.624 408.949C317.24 408.949 317.836 409.051 318.414 409.254C318.992 409.458 319.51 409.777 319.969 410.213C320.429 410.649 320.791 411.214 321.056 411.911C321.321 412.602 321.454 413.442 321.454 414.432V415.185H312.782V413.594H319.373C319.373 413.035 319.259 412.54 319.032 412.109C318.805 411.674 318.485 411.33 318.073 411.08C317.666 410.829 317.188 410.703 316.638 410.703C316.042 410.703 315.521 410.85 315.076 411.143C314.636 411.432 314.295 411.811 314.053 412.28C313.816 412.744 313.698 413.248 313.698 413.793V415.036C313.698 415.765 313.826 416.385 314.082 416.896C314.342 417.408 314.704 417.798 315.168 418.068C315.632 418.333 316.174 418.466 316.795 418.466C317.197 418.466 317.564 418.409 317.896 418.295C318.227 418.177 318.513 418.002 318.755 417.77C318.996 417.538 319.181 417.251 319.309 416.911L321.319 417.273C321.158 417.865 320.869 418.383 320.452 418.828C320.04 419.268 319.522 419.612 318.897 419.858C318.277 420.099 317.569 420.22 316.773 420.22ZM325.734 413.523V420H323.61V409.091H325.648V410.866H325.783C326.034 410.289 326.427 409.825 326.962 409.474C327.502 409.124 328.181 408.949 329.001 408.949C329.744 408.949 330.395 409.105 330.954 409.418C331.512 409.725 331.946 410.185 332.253 410.795C332.561 411.406 332.715 412.161 332.715 413.061V420H330.592V413.317C330.592 412.526 330.386 411.908 329.974 411.463C329.562 411.013 328.996 410.788 328.276 410.788C327.784 410.788 327.346 410.895 326.962 411.108C326.583 411.321 326.283 411.634 326.06 412.045C325.842 412.453 325.734 412.945 325.734 413.523ZM345.377 410.05C345.24 409.619 345.055 409.233 344.823 408.892C344.596 408.546 344.324 408.253 344.007 408.011C343.689 407.765 343.327 407.578 342.92 407.45C342.517 407.322 342.075 407.259 341.592 407.259C340.773 407.259 340.034 407.469 339.376 407.891C338.718 408.312 338.197 408.93 337.813 409.744C337.435 410.554 337.245 411.546 337.245 412.72C337.245 413.899 337.437 414.896 337.82 415.71C338.204 416.525 338.73 417.143 339.397 417.564C340.065 417.985 340.825 418.196 341.677 418.196C342.468 418.196 343.157 418.035 343.744 417.713C344.336 417.391 344.793 416.937 345.115 416.349C345.441 415.758 345.605 415.062 345.605 414.261L346.173 414.368H342.011V412.557H347.728V414.212C347.728 415.433 347.468 416.494 346.947 417.393C346.431 418.288 345.716 418.98 344.802 419.467C343.893 419.955 342.851 420.199 341.677 420.199C340.361 420.199 339.205 419.896 338.211 419.29C337.222 418.684 336.45 417.824 335.896 416.712C335.342 415.594 335.065 414.268 335.065 412.734C335.065 411.574 335.226 410.533 335.548 409.609C335.87 408.686 336.322 407.902 336.904 407.259C337.491 406.61 338.18 406.115 338.971 405.774C339.767 405.429 340.635 405.256 341.578 405.256C342.364 405.256 343.095 405.372 343.772 405.604C344.454 405.836 345.06 406.165 345.59 406.591C346.125 407.017 346.568 407.524 346.919 408.111C347.269 408.693 347.506 409.339 347.629 410.05H345.377ZM350.314 420V405.455H352.509V418.111H359.1V420H350.314ZM366.772 404.773L362.085 422.188H360.189L364.876 404.773H366.772ZM368.547 420V405.455H377.666V407.344H370.741V411.776H377.19V413.658H370.741V418.111H377.751V420H368.547ZM388.331 409.276C388.255 408.603 387.943 408.082 387.393 407.713C386.844 407.339 386.153 407.152 385.319 407.152C384.723 407.152 384.207 407.247 383.771 407.436C383.336 407.621 382.997 407.876 382.756 408.203C382.519 408.525 382.4 408.892 382.4 409.304C382.4 409.65 382.481 409.948 382.642 410.199C382.808 410.45 383.023 410.661 383.288 410.831C383.558 410.997 383.847 411.136 384.155 411.25C384.462 411.359 384.758 411.449 385.043 411.52L386.463 411.889C386.927 412.003 387.403 412.157 387.891 412.351C388.378 412.545 388.83 412.801 389.247 413.118C389.664 413.435 390 413.828 390.256 414.297C390.516 414.766 390.646 415.327 390.646 415.98C390.646 416.804 390.433 417.536 390.007 418.175C389.586 418.814 388.972 419.318 388.168 419.688C387.367 420.057 386.399 420.241 385.263 420.241C384.174 420.241 383.231 420.069 382.436 419.723C381.641 419.377 381.018 418.887 380.568 418.253C380.118 417.614 379.87 416.856 379.822 415.98H382.024C382.067 416.506 382.237 416.944 382.535 417.294C382.838 417.64 383.224 417.898 383.693 418.068C384.167 418.234 384.685 418.317 385.248 418.317C385.869 418.317 386.42 418.22 386.903 418.026C387.391 417.827 387.775 417.552 388.054 417.202C388.333 416.847 388.473 416.432 388.473 415.959C388.473 415.528 388.35 415.175 388.104 414.901C387.862 414.626 387.533 414.399 387.116 414.219C386.704 414.039 386.238 413.88 385.717 413.743L383.998 413.274C382.834 412.957 381.91 412.491 381.229 411.875C380.552 411.259 380.213 410.445 380.213 409.432C380.213 408.594 380.44 407.862 380.895 407.237C381.349 406.612 381.965 406.127 382.741 405.781C383.518 405.431 384.394 405.256 385.369 405.256C386.354 405.256 387.223 405.429 387.976 405.774C388.733 406.12 389.33 406.596 389.766 407.202C390.201 407.803 390.428 408.494 390.447 409.276H388.331Z" fill="black"/>
<rect x="127" y="386" width="133" height="54" fill="#ECD1D9"/>
<path d="M186.256 410.185H184.04C183.955 409.711 183.796 409.295 183.564 408.935C183.332 408.575 183.048 408.269 182.712 408.018C182.376 407.768 181.999 407.578 181.583 407.45C181.171 407.322 180.733 407.259 180.269 407.259C179.431 407.259 178.68 407.469 178.017 407.891C177.359 408.312 176.838 408.93 176.455 409.744C176.076 410.559 175.887 411.553 175.887 412.727C175.887 413.911 176.076 414.91 176.455 415.724C176.838 416.539 177.362 417.154 178.024 417.571C178.687 417.988 179.433 418.196 180.262 418.196C180.721 418.196 181.156 418.134 181.568 418.011C181.985 417.884 182.362 417.696 182.698 417.45C183.034 417.204 183.318 416.903 183.55 416.548C183.787 416.188 183.95 415.777 184.04 415.312L186.256 415.32C186.138 416.035 185.908 416.693 185.567 417.294C185.231 417.891 184.798 418.407 184.267 418.842C183.742 419.273 183.14 419.607 182.463 419.844C181.786 420.08 181.048 420.199 180.247 420.199C178.988 420.199 177.866 419.901 176.881 419.304C175.896 418.703 175.12 417.843 174.551 416.726C173.988 415.608 173.706 414.276 173.706 412.727C173.706 411.174 173.99 409.841 174.558 408.729C175.127 407.611 175.903 406.754 176.888 406.158C177.873 405.556 178.993 405.256 180.247 405.256C181.019 405.256 181.739 405.367 182.406 405.589C183.079 405.807 183.683 406.129 184.218 406.555C184.753 406.977 185.195 407.493 185.546 408.104C185.896 408.71 186.133 409.403 186.256 410.185ZM188.682 420V405.455H193.867C194.998 405.455 195.936 405.661 196.679 406.072C197.423 406.484 197.979 407.048 198.348 407.763C198.718 408.473 198.902 409.273 198.902 410.163C198.902 411.058 198.715 411.863 198.341 412.578C197.972 413.288 197.413 413.852 196.665 414.268C195.922 414.68 194.986 414.886 193.86 414.886H190.294V413.026H193.661C194.376 413.026 194.956 412.902 195.401 412.656C195.846 412.405 196.173 412.064 196.381 411.634C196.589 411.203 196.693 410.713 196.693 410.163C196.693 409.614 196.589 409.126 196.381 408.7C196.173 408.274 195.843 407.94 195.394 407.699C194.949 407.457 194.361 407.337 193.632 407.337H190.877V420H188.682ZM210.629 405.455H212.83V415.021C212.83 416.039 212.591 416.941 212.113 417.727C211.635 418.509 210.962 419.124 210.096 419.574C209.23 420.019 208.214 420.241 207.049 420.241C205.889 420.241 204.876 420.019 204.009 419.574C203.143 419.124 202.471 418.509 201.992 417.727C201.514 416.941 201.275 416.039 201.275 415.021V405.455H203.47V414.844C203.47 415.502 203.614 416.087 203.903 416.598C204.196 417.109 204.611 417.512 205.146 417.805C205.681 418.094 206.315 418.239 207.049 418.239C207.788 418.239 208.425 418.094 208.96 417.805C209.499 417.512 209.911 417.109 210.195 416.598C210.484 416.087 210.629 415.502 210.629 414.844V405.455Z" fill="black"/>
<rect x="415" y="386" width="133" height="54" fill="#ECD1D9"/>
<path d="M443.819 420L439.785 405.455H442.093L444.927 416.719H445.062L448.009 405.455H450.296L453.244 416.726H453.379L456.205 405.455H458.521L454.48 420H452.271L449.21 409.105H449.096L446.035 420H443.819ZM463.779 420.22C462.704 420.22 461.778 419.991 461.002 419.531C460.23 419.067 459.634 418.416 459.212 417.578C458.795 416.735 458.587 415.748 458.587 414.616C458.587 413.499 458.795 412.514 459.212 411.662C459.634 410.81 460.221 410.144 460.973 409.666C461.731 409.188 462.616 408.949 463.63 408.949C464.245 408.949 464.842 409.051 465.419 409.254C465.997 409.458 466.516 409.777 466.975 410.213C467.434 410.649 467.796 411.214 468.062 411.911C468.327 412.602 468.459 413.442 468.459 414.432V415.185H459.787V413.594H466.378C466.378 413.035 466.265 412.54 466.037 412.109C465.81 411.674 465.491 411.33 465.079 411.08C464.671 410.829 464.193 410.703 463.644 410.703C463.047 410.703 462.527 410.85 462.081 411.143C461.641 411.432 461.3 411.811 461.059 412.28C460.822 412.744 460.704 413.248 460.704 413.793V415.036C460.704 415.765 460.831 416.385 461.087 416.896C461.348 417.408 461.71 417.798 462.174 418.068C462.638 418.333 463.18 418.466 463.8 418.466C464.203 418.466 464.57 418.409 464.901 418.295C465.232 418.177 465.519 418.002 465.76 417.77C466.002 417.538 466.187 417.251 466.314 416.911L468.324 417.273C468.163 417.865 467.875 418.383 467.458 418.828C467.046 419.268 466.527 419.612 465.902 419.858C465.282 420.099 464.574 420.22 463.779 420.22ZM470.786 420V405.455H472.909V410.859H473.037C473.16 410.632 473.338 410.369 473.57 410.071C473.802 409.773 474.124 409.512 474.536 409.29C474.948 409.062 475.492 408.949 476.169 408.949C477.05 408.949 477.836 409.171 478.527 409.616C479.219 410.062 479.761 410.703 480.154 411.541C480.552 412.379 480.75 413.388 480.75 414.567C480.75 415.746 480.554 416.757 480.161 417.599C479.768 418.437 479.228 419.084 478.542 419.538C477.855 419.988 477.071 420.213 476.191 420.213C475.528 420.213 474.986 420.102 474.564 419.879C474.148 419.657 473.821 419.396 473.584 419.098C473.347 418.8 473.165 418.535 473.037 418.303H472.86V420H470.786ZM472.867 414.545C472.867 415.312 472.978 415.985 473.201 416.562C473.423 417.14 473.745 417.592 474.167 417.919C474.588 418.241 475.104 418.402 475.715 418.402C476.349 418.402 476.88 418.234 477.306 417.898C477.732 417.557 478.054 417.095 478.272 416.513C478.494 415.93 478.606 415.275 478.606 414.545C478.606 413.826 478.497 413.179 478.279 412.607C478.066 412.034 477.744 411.581 477.313 411.25C476.887 410.919 476.354 410.753 475.715 410.753C475.099 410.753 474.579 410.911 474.152 411.229C473.731 411.546 473.411 411.989 473.194 412.557C472.976 413.125 472.867 413.788 472.867 414.545ZM492.949 410.05C492.812 409.619 492.627 409.233 492.395 408.892C492.168 408.546 491.896 408.253 491.578 408.011C491.261 407.765 490.899 407.578 490.492 407.45C490.089 407.322 489.647 407.259 489.164 407.259C488.345 407.259 487.606 407.469 486.948 407.891C486.29 408.312 485.769 408.93 485.385 409.744C485.006 410.554 484.817 411.546 484.817 412.72C484.817 413.899 485.009 414.896 485.392 415.71C485.776 416.525 486.301 417.143 486.969 417.564C487.637 417.985 488.397 418.196 489.249 418.196C490.04 418.196 490.729 418.035 491.316 417.713C491.908 417.391 492.364 416.937 492.686 416.349C493.013 415.758 493.176 415.062 493.176 414.261L493.745 414.368H489.583V412.557H495.3V414.212C495.3 415.433 495.04 416.494 494.519 417.393C494.003 418.288 493.288 418.98 492.374 419.467C491.465 419.955 490.423 420.199 489.249 420.199C487.933 420.199 486.777 419.896 485.783 419.29C484.793 418.684 484.022 417.824 483.468 416.712C482.914 415.594 482.637 414.268 482.637 412.734C482.637 411.574 482.798 410.533 483.12 409.609C483.442 408.686 483.894 407.902 484.476 407.259C485.063 406.61 485.752 406.115 486.543 405.774C487.338 405.429 488.207 405.256 489.149 405.256C489.935 405.256 490.667 405.372 491.344 405.604C492.026 405.836 492.632 406.165 493.162 406.591C493.697 407.017 494.14 407.524 494.49 408.111C494.841 408.693 495.078 409.339 495.201 410.05H492.949ZM497.886 420V405.455H503.071C504.202 405.455 505.14 405.661 505.883 406.072C506.626 406.484 507.183 407.048 507.552 407.763C507.921 408.473 508.106 409.273 508.106 410.163C508.106 411.058 507.919 411.863 507.545 412.578C507.176 413.288 506.617 413.852 505.869 414.268C505.125 414.68 504.19 414.886 503.063 414.886H499.498V413.026H502.865C503.58 413.026 504.16 412.902 504.605 412.656C505.05 412.405 505.376 412.064 505.585 411.634C505.793 411.203 505.897 410.713 505.897 410.163C505.897 409.614 505.793 409.126 505.585 408.7C505.376 408.274 505.047 407.94 504.598 407.699C504.152 407.457 503.565 407.337 502.836 407.337H500.081V420H497.886ZM519.833 405.455H522.034V415.021C522.034 416.039 521.795 416.941 521.317 417.727C520.839 418.509 520.166 419.124 519.3 419.574C518.433 420.019 517.418 420.241 516.253 420.241C515.093 420.241 514.08 420.019 513.213 419.574C512.347 419.124 511.674 418.509 511.196 417.727C510.718 416.941 510.479 416.039 510.479 415.021V405.455H512.673V414.844C512.673 415.502 512.818 416.087 513.107 416.598C513.4 417.109 513.815 417.512 514.35 417.805C514.885 418.094 515.519 418.239 516.253 418.239C516.992 418.239 517.628 418.094 518.164 417.805C518.703 417.512 519.115 417.109 519.399 416.598C519.688 416.087 519.833 415.502 519.833 414.844V405.455Z" fill="black"/>
<rect x="610" y="62" width="114" height="36" fill="#D8EAD2"/>
<path d="M646.702 86V74.3636H648.458V84.4886H653.73V86H646.702ZM659.113 86.1761C658.295 86.1761 657.581 85.9886 656.971 85.6136C656.361 85.2386 655.887 84.714 655.55 84.0398C655.213 83.3655 655.045 82.5777 655.045 81.6761C655.045 80.7708 655.213 79.9792 655.55 79.3011C655.887 78.6231 656.361 78.0966 656.971 77.7216C657.581 77.3466 658.295 77.1591 659.113 77.1591C659.931 77.1591 660.645 77.3466 661.255 77.7216C661.865 78.0966 662.338 78.6231 662.675 79.3011C663.012 79.9792 663.181 80.7708 663.181 81.6761C663.181 82.5777 663.012 83.3655 662.675 84.0398C662.338 84.714 661.865 85.2386 661.255 85.6136C660.645 85.9886 659.931 86.1761 659.113 86.1761ZM659.119 84.75C659.649 84.75 660.088 84.6098 660.437 84.3295C660.785 84.0492 661.043 83.6761 661.209 83.2102C661.38 82.7443 661.465 82.2311 661.465 81.6705C661.465 81.1136 661.38 80.6023 661.209 80.1364C661.043 79.6667 660.785 79.2898 660.437 79.0057C660.088 78.7216 659.649 78.5795 659.119 78.5795C658.584 78.5795 658.141 78.7216 657.789 79.0057C657.441 79.2898 657.181 79.6667 657.011 80.1364C656.844 80.6023 656.761 81.1136 656.761 81.6705C656.761 82.2311 656.844 82.7443 657.011 83.2102C657.181 83.6761 657.441 84.0492 657.789 84.3295C658.141 84.6098 658.584 84.75 659.119 84.75ZM668.991 77.2727V78.6364H664.224V77.2727H668.991ZM665.503 75.1818H667.201V83.4375C667.201 83.767 667.251 84.0152 667.349 84.1818C667.448 84.3447 667.575 84.4564 667.73 84.517C667.889 84.5739 668.061 84.6023 668.247 84.6023C668.383 84.6023 668.503 84.5928 668.605 84.5739C668.707 84.5549 668.787 84.5398 668.843 84.5284L669.15 85.9318C669.052 85.9697 668.912 86.0076 668.73 86.0455C668.548 86.0871 668.321 86.1098 668.048 86.1136C667.601 86.1212 667.184 86.0417 666.798 85.875C666.412 85.7083 666.099 85.4508 665.861 85.1023C665.622 84.7538 665.503 84.3163 665.503 83.7898V75.1818ZM674.784 77.2727V78.6364H670.017V77.2727H674.784ZM671.296 75.1818H672.995V83.4375C672.995 83.767 673.044 84.0152 673.142 84.1818C673.241 84.3447 673.368 84.4564 673.523 84.517C673.682 84.5739 673.854 84.6023 674.04 84.6023C674.176 84.6023 674.296 84.5928 674.398 84.5739C674.5 84.5549 674.58 84.5398 674.637 84.5284L674.943 85.9318C674.845 85.9697 674.705 86.0076 674.523 86.0455C674.341 86.0871 674.114 86.1098 673.841 86.1136C673.394 86.1212 672.978 86.0417 672.591 85.875C672.205 85.7083 671.892 85.4508 671.654 85.1023C671.415 84.7538 671.296 84.3163 671.296 83.7898V75.1818ZM676.504 86V77.2727H678.202V86H676.504ZM677.362 75.9261C677.066 75.9261 676.812 75.8277 676.6 75.6307C676.392 75.4299 676.288 75.1913 676.288 74.9148C676.288 74.6345 676.392 74.3958 676.6 74.1989C676.812 73.9981 677.066 73.8977 677.362 73.8977C677.657 73.8977 677.909 73.9981 678.117 74.1989C678.329 74.3958 678.435 74.6345 678.435 74.9148C678.435 75.1913 678.329 75.4299 678.117 75.6307C677.909 75.8277 677.657 75.9261 677.362 75.9261ZM684.089 86.1761C683.229 86.1761 682.489 85.9924 681.868 85.625C681.25 85.2538 680.773 84.733 680.436 84.0625C680.103 83.3883 679.936 82.5985 679.936 81.6932C679.936 80.7992 680.103 80.0114 680.436 79.3295C680.773 78.6477 681.243 78.1155 681.845 77.733C682.451 77.3504 683.159 77.1591 683.97 77.1591C684.462 77.1591 684.94 77.2405 685.402 77.4034C685.864 77.5663 686.279 77.822 686.646 78.1705C687.014 78.5189 687.303 78.9716 687.515 79.5284C687.728 80.0814 687.834 80.7538 687.834 81.5455V82.1477H680.896V80.875H686.169C686.169 80.428 686.078 80.0322 685.896 79.6875C685.714 79.339 685.459 79.0644 685.129 78.8636C684.803 78.6629 684.421 78.5625 683.981 78.5625C683.504 78.5625 683.087 78.6799 682.731 78.9148C682.379 79.1458 682.106 79.4489 681.913 79.8239C681.724 80.1951 681.629 80.5985 681.629 81.0341V82.0284C681.629 82.6117 681.731 83.108 681.936 83.517C682.144 83.9261 682.434 84.2386 682.805 84.4545C683.176 84.6667 683.61 84.7727 684.106 84.7727C684.428 84.7727 684.722 84.7273 684.987 84.6364C685.252 84.5417 685.481 84.4015 685.675 84.2159C685.868 84.0303 686.015 83.8011 686.118 83.5284L687.726 83.8182C687.597 84.2917 687.366 84.7064 687.033 85.0625C686.703 85.4148 686.288 85.6894 685.788 85.8864C685.292 86.0795 684.726 86.1761 684.089 86.1761Z" fill="black"/>
<rect x="610" y="109" width="114" height="36" fill="#D8EAD2"/>
<path d="M658.332 124.42C658.271 123.883 658.021 123.466 657.582 123.17C657.142 122.871 656.589 122.722 655.923 122.722C655.446 122.722 655.033 122.797 654.684 122.949C654.336 123.097 654.065 123.301 653.872 123.562C653.682 123.82 653.588 124.114 653.588 124.443C653.588 124.72 653.652 124.958 653.781 125.159C653.913 125.36 654.086 125.528 654.298 125.665C654.514 125.797 654.745 125.909 654.991 126C655.237 126.087 655.474 126.159 655.701 126.216L656.838 126.511C657.209 126.602 657.589 126.725 657.98 126.881C658.37 127.036 658.731 127.241 659.065 127.494C659.398 127.748 659.667 128.062 659.872 128.438C660.08 128.812 660.184 129.261 660.184 129.784C660.184 130.443 660.014 131.028 659.673 131.54C659.336 132.051 658.845 132.455 658.201 132.75C657.561 133.045 656.786 133.193 655.877 133.193C655.006 133.193 654.252 133.055 653.616 132.778C652.98 132.502 652.481 132.11 652.122 131.602C651.762 131.091 651.563 130.485 651.525 129.784H653.286C653.321 130.205 653.457 130.555 653.696 130.835C653.938 131.112 654.247 131.318 654.622 131.455C655 131.587 655.415 131.653 655.866 131.653C656.362 131.653 656.803 131.576 657.19 131.42C657.58 131.261 657.887 131.042 658.11 130.761C658.334 130.477 658.446 130.146 658.446 129.767C658.446 129.422 658.347 129.14 658.15 128.92C657.957 128.701 657.694 128.519 657.36 128.375C657.031 128.231 656.658 128.104 656.241 127.994L654.866 127.619C653.934 127.366 653.196 126.992 652.65 126.5C652.108 126.008 651.838 125.356 651.838 124.545C651.838 123.875 652.019 123.29 652.383 122.79C652.747 122.29 653.239 121.902 653.86 121.625C654.481 121.345 655.182 121.205 655.963 121.205C656.75 121.205 657.446 121.343 658.048 121.619C658.654 121.896 659.131 122.277 659.48 122.761C659.828 123.242 660.01 123.795 660.025 124.42H658.332ZM663.139 121.364L666.378 130.841H666.509L669.747 121.364H671.645L667.457 133H665.429L661.241 121.364H663.139ZM680.462 125.04C680.352 124.695 680.205 124.386 680.019 124.114C679.837 123.837 679.619 123.602 679.366 123.409C679.112 123.212 678.822 123.062 678.496 122.96C678.174 122.858 677.82 122.807 677.434 122.807C676.778 122.807 676.188 122.975 675.661 123.312C675.135 123.65 674.718 124.144 674.411 124.795C674.108 125.443 673.956 126.237 673.956 127.176C673.956 128.119 674.11 128.917 674.417 129.568C674.724 130.22 675.144 130.714 675.678 131.051C676.212 131.388 676.82 131.557 677.502 131.557C678.135 131.557 678.686 131.428 679.155 131.17C679.629 130.913 679.994 130.549 680.252 130.08C680.513 129.606 680.644 129.049 680.644 128.409L681.099 128.494H677.769V127.045H682.343V128.369C682.343 129.347 682.135 130.195 681.718 130.915C681.305 131.631 680.733 132.184 680.002 132.574C679.275 132.964 678.441 133.159 677.502 133.159C676.449 133.159 675.525 132.917 674.729 132.432C673.938 131.947 673.32 131.259 672.877 130.369C672.434 129.475 672.212 128.415 672.212 127.188C672.212 126.259 672.341 125.426 672.599 124.688C672.856 123.949 673.218 123.322 673.684 122.807C674.153 122.288 674.705 121.892 675.337 121.619C675.974 121.343 676.669 121.205 677.422 121.205C678.051 121.205 678.636 121.297 679.178 121.483C679.724 121.669 680.208 121.932 680.633 122.273C681.061 122.614 681.415 123.019 681.695 123.489C681.975 123.955 682.165 124.472 682.263 125.04H680.462Z" fill="black"/>
<rect x="610" y="156" width="114" height="36" fill="#D8EAD2"/>
<path d="M652.755 169.875V168.364H661.761V169.875H658.13V180H656.38V169.875H652.755ZM663.017 169.875V168.364H672.023V169.875H668.392V180H666.642V169.875H663.017ZM673.853 180V168.364H681.069V169.875H675.608V173.42H680.552V174.926H675.608V180H673.853Z" fill="black"/>
<rect x="610" y="203" width="114" height="36" fill="#D8EAD2"/>
<path d="M651.352 227V215.364H655.5C656.406 215.364 657.156 215.528 657.75 215.858C658.345 216.187 658.79 216.638 659.085 217.21C659.381 217.778 659.529 218.419 659.529 219.131C659.529 219.847 659.379 220.491 659.08 221.062C658.784 221.631 658.337 222.081 657.739 222.415C657.144 222.744 656.396 222.909 655.495 222.909H652.642V221.42H655.335C655.907 221.42 656.371 221.322 656.727 221.125C657.084 220.924 657.345 220.652 657.512 220.307C657.678 219.962 657.762 219.57 657.762 219.131C657.762 218.691 657.678 218.301 657.512 217.96C657.345 217.619 657.082 217.352 656.722 217.159C656.366 216.966 655.896 216.869 655.313 216.869H653.108V227H651.352ZM670.819 215.364V227H669.205L663.29 218.466H663.183V227H661.427V215.364H663.052L668.972 223.909H669.08V215.364H670.819ZM681.095 219.04C680.985 218.695 680.837 218.386 680.652 218.114C680.47 217.837 680.252 217.602 679.998 217.409C679.745 217.212 679.455 217.062 679.129 216.96C678.807 216.858 678.453 216.807 678.067 216.807C677.411 216.807 676.82 216.975 676.294 217.312C675.767 217.65 675.351 218.144 675.044 218.795C674.741 219.443 674.589 220.237 674.589 221.176C674.589 222.119 674.743 222.917 675.05 223.568C675.356 224.22 675.777 224.714 676.311 225.051C676.845 225.388 677.453 225.557 678.135 225.557C678.767 225.557 679.318 225.428 679.788 225.17C680.262 224.913 680.627 224.549 680.885 224.08C681.146 223.606 681.277 223.049 681.277 222.409L681.731 222.494H678.402V221.045H682.976V222.369C682.976 223.347 682.767 224.195 682.351 224.915C681.938 225.631 681.366 226.184 680.635 226.574C679.907 226.964 679.074 227.159 678.135 227.159C677.082 227.159 676.157 226.917 675.362 226.432C674.57 225.947 673.953 225.259 673.51 224.369C673.067 223.475 672.845 222.415 672.845 221.188C672.845 220.259 672.974 219.426 673.231 218.688C673.489 217.949 673.851 217.322 674.317 216.807C674.786 216.288 675.337 215.892 675.97 215.619C676.606 215.343 677.301 215.205 678.055 215.205C678.684 215.205 679.269 215.297 679.811 215.483C680.356 215.669 680.841 215.932 681.265 216.273C681.693 216.614 682.048 217.019 682.328 217.489C682.608 217.955 682.798 218.472 682.896 219.04H681.095Z" fill="black"/>
<rect x="610" y="250" width="114" height="36" fill="#D8EAD2"/>
<path d="M657.438 262.364H659.188V270.614C659.188 271.36 659.04 271.998 658.745 272.528C658.453 273.059 658.042 273.464 657.512 273.744C656.981 274.021 656.36 274.159 655.648 274.159C654.993 274.159 654.404 274.04 653.881 273.801C653.362 273.562 652.951 273.216 652.648 272.761C652.349 272.303 652.199 271.746 652.199 271.091H653.943C653.943 271.413 654.017 271.691 654.165 271.926C654.316 272.161 654.523 272.345 654.784 272.477C655.049 272.606 655.352 272.67 655.693 272.67C656.065 272.67 656.379 272.593 656.637 272.438C656.898 272.278 657.097 272.045 657.233 271.739C657.37 271.432 657.438 271.057 657.438 270.614V262.364ZM661.583 274V262.364H665.731C666.636 262.364 667.386 262.528 667.981 262.858C668.576 263.187 669.021 263.638 669.316 264.21C669.612 264.778 669.759 265.419 669.759 266.131C669.759 266.847 669.61 267.491 669.31 268.062C669.015 268.631 668.568 269.081 667.969 269.415C667.375 269.744 666.627 269.909 665.725 269.909H662.873V268.42H665.566C666.138 268.42 666.602 268.322 666.958 268.125C667.314 267.924 667.576 267.652 667.742 267.307C667.909 266.962 667.992 266.57 667.992 266.131C667.992 265.691 667.909 265.301 667.742 264.96C667.576 264.619 667.312 264.352 666.952 264.159C666.596 263.966 666.127 263.869 665.543 263.869H663.339V274H661.583ZM679.532 266.04C679.423 265.695 679.275 265.386 679.089 265.114C678.907 264.837 678.69 264.602 678.436 264.409C678.182 264.212 677.892 264.062 677.567 263.96C677.245 263.858 676.89 263.807 676.504 263.807C675.849 263.807 675.258 263.975 674.731 264.312C674.205 264.65 673.788 265.144 673.481 265.795C673.178 266.443 673.027 267.237 673.027 268.176C673.027 269.119 673.18 269.917 673.487 270.568C673.794 271.22 674.214 271.714 674.748 272.051C675.282 272.388 675.89 272.557 676.572 272.557C677.205 272.557 677.756 272.428 678.226 272.17C678.699 271.913 679.065 271.549 679.322 271.08C679.584 270.606 679.714 270.049 679.714 269.409L680.169 269.494H676.839V268.045H681.413V269.369C681.413 270.347 681.205 271.195 680.788 271.915C680.375 272.631 679.803 273.184 679.072 273.574C678.345 273.964 677.512 274.159 676.572 274.159C675.519 274.159 674.595 273.917 673.8 273.432C673.008 272.947 672.39 272.259 671.947 271.369C671.504 270.475 671.282 269.415 671.282 268.188C671.282 267.259 671.411 266.426 671.669 265.688C671.926 264.949 672.288 264.322 672.754 263.807C673.224 263.288 673.775 262.892 674.407 262.619C675.044 262.343 675.739 262.205 676.493 262.205C677.121 262.205 677.707 262.297 678.248 262.483C678.794 262.669 679.279 262.932 679.703 263.273C680.131 263.614 680.485 264.019 680.765 264.489C681.046 264.955 681.235 265.472 681.334 266.04H679.532Z" fill="black"/>
<rect x="610" y="297" width="114" height="36" fill="#D8EAD2"/>
<path d="M648.586 321L645.359 309.364H647.205L649.472 318.375H649.58L651.938 309.364H653.768L656.126 318.381H656.234L658.495 309.364H660.347L657.114 321H655.347L652.898 312.284H652.807L650.359 321H648.586ZM664.554 321.176C663.694 321.176 662.953 320.992 662.332 320.625C661.715 320.254 661.237 319.733 660.9 319.062C660.567 318.388 660.4 317.598 660.4 316.693C660.4 315.799 660.567 315.011 660.9 314.33C661.237 313.648 661.707 313.116 662.309 312.733C662.915 312.35 663.624 312.159 664.434 312.159C664.927 312.159 665.404 312.241 665.866 312.403C666.328 312.566 666.743 312.822 667.111 313.17C667.478 313.519 667.768 313.972 667.98 314.528C668.192 315.081 668.298 315.754 668.298 316.545V317.148H661.361V315.875H666.633C666.633 315.428 666.542 315.032 666.361 314.688C666.179 314.339 665.923 314.064 665.593 313.864C665.268 313.663 664.885 313.562 664.446 313.562C663.968 313.562 663.552 313.68 663.196 313.915C662.843 314.146 662.571 314.449 662.378 314.824C662.188 315.195 662.093 315.598 662.093 316.034V317.028C662.093 317.612 662.196 318.108 662.4 318.517C662.609 318.926 662.898 319.239 663.27 319.455C663.641 319.667 664.075 319.773 664.571 319.773C664.893 319.773 665.186 319.727 665.451 319.636C665.717 319.542 665.946 319.402 666.139 319.216C666.332 319.03 666.48 318.801 666.582 318.528L668.19 318.818C668.061 319.292 667.83 319.706 667.497 320.062C667.167 320.415 666.753 320.689 666.253 320.886C665.756 321.08 665.19 321.176 664.554 321.176ZM670.159 321V309.364H671.858V313.688H671.96C672.059 313.506 672.201 313.295 672.387 313.057C672.572 312.818 672.83 312.61 673.159 312.432C673.489 312.25 673.924 312.159 674.466 312.159C675.171 312.159 675.799 312.337 676.353 312.693C676.906 313.049 677.339 313.562 677.654 314.233C677.972 314.903 678.131 315.71 678.131 316.653C678.131 317.597 677.974 318.405 677.659 319.08C677.345 319.75 676.913 320.267 676.364 320.631C675.815 320.991 675.188 321.17 674.483 321.17C673.953 321.17 673.519 321.081 673.182 320.903C672.849 320.725 672.587 320.517 672.398 320.278C672.209 320.04 672.063 319.828 671.96 319.642H671.818V321H670.159ZM671.824 316.636C671.824 317.25 671.913 317.788 672.091 318.25C672.269 318.712 672.527 319.074 672.864 319.335C673.201 319.593 673.614 319.722 674.103 319.722C674.61 319.722 675.034 319.587 675.375 319.318C675.716 319.045 675.974 318.676 676.148 318.21C676.326 317.744 676.415 317.22 676.415 316.636C676.415 316.061 676.328 315.544 676.154 315.085C675.983 314.627 675.726 314.265 675.381 314C675.04 313.735 674.614 313.602 674.103 313.602C673.61 313.602 673.193 313.729 672.853 313.983C672.515 314.237 672.26 314.591 672.085 315.045C671.911 315.5 671.824 316.03 671.824 316.636ZM680.015 321V309.364H684.163C685.068 309.364 685.818 309.528 686.413 309.858C687.007 310.187 687.452 310.638 687.748 311.21C688.043 311.778 688.191 312.419 688.191 313.131C688.191 313.847 688.041 314.491 687.742 315.062C687.447 315.631 687 316.081 686.401 316.415C685.807 316.744 685.059 316.909 684.157 316.909H681.305V315.42H683.998C684.57 315.42 685.034 315.322 685.39 315.125C685.746 314.924 686.007 314.652 686.174 314.307C686.341 313.962 686.424 313.57 686.424 313.131C686.424 312.691 686.341 312.301 686.174 311.96C686.007 311.619 685.744 311.352 685.384 311.159C685.028 310.966 684.559 310.869 683.975 310.869H681.771V321H680.015Z" fill="black"/>
<rect x="610" y="376" width="114" height="36" fill="#FCE697"/>
<path d="M663.477 392.04C663.368 391.695 663.22 391.386 663.034 391.114C662.852 390.837 662.635 390.602 662.381 390.409C662.127 390.212 661.837 390.062 661.512 389.96C661.19 389.858 660.835 389.807 660.449 389.807C659.794 389.807 659.203 389.975 658.676 390.312C658.15 390.65 657.733 391.144 657.426 391.795C657.123 392.443 656.972 393.237 656.972 394.176C656.972 395.119 657.125 395.917 657.432 396.568C657.739 397.22 658.159 397.714 658.693 398.051C659.227 398.388 659.835 398.557 660.517 398.557C661.15 398.557 661.701 398.428 662.171 398.17C662.644 397.913 663.01 397.549 663.267 397.08C663.529 396.606 663.659 396.049 663.659 395.409L664.114 395.494H660.784V394.045H665.358V395.369C665.358 396.347 665.15 397.195 664.733 397.915C664.32 398.631 663.748 399.184 663.017 399.574C662.29 399.964 661.457 400.159 660.517 400.159C659.464 400.159 658.54 399.917 657.745 399.432C656.953 398.947 656.335 398.259 655.892 397.369C655.449 396.475 655.227 395.415 655.227 394.188C655.227 393.259 655.356 392.426 655.614 391.688C655.871 390.949 656.233 390.322 656.699 389.807C657.169 389.288 657.72 388.892 658.352 388.619C658.989 388.343 659.684 388.205 660.438 388.205C661.066 388.205 661.652 388.297 662.193 388.483C662.739 388.669 663.224 388.932 663.648 389.273C664.076 389.614 664.43 390.019 664.71 390.489C664.991 390.955 665.18 391.472 665.279 392.04H663.477ZM669.183 388.364V400H667.427V388.364H669.183ZM671.579 400V388.364H678.795V389.875H673.335V393.42H678.278V394.926H673.335V400H671.579Z" fill="black"/>
<rect x="604" y="55" width="126" height="286" stroke="#9D9D9D" stroke-width="2" stroke-dasharray="8 10"/>
<line x1="338" y1="88" x2="338" y2="112" stroke="#6D6D6D" stroke-width="4"/>
<line x1="338" y1="356" x2="338" y2="377" stroke="#6D6D6D" stroke-width="4"/>
<line x1="581" y1="215" x2="581" y2="391" stroke="#6D6D6D" stroke-width="4"/>
<line x1="555" y1="215" x2="603" y2="215" stroke="#6D6D6D" stroke-width="4"/>
<line x1="579" y1="393" x2="603" y2="393" stroke="#9D9D9D" stroke-width="4"/>
<path d="M61.3906 52H59.4218L63.0063 41.8182H65.2833L68.8728 52H66.9041L64.1846 43.9062H64.1051L61.3906 52ZM61.4552 48.0078H66.8245V49.4893H61.4552V48.0078ZM70.1439 52V41.8182H73.9621C74.7443 41.8182 75.4005 41.964 75.9308 42.2557C76.4645 42.5473 76.8672 42.9484 77.1389 43.4588C77.414 43.9659 77.5516 44.5426 77.5516 45.1889C77.5516 45.8419 77.414 46.4219 77.1389 46.929C76.8638 47.4361 76.4578 47.8355 75.9209 48.1271C75.384 48.4155 74.7227 48.5597 73.9372 48.5597H71.4067V47.0433H73.6887C74.146 47.0433 74.5206 46.9638 74.8122 46.8047C75.1039 46.6456 75.3193 46.4268 75.4585 46.1484C75.6011 45.87 75.6723 45.5502 75.6723 45.1889C75.6723 44.8277 75.6011 44.5095 75.4585 44.2344C75.3193 43.9593 75.1022 43.7455 74.8073 43.593C74.5156 43.4373 74.1394 43.3594 73.6787 43.3594H71.9884V52H70.1439ZM80.9281 41.8182V52H79.0837V41.8182H80.9281Z" fill="#6D6D6D"/>
<path d="M64.0959 227.254H62.2366C62.1835 226.949 62.0858 226.679 61.9432 226.443C61.8007 226.205 61.6234 226.002 61.4113 225.837C61.1992 225.671 60.9572 225.547 60.6854 225.464C60.417 225.378 60.127 225.335 59.8154 225.335C59.2619 225.335 58.7714 225.474 58.3438 225.752C57.9163 226.027 57.5815 226.432 57.3396 226.965C57.0976 227.496 56.9766 228.143 56.9766 228.909C56.9766 229.688 57.0976 230.344 57.3396 230.878C57.5848 231.408 57.9196 231.809 58.3438 232.081C58.7714 232.349 59.2602 232.484 59.8104 232.484C60.1154 232.484 60.4004 232.444 60.6655 232.364C60.934 232.281 61.1743 232.161 61.3864 232.001C61.6019 231.842 61.7825 231.647 61.9283 231.415C62.0775 231.183 62.1802 230.918 62.2366 230.619L64.0959 230.629C64.0263 231.113 63.8755 231.567 63.6435 231.991C63.4148 232.416 63.1149 232.79 62.7437 233.115C62.3725 233.437 61.9383 233.688 61.4411 233.871C60.944 234.05 60.3921 234.139 59.7856 234.139C58.8907 234.139 58.0919 233.932 57.3893 233.518C56.6866 233.103 56.1331 232.505 55.7288 231.723C55.3244 230.941 55.1222 230.003 55.1222 228.909C55.1222 227.812 55.3261 226.874 55.7337 226.095C56.1414 225.313 56.6966 224.715 57.3992 224.3C58.1019 223.886 58.8973 223.679 59.7856 223.679C60.3523 223.679 60.8793 223.759 61.3665 223.918C61.8538 224.077 62.2879 224.31 62.6691 224.619C63.0503 224.924 63.3635 225.298 63.6087 225.742C63.8573 226.183 64.0197 226.687 64.0959 227.254ZM68.9665 234.149C68.2207 234.149 67.5744 233.985 67.0275 233.657C66.4807 233.329 66.0564 232.87 65.7548 232.28C65.4565 231.69 65.3074 231 65.3074 230.212C65.3074 229.423 65.4565 228.732 65.7548 228.138C66.0564 227.545 66.4807 227.085 67.0275 226.756C67.5744 226.428 68.2207 226.264 68.9665 226.264C69.7122 226.264 70.3585 226.428 70.9054 226.756C71.4523 227.085 71.8748 227.545 72.1731 228.138C72.4747 228.732 72.6256 229.423 72.6256 230.212C72.6256 231 72.4747 231.69 72.1731 232.28C71.8748 232.87 71.4523 233.329 70.9054 233.657C70.3585 233.985 69.7122 234.149 68.9665 234.149ZM68.9764 232.707C69.3808 232.707 69.7188 232.596 69.9906 232.374C70.2624 232.149 70.4646 231.847 70.5971 231.469C70.733 231.092 70.801 230.671 70.801 230.207C70.801 229.739 70.733 229.317 70.5971 228.939C70.4646 228.558 70.2624 228.254 69.9906 228.029C69.7188 227.804 69.3808 227.691 68.9764 227.691C68.5621 227.691 68.2174 227.804 67.9423 228.029C67.6705 228.254 67.4667 228.558 67.3308 228.939C67.1982 229.317 67.1319 229.739 67.1319 230.207C67.1319 230.671 67.1982 231.092 67.3308 231.469C67.4667 231.847 67.6705 232.149 67.9423 232.374C68.2174 232.596 68.5621 232.707 68.9764 232.707ZM74.0831 234V226.364H75.8281V227.636H75.9076C76.0469 227.196 76.2855 226.856 76.6236 226.617C76.9649 226.375 77.3544 226.254 77.7919 226.254C77.8913 226.254 78.0023 226.259 78.125 226.269C78.2509 226.276 78.3553 226.287 78.4382 226.304V227.96C78.362 227.933 78.241 227.91 78.0753 227.89C77.9129 227.867 77.7554 227.855 77.603 227.855C77.2748 227.855 76.9799 227.926 76.718 228.069C76.4595 228.208 76.2557 228.402 76.1065 228.651C75.9574 228.899 75.8828 229.186 75.8828 229.511V234H74.0831ZM82.6301 234.149C81.8645 234.149 81.2032 233.99 80.6464 233.672C80.0929 233.35 79.667 232.896 79.3687 232.31C79.0704 231.72 78.9213 231.025 78.9213 230.227C78.9213 229.441 79.0704 228.752 79.3687 228.158C79.6703 227.562 80.0913 227.098 80.6315 226.766C81.1718 226.432 81.8065 226.264 82.5356 226.264C83.0063 226.264 83.4504 226.34 83.868 226.493C84.2889 226.642 84.6602 226.874 84.9816 227.189C85.3065 227.504 85.5617 227.905 85.7473 228.392C85.9329 228.876 86.0257 229.453 86.0257 230.122V230.674H79.7664V229.461H84.3005C84.2972 229.116 84.2227 228.81 84.0768 228.541C83.931 228.269 83.7272 228.056 83.4653 227.9C83.2068 227.744 82.9052 227.666 82.5605 227.666C82.1926 227.666 81.8694 227.756 81.591 227.935C81.3126 228.11 81.0955 228.342 80.9397 228.631C80.7873 228.916 80.7094 229.229 80.7061 229.57V230.629C80.7061 231.073 80.7873 231.455 80.9497 231.773C81.1121 232.088 81.3391 232.33 81.6308 232.499C81.9225 232.664 82.2638 232.747 82.6549 232.747C82.9168 232.747 83.1538 232.711 83.3659 232.638C83.578 232.562 83.762 232.451 83.9177 232.305C84.0735 232.159 84.1912 231.978 84.2707 231.763L85.9511 231.952C85.845 232.396 85.6429 232.784 85.3446 233.115C85.0496 233.443 84.6718 233.698 84.2111 233.881C83.7504 234.06 83.2234 234.149 82.6301 234.149Z" fill="#6D6D6D"/>
<path d="M744.295 224V213.818H746.14V222.454H750.624V224H744.295ZM755.406 224.149C754.661 224.149 754.014 223.985 753.468 223.657C752.921 223.329 752.496 222.87 752.195 222.28C751.896 221.69 751.747 221 751.747 220.212C751.747 219.423 751.896 218.732 752.195 218.138C752.496 217.545 752.921 217.085 753.468 216.756C754.014 216.428 754.661 216.264 755.406 216.264C756.152 216.264 756.798 216.428 757.345 216.756C757.892 217.085 758.315 217.545 758.613 218.138C758.915 218.732 759.066 219.423 759.066 220.212C759.066 221 758.915 221.69 758.613 222.28C758.315 222.87 757.892 223.329 757.345 223.657C756.798 223.985 756.152 224.149 755.406 224.149ZM755.416 222.707C755.821 222.707 756.159 222.596 756.431 222.374C756.702 222.149 756.905 221.847 757.037 221.469C757.173 221.092 757.241 220.671 757.241 220.207C757.241 219.739 757.173 219.317 757.037 218.939C756.905 218.558 756.702 218.254 756.431 218.029C756.159 217.804 755.821 217.691 755.416 217.691C755.002 217.691 754.657 217.804 754.382 218.029C754.11 218.254 753.907 218.558 753.771 218.939C753.638 219.317 753.572 219.739 753.572 220.207C753.572 220.671 753.638 221.092 753.771 221.469C753.907 221.847 754.11 222.149 754.382 222.374C754.657 222.596 755.002 222.707 755.416 222.707ZM762.72 224.154C762.237 224.154 761.801 224.068 761.413 223.896C761.028 223.72 760.724 223.461 760.498 223.12C760.276 222.779 760.165 222.358 760.165 221.857C760.165 221.426 760.245 221.07 760.404 220.788C760.563 220.507 760.78 220.281 761.055 220.112C761.33 219.943 761.64 219.816 761.985 219.729C762.333 219.64 762.692 219.575 763.064 219.536C763.511 219.489 763.874 219.448 764.152 219.411C764.431 219.371 764.633 219.312 764.759 219.232C764.888 219.149 764.953 219.022 764.953 218.849V218.82C764.953 218.445 764.842 218.155 764.62 217.95C764.398 217.744 764.078 217.641 763.66 217.641C763.219 217.641 762.87 217.737 762.611 217.93C762.356 218.122 762.184 218.349 762.094 218.611L760.414 218.372C760.546 217.908 760.765 217.52 761.07 217.209C761.375 216.894 761.748 216.659 762.189 216.503C762.629 216.344 763.117 216.264 763.65 216.264C764.018 216.264 764.384 216.307 764.749 216.393C765.113 216.48 765.447 216.622 765.748 216.821C766.05 217.017 766.292 217.283 766.474 217.621C766.66 217.96 766.752 218.382 766.752 218.889V224H765.022V222.951H764.963C764.853 223.163 764.699 223.362 764.5 223.548C764.305 223.73 764.058 223.877 763.76 223.99C763.465 224.099 763.118 224.154 762.72 224.154ZM763.188 222.832C763.549 222.832 763.862 222.76 764.127 222.618C764.393 222.472 764.596 222.28 764.739 222.041C764.885 221.803 764.958 221.542 764.958 221.261V220.361C764.901 220.407 764.805 220.45 764.669 220.49C764.537 220.53 764.388 220.565 764.222 220.594C764.056 220.624 763.892 220.651 763.73 220.674C763.567 220.697 763.426 220.717 763.307 220.734C763.039 220.77 762.798 220.83 762.586 220.913C762.374 220.996 762.207 221.112 762.084 221.261C761.961 221.406 761.9 221.595 761.9 221.827C761.9 222.159 762.021 222.409 762.263 222.578C762.505 222.747 762.813 222.832 763.188 222.832ZM771.326 224.134C770.726 224.134 770.189 223.98 769.715 223.672C769.241 223.364 768.867 222.916 768.592 222.33C768.316 221.743 768.179 221.03 768.179 220.192C768.179 219.343 768.318 218.627 768.597 218.044C768.878 217.457 769.258 217.015 769.735 216.717C770.212 216.415 770.744 216.264 771.331 216.264C771.778 216.264 772.146 216.34 772.435 216.493C772.723 216.642 772.952 216.823 773.121 217.035C773.29 217.244 773.421 217.441 773.513 217.626H773.588V213.818H775.393V224H773.623V222.797H773.513C773.421 222.982 773.286 223.18 773.111 223.388C772.935 223.594 772.703 223.77 772.415 223.915C772.126 224.061 771.763 224.134 771.326 224.134ZM771.828 222.658C772.209 222.658 772.534 222.555 772.802 222.349C773.071 222.141 773.275 221.851 773.414 221.479C773.553 221.108 773.623 220.676 773.623 220.182C773.623 219.688 773.553 219.259 773.414 218.894C773.278 218.53 773.076 218.246 772.807 218.044C772.542 217.842 772.216 217.741 771.828 217.741C771.427 217.741 771.092 217.845 770.824 218.054C770.555 218.263 770.353 218.551 770.217 218.919C770.081 219.287 770.013 219.708 770.013 220.182C770.013 220.659 770.081 221.085 770.217 221.46C770.356 221.831 770.56 222.124 770.829 222.339C771.101 222.552 771.434 222.658 771.828 222.658ZM780.621 224.149C779.856 224.149 779.194 223.99 778.637 223.672C778.084 223.35 777.658 222.896 777.36 222.31C777.061 221.72 776.912 221.025 776.912 220.227C776.912 219.441 777.061 218.752 777.36 218.158C777.661 217.562 778.082 217.098 778.623 216.766C779.163 216.432 779.798 216.264 780.527 216.264C780.997 216.264 781.441 216.34 781.859 216.493C782.28 216.642 782.651 216.874 782.973 217.189C783.298 217.504 783.553 217.905 783.738 218.392C783.924 218.876 784.017 219.453 784.017 220.122V220.674H777.758V219.461H782.292C782.288 219.116 782.214 218.81 782.068 218.541C781.922 218.269 781.718 218.056 781.456 217.9C781.198 217.744 780.896 217.666 780.552 217.666C780.184 217.666 779.86 217.756 779.582 217.935C779.304 218.11 779.087 218.342 778.931 218.631C778.778 218.916 778.7 219.229 778.697 219.57V220.629C778.697 221.073 778.778 221.455 778.941 221.773C779.103 222.088 779.33 222.33 779.622 222.499C779.914 222.664 780.255 222.747 780.646 222.747C780.908 222.747 781.145 222.711 781.357 222.638C781.569 222.562 781.753 222.451 781.909 222.305C782.065 222.159 782.182 221.978 782.262 221.763L783.942 221.952C783.836 222.396 783.634 222.784 783.336 223.115C783.041 223.443 782.663 223.698 782.202 223.881C781.741 224.06 781.214 224.149 780.621 224.149ZM785.469 224V216.364H787.214V217.636H787.294C787.433 217.196 787.672 216.856 788.01 216.617C788.351 216.375 788.741 216.254 789.178 216.254C789.278 216.254 789.389 216.259 789.511 216.269C789.637 216.276 789.742 216.287 789.824 216.304V217.96C789.748 217.933 789.627 217.91 789.461 217.89C789.299 217.867 789.142 217.855 788.989 217.855C788.661 217.855 788.366 217.926 788.104 218.069C787.846 218.208 787.642 218.402 787.493 218.651C787.344 218.899 787.269 219.186 787.269 219.511V224H785.469ZM796.986 218.382L795.345 218.561C795.299 218.395 795.217 218.24 795.101 218.094C794.989 217.948 794.836 217.83 794.644 217.741C794.452 217.651 794.216 217.607 793.938 217.607C793.563 217.607 793.249 217.688 792.993 217.85C792.741 218.013 792.617 218.223 792.621 218.482C792.617 218.704 792.698 218.884 792.864 219.023C793.033 219.163 793.312 219.277 793.699 219.366L795.002 219.645C795.724 219.801 796.261 220.048 796.613 220.386C796.967 220.724 797.146 221.166 797.15 221.713C797.146 222.194 797.005 222.618 796.727 222.986C796.452 223.35 796.069 223.635 795.579 223.841C795.088 224.046 794.525 224.149 793.888 224.149C792.954 224.149 792.201 223.954 791.631 223.562C791.061 223.168 790.721 222.62 790.612 221.917L792.367 221.748C792.447 222.093 792.616 222.353 792.874 222.528C793.133 222.704 793.469 222.792 793.883 222.792C794.311 222.792 794.654 222.704 794.912 222.528C795.174 222.353 795.305 222.136 795.305 221.877C795.305 221.658 795.221 221.478 795.052 221.335C794.886 221.193 794.627 221.083 794.276 221.007L792.974 220.734C792.241 220.581 791.699 220.324 791.348 219.963C790.996 219.598 790.822 219.138 790.826 218.581C790.822 218.11 790.95 217.703 791.209 217.358C791.47 217.01 791.833 216.741 792.297 216.553C792.765 216.36 793.303 216.264 793.913 216.264C794.808 216.264 795.512 216.455 796.026 216.836C796.543 217.217 796.863 217.732 796.986 218.382Z" fill="#6D6D6D"/>
<path d="M754.114 390.617C754.068 390.183 753.872 389.845 753.527 389.603C753.186 389.361 752.742 389.24 752.195 389.24C751.811 389.24 751.481 389.298 751.206 389.414C750.931 389.53 750.72 389.687 750.574 389.886C750.428 390.085 750.354 390.312 750.351 390.567C750.351 390.78 750.399 390.964 750.495 391.119C750.594 391.275 750.728 391.408 750.897 391.517C751.066 391.623 751.254 391.713 751.459 391.786C751.665 391.858 751.872 391.92 752.081 391.969L753.035 392.208C753.42 392.298 753.789 392.419 754.144 392.571C754.502 392.723 754.822 392.916 755.103 393.148C755.388 393.38 755.614 393.66 755.779 393.988C755.945 394.316 756.028 394.701 756.028 395.141C756.028 395.738 755.876 396.263 755.571 396.717C755.266 397.168 754.825 397.521 754.248 397.776C753.675 398.028 752.98 398.154 752.165 398.154C751.373 398.154 750.685 398.031 750.102 397.786C749.522 397.541 749.068 397.183 748.74 396.712C748.415 396.242 748.239 395.668 748.213 394.992H750.027C750.054 395.347 750.163 395.642 750.355 395.877C750.548 396.112 750.798 396.288 751.106 396.404C751.418 396.52 751.766 396.578 752.15 396.578C752.551 396.578 752.903 396.518 753.204 396.399C753.509 396.277 753.748 396.107 753.92 395.892C754.092 395.673 754.18 395.418 754.184 395.126C754.18 394.861 754.102 394.643 753.95 394.47C753.797 394.295 753.584 394.149 753.309 394.033C753.037 393.913 752.719 393.807 752.354 393.714L751.196 393.416C750.357 393.201 749.694 392.874 749.207 392.437C748.723 391.996 748.481 391.411 748.481 390.682C748.481 390.082 748.644 389.557 748.968 389.106C749.297 388.655 749.742 388.305 750.306 388.057C750.869 387.805 751.507 387.679 752.22 387.679C752.942 387.679 753.575 387.805 754.119 388.057C754.666 388.305 755.095 388.652 755.407 389.096C755.718 389.537 755.879 390.044 755.889 390.617H754.114ZM759.72 398.154C759.236 398.154 758.801 398.068 758.413 397.896C758.028 397.72 757.723 397.461 757.498 397.12C757.276 396.779 757.165 396.358 757.165 395.857C757.165 395.426 757.244 395.07 757.404 394.788C757.563 394.507 757.78 394.281 758.055 394.112C758.33 393.943 758.64 393.816 758.985 393.729C759.333 393.64 759.692 393.575 760.063 393.536C760.511 393.489 760.874 393.448 761.152 393.411C761.431 393.371 761.633 393.312 761.759 393.232C761.888 393.149 761.953 393.022 761.953 392.849V392.82C761.953 392.445 761.842 392.155 761.619 391.95C761.397 391.744 761.078 391.641 760.66 391.641C760.219 391.641 759.869 391.737 759.611 391.93C759.356 392.122 759.183 392.349 759.094 392.611L757.414 392.372C757.546 391.908 757.765 391.52 758.07 391.209C758.375 390.894 758.748 390.659 759.188 390.503C759.629 390.344 760.116 390.264 760.65 390.264C761.018 390.264 761.384 390.307 761.749 390.393C762.113 390.48 762.446 390.622 762.748 390.821C763.05 391.017 763.292 391.283 763.474 391.621C763.659 391.96 763.752 392.382 763.752 392.889V398H762.022V396.951H761.963C761.853 397.163 761.699 397.362 761.5 397.548C761.305 397.73 761.058 397.877 760.759 397.99C760.464 398.099 760.118 398.154 759.72 398.154ZM760.188 396.832C760.549 396.832 760.862 396.76 761.127 396.618C761.392 396.472 761.596 396.28 761.739 396.041C761.885 395.803 761.958 395.542 761.958 395.261V394.361C761.901 394.407 761.805 394.45 761.669 394.49C761.537 394.53 761.387 394.565 761.222 394.594C761.056 394.624 760.892 394.651 760.73 394.674C760.567 394.697 760.426 394.717 760.307 394.734C760.039 394.77 759.798 394.83 759.586 394.913C759.374 394.996 759.207 395.112 759.084 395.261C758.961 395.406 758.9 395.595 758.9 395.827C758.9 396.159 759.021 396.409 759.263 396.578C759.505 396.747 759.813 396.832 760.188 396.832ZM772.04 390.364L769.32 398H767.331L764.612 390.364H766.531L768.286 396.036H768.366L770.125 390.364H772.04ZM776.336 398.149C775.57 398.149 774.909 397.99 774.352 397.672C773.799 397.35 773.373 396.896 773.074 396.31C772.776 395.72 772.627 395.025 772.627 394.227C772.627 393.441 772.776 392.752 773.074 392.158C773.376 391.562 773.797 391.098 774.337 390.766C774.877 390.432 775.512 390.264 776.241 390.264C776.712 390.264 777.156 390.34 777.574 390.493C777.995 390.642 778.366 390.874 778.687 391.189C779.012 391.504 779.267 391.905 779.453 392.392C779.639 392.876 779.731 393.453 779.731 394.122V394.674H773.472V393.461H778.006C778.003 393.116 777.928 392.81 777.783 392.541C777.637 392.269 777.433 392.056 777.171 391.9C776.913 391.744 776.611 391.666 776.266 391.666C775.898 391.666 775.575 391.756 775.297 391.935C775.018 392.11 774.801 392.342 774.645 392.631C774.493 392.916 774.415 393.229 774.412 393.57V394.629C774.412 395.073 774.493 395.455 774.655 395.773C774.818 396.088 775.045 396.33 775.337 396.499C775.628 396.664 775.97 396.747 776.361 396.747C776.623 396.747 776.86 396.711 777.072 396.638C777.284 396.562 777.468 396.451 777.623 396.305C777.779 396.159 777.897 395.978 777.976 395.763L779.657 395.952C779.551 396.396 779.349 396.784 779.05 397.115C778.755 397.443 778.377 397.698 777.917 397.881C777.456 398.06 776.929 398.149 776.336 398.149ZM781.184 398V390.364H782.929V391.636H783.009C783.148 391.196 783.386 390.856 783.724 390.617C784.066 390.375 784.455 390.254 784.893 390.254C784.992 390.254 785.103 390.259 785.226 390.269C785.352 390.276 785.456 390.287 785.539 390.304V391.96C785.463 391.933 785.342 391.91 785.176 391.89C785.014 391.867 784.856 391.855 784.704 391.855C784.376 391.855 784.081 391.926 783.819 392.069C783.56 392.208 783.357 392.402 783.207 392.651C783.058 392.899 782.984 393.186 782.984 393.511V398H781.184ZM792.7 392.382L791.06 392.561C791.013 392.395 790.932 392.24 790.816 392.094C790.703 391.948 790.551 391.83 790.359 391.741C790.166 391.651 789.931 391.607 789.653 391.607C789.278 391.607 788.963 391.688 788.708 391.85C788.456 392.013 788.332 392.223 788.335 392.482C788.332 392.704 788.413 392.884 788.579 393.023C788.748 393.163 789.026 393.277 789.414 393.366L790.717 393.645C791.439 393.801 791.976 394.048 792.327 394.386C792.682 394.724 792.861 395.166 792.864 395.713C792.861 396.194 792.72 396.618 792.442 396.986C792.167 397.35 791.784 397.635 791.293 397.841C790.803 398.046 790.239 398.149 789.603 398.149C788.668 398.149 787.916 397.954 787.346 397.562C786.776 397.168 786.436 396.62 786.327 395.917L788.082 395.748C788.161 396.093 788.33 396.353 788.589 396.528C788.847 396.704 789.184 396.792 789.598 396.792C790.026 396.792 790.369 396.704 790.627 396.528C790.889 396.353 791.02 396.136 791.02 395.877C791.02 395.658 790.935 395.478 790.766 395.335C790.601 395.193 790.342 395.083 789.991 395.007L788.688 394.734C787.956 394.581 787.414 394.324 787.062 393.963C786.711 393.598 786.537 393.138 786.54 392.581C786.537 392.11 786.665 391.703 786.923 391.358C787.185 391.01 787.548 390.741 788.012 390.553C788.479 390.36 789.018 390.264 789.628 390.264C790.523 390.264 791.227 390.455 791.741 390.836C792.258 391.217 792.578 391.732 792.7 392.382Z" fill="#6D6D6D"/>
<path d="M50.2222 406V395.818H54.0404C54.8226 395.818 55.4789 395.954 56.0092 396.226C56.5428 396.498 56.9455 396.879 57.2173 397.369C57.4924 397.857 57.6299 398.425 57.6299 399.075C57.6299 399.728 57.4907 400.294 57.2123 400.775C56.9372 401.252 56.5312 401.622 55.9942 401.884C55.4573 402.142 54.7978 402.271 54.0156 402.271H51.2961V400.74H53.767C54.2244 400.74 54.5989 400.677 54.8906 400.551C55.1822 400.422 55.3977 400.235 55.5369 399.989C55.6794 399.741 55.7506 399.436 55.7506 399.075C55.7506 398.713 55.6794 398.405 55.5369 398.15C55.3943 397.891 55.1772 397.696 54.8856 397.563C54.5939 397.427 54.2177 397.359 53.757 397.359H52.0667V406H50.2222ZM55.4822 401.386L58.0028 406H55.9445L53.4687 401.386H55.4822ZM61.3756 406.154C60.8917 406.154 60.4559 406.068 60.0681 405.896C59.6836 405.72 59.3787 405.461 59.1533 405.12C58.9312 404.779 58.8202 404.358 58.8202 403.857C58.8202 403.426 58.8997 403.07 59.0588 402.788C59.2179 402.507 59.435 402.281 59.7101 402.112C59.9852 401.943 60.2951 401.816 60.6398 401.729C60.9878 401.64 61.3474 401.575 61.7186 401.536C62.1661 401.489 62.529 401.448 62.8074 401.411C63.0858 401.371 63.288 401.312 63.4139 401.232C63.5432 401.149 63.6078 401.022 63.6078 400.849V400.82C63.6078 400.445 63.4968 400.155 63.2747 399.95C63.0527 399.744 62.7328 399.641 62.3152 399.641C61.8744 399.641 61.5247 399.737 61.2662 399.93C61.011 400.122 60.8387 400.349 60.7492 400.611L59.0688 400.372C59.2014 399.908 59.4201 399.52 59.725 399.209C60.03 398.894 60.4028 398.659 60.8436 398.503C61.2845 398.344 61.7717 398.264 62.3053 398.264C62.6732 398.264 63.0394 398.307 63.404 398.393C63.7686 398.48 64.1017 398.622 64.4033 398.821C64.7049 399.017 64.9469 399.283 65.1291 399.621C65.3148 399.96 65.4076 400.382 65.4076 400.889V406H63.6774V404.951H63.6178C63.5084 405.163 63.3543 405.362 63.1554 405.548C62.9599 405.73 62.713 405.877 62.4147 405.99C62.1197 406.099 61.7733 406.154 61.3756 406.154ZM61.8429 404.832C62.2042 404.832 62.5174 404.76 62.7826 404.618C63.0477 404.472 63.2515 404.28 63.3941 404.041C63.5399 403.803 63.6128 403.542 63.6128 403.261V402.361C63.5565 402.407 63.4604 402.45 63.3245 402.49C63.1919 402.53 63.0427 402.565 62.877 402.594C62.7113 402.624 62.5472 402.651 62.3848 402.674C62.2224 402.697 62.0816 402.717 61.9622 402.734C61.6938 402.77 61.4535 402.83 61.2414 402.913C61.0292 402.996 60.8619 403.112 60.7392 403.261C60.6166 403.406 60.5553 403.595 60.5553 403.827C60.5553 404.159 60.6763 404.409 60.9182 404.578C61.1602 404.747 61.4684 404.832 61.8429 404.832ZM73.1827 400.382L71.5421 400.561C71.4957 400.395 71.4145 400.24 71.2985 400.094C71.1858 399.948 71.0333 399.83 70.8411 399.741C70.6489 399.651 70.4136 399.607 70.1351 399.607C69.7606 399.607 69.4457 399.688 69.1905 399.85C68.9386 400.013 68.8144 400.223 68.8177 400.482C68.8144 400.704 68.8956 400.884 69.0613 401.023C69.2303 401.163 69.5087 401.277 69.8965 401.366L71.1991 401.645C71.9216 401.801 72.4585 402.048 72.8099 402.386C73.1645 402.724 73.3435 403.166 73.3468 403.713C73.3435 404.194 73.2026 404.618 72.9242 404.986C72.6491 405.35 72.2663 405.635 71.7758 405.841C71.2852 406.046 70.7218 406.149 70.0854 406.149C69.1508 406.149 68.3984 405.954 67.8283 405.562C67.2582 405.168 66.9185 404.62 66.8091 403.917L68.5641 403.748C68.6437 404.093 68.8127 404.353 69.0712 404.528C69.3297 404.704 69.6662 404.792 70.0805 404.792C70.508 404.792 70.8511 404.704 71.1096 404.528C71.3714 404.353 71.5023 404.136 71.5023 403.877C71.5023 403.658 71.4178 403.478 71.2488 403.335C71.0831 403.193 70.8245 403.083 70.4732 403.007L69.1707 402.734C68.4382 402.581 67.8963 402.324 67.5449 401.963C67.1936 401.598 67.0196 401.138 67.0229 400.581C67.0196 400.11 67.1472 399.703 67.4057 399.358C67.6676 399.01 68.0305 398.741 68.4945 398.553C68.9618 398.36 69.5004 398.264 70.1103 398.264C71.0052 398.264 71.7095 398.455 72.2232 398.836C72.7403 399.217 73.0601 399.732 73.1827 400.382ZM78.574 398.364V399.756H74.1841V398.364H78.574ZM75.2679 396.534H77.0676V403.703C77.0676 403.945 77.1041 404.131 77.177 404.26C77.2532 404.386 77.3527 404.472 77.4753 404.518C77.5979 404.565 77.7338 404.588 77.883 404.588C77.9957 404.588 78.0984 404.58 78.1912 404.563C78.2873 404.547 78.3602 404.532 78.41 404.518L78.7132 405.925C78.6171 405.959 78.4796 405.995 78.3006 406.035C78.1249 406.075 77.9095 406.098 77.6543 406.104C77.2035 406.118 76.7975 406.05 76.4362 405.901C76.075 405.748 75.7883 405.513 75.5762 405.195C75.3673 404.876 75.2646 404.479 75.2679 404.001V396.534ZM83.3078 406.149C82.5422 406.149 81.881 405.99 81.3242 405.672C80.7706 405.35 80.3447 404.896 80.0465 404.31C79.7482 403.72 79.599 403.025 79.599 402.227C79.599 401.441 79.7482 400.752 80.0465 400.158C80.3481 399.562 80.769 399.098 81.3092 398.766C81.8495 398.432 82.4842 398.264 83.2134 398.264C83.684 398.264 84.1281 398.34 84.5457 398.493C84.9667 398.642 85.3379 398.874 85.6594 399.189C85.9842 399.504 86.2394 399.905 86.425 400.392C86.6106 400.876 86.7034 401.453 86.7034 402.122V402.674H80.4442V401.461H84.9783C84.975 401.116 84.9004 400.81 84.7545 400.541C84.6087 400.269 84.4049 400.056 84.143 399.9C83.8845 399.744 83.5829 399.666 83.2382 399.666C82.8703 399.666 82.5472 399.756 82.2688 399.935C81.9903 400.11 81.7733 400.342 81.6175 400.631C81.465 400.916 81.3871 401.229 81.3838 401.57V402.629C81.3838 403.073 81.465 403.455 81.6274 403.773C81.7898 404.088 82.0169 404.33 82.3085 404.499C82.6002 404.664 82.9416 404.747 83.3327 404.747C83.5945 404.747 83.8315 404.711 84.0436 404.638C84.2557 404.562 84.4397 404.451 84.5955 404.305C84.7512 404.159 84.8689 403.978 84.9484 403.763L86.6288 403.952C86.5228 404.396 86.3206 404.784 86.0223 405.115C85.7273 405.443 85.3495 405.698 84.8888 405.881C84.4281 406.06 83.9011 406.149 83.3078 406.149ZM88.156 406V398.364H89.901V399.636H89.9805C90.1197 399.196 90.3584 398.856 90.6964 398.617C91.0378 398.375 91.4273 398.254 91.8648 398.254C91.9642 398.254 92.0752 398.259 92.1979 398.269C92.3238 398.276 92.4282 398.287 92.5111 398.304V399.96C92.4348 399.933 92.3139 399.91 92.1482 399.89C91.9857 399.867 91.8283 399.855 91.6759 399.855C91.3477 399.855 91.0527 399.926 90.7909 400.069C90.5324 400.208 90.3286 400.402 90.1794 400.651C90.0303 400.899 89.9557 401.186 89.9557 401.511V406H88.156ZM39.095 425V414.818H42.9927C43.7285 414.818 44.34 414.934 44.8272 415.166C45.3177 415.395 45.684 415.708 45.9259 416.106C46.1712 416.504 46.2938 416.954 46.2938 417.458C46.2938 417.872 46.2143 418.227 46.0552 418.522C45.8961 418.814 45.6823 419.051 45.4139 419.233C45.1454 419.415 44.8454 419.546 44.514 419.626V419.725C44.8753 419.745 45.2216 419.856 45.5531 420.058C45.8878 420.257 46.1613 420.539 46.3734 420.903C46.5855 421.268 46.6916 421.709 46.6916 422.226C46.6916 422.753 46.564 423.227 46.3087 423.648C46.0535 424.065 45.6691 424.395 45.1553 424.637C44.6416 424.879 43.9953 425 43.2164 425H39.095ZM40.9394 423.459H42.9231C43.5926 423.459 44.0748 423.331 44.3698 423.076C44.6681 422.817 44.8173 422.486 44.8173 422.082C44.8173 421.78 44.7427 421.508 44.5935 421.266C44.4444 421.021 44.2323 420.829 43.9572 420.69C43.6821 420.547 43.354 420.476 42.9728 420.476H40.9394V423.459ZM40.9394 419.148H42.764C43.0822 419.148 43.3689 419.09 43.6241 418.974C43.8793 418.855 44.0798 418.688 44.2256 418.472C44.3748 418.254 44.4494 417.995 44.4494 417.697C44.4494 417.302 44.3102 416.978 44.0318 416.722C43.7567 416.467 43.3473 416.339 42.8038 416.339H40.9394V419.148ZM50.344 425.154C49.8601 425.154 49.4243 425.068 49.0365 424.896C48.652 424.72 48.3471 424.461 48.1217 424.12C47.8997 423.779 47.7886 423.358 47.7886 422.857C47.7886 422.426 47.8682 422.07 48.0273 421.788C48.1864 421.507 48.4035 421.281 48.6786 421.112C48.9536 420.943 49.2635 420.816 49.6082 420.729C49.9562 420.64 50.3159 420.575 50.6871 420.536C51.1345 420.489 51.4974 420.448 51.7759 420.411C52.0543 420.371 52.2564 420.312 52.3824 420.232C52.5116 420.149 52.5763 420.022 52.5763 419.849V419.82C52.5763 419.445 52.4652 419.155 52.2432 418.95C52.0211 418.744 51.7013 418.641 51.2837 418.641C50.8428 418.641 50.4932 418.737 50.2347 418.93C49.9795 419.122 49.8071 419.349 49.7176 419.611L48.0372 419.372C48.1698 418.908 48.3885 418.52 48.6935 418.209C48.9984 417.894 49.3713 417.659 49.8121 417.503C50.2529 417.344 50.7401 417.264 51.2737 417.264C51.6416 417.264 52.0079 417.307 52.3724 417.393C52.737 417.48 53.0701 417.622 53.3717 417.821C53.6733 418.017 53.9153 418.283 54.0976 418.621C54.2832 418.96 54.376 419.382 54.376 419.889V425H52.6459V423.951H52.5862C52.4768 424.163 52.3227 424.362 52.1239 424.548C51.9283 424.73 51.6814 424.877 51.3831 424.99C51.0881 425.099 50.7418 425.154 50.344 425.154ZM50.8114 423.832C51.1726 423.832 51.4858 423.76 51.751 423.618C52.0161 423.472 52.22 423.28 52.3625 423.041C52.5083 422.803 52.5812 422.542 52.5812 422.261V421.361C52.5249 421.407 52.4288 421.45 52.2929 421.49C52.1603 421.53 52.0112 421.565 51.8455 421.594C51.6797 421.624 51.5157 421.651 51.3533 421.674C51.1909 421.697 51.05 421.717 50.9307 421.734C50.6622 421.77 50.4219 421.83 50.2098 421.913C49.9977 421.996 49.8303 422.112 49.7077 422.261C49.585 422.406 49.5237 422.595 49.5237 422.827C49.5237 423.159 49.6447 423.409 49.8866 423.578C50.1286 423.747 50.4368 423.832 50.8114 423.832ZM59.4466 425.149C58.6843 425.149 58.0297 424.982 57.4828 424.647C56.9393 424.312 56.52 423.85 56.225 423.26C55.9334 422.667 55.7875 421.984 55.7875 421.212C55.7875 420.436 55.9367 419.752 56.235 419.158C56.5333 418.562 56.9542 418.098 57.4978 417.766C58.0446 417.432 58.6909 417.264 59.4367 417.264C60.0565 417.264 60.605 417.379 61.0823 417.607C61.5629 417.833 61.9457 418.152 62.2307 418.567C62.5157 418.978 62.6782 419.458 62.7179 420.009H60.9978C60.9282 419.641 60.7624 419.334 60.5006 419.089C60.2421 418.84 59.8957 418.716 59.4615 418.716C59.0936 418.716 58.7705 418.815 58.4921 419.014C58.2137 419.21 57.9966 419.491 57.8408 419.859C57.6883 420.227 57.6121 420.668 57.6121 421.182C57.6121 421.702 57.6883 422.15 57.8408 422.524C57.9933 422.895 58.207 423.182 58.4821 423.384C58.7605 423.583 59.087 423.683 59.4615 423.683C59.7267 423.683 59.9637 423.633 60.1725 423.533C60.3846 423.431 60.5619 423.283 60.7044 423.091C60.847 422.899 60.9447 422.665 60.9978 422.39H62.7179C62.6748 422.93 62.5157 423.409 62.2407 423.827C61.9656 424.241 61.591 424.566 61.1171 424.801C60.6431 425.033 60.0863 425.149 59.4466 425.149ZM65.7664 422.604L65.7614 420.431H66.0497L68.7941 417.364H70.897L67.5213 421.122H67.1485L65.7664 422.604ZM64.1257 425V414.818H65.9254V425H64.1257ZM68.9183 425L66.4325 421.525L67.6456 420.257L71.071 425H68.9183ZM75.0927 425.149C74.327 425.149 73.6658 424.99 73.109 424.672C72.5555 424.35 72.1296 423.896 71.8313 423.31C71.533 422.72 71.3839 422.025 71.3839 421.227C71.3839 420.441 71.533 419.752 71.8313 419.158C72.1329 418.562 72.5538 418.098 73.0941 417.766C73.6343 417.432 74.269 417.264 74.9982 417.264C75.4688 417.264 75.913 417.34 76.3306 417.493C76.7515 417.642 77.1227 417.874 77.4442 418.189C77.769 418.504 78.0242 418.905 78.2099 419.392C78.3955 419.876 78.4883 420.453 78.4883 421.122V421.674H72.229V420.461H76.7631C76.7598 420.116 76.6852 419.81 76.5394 419.541C76.3936 419.269 76.1897 419.056 75.9279 418.9C75.6694 418.744 75.3678 418.666 75.0231 418.666C74.6552 418.666 74.332 418.756 74.0536 418.935C73.7752 419.11 73.5581 419.342 73.4023 419.631C73.2499 419.916 73.172 420.229 73.1687 420.57V421.629C73.1687 422.073 73.2499 422.455 73.4123 422.773C73.5747 423.088 73.8017 423.33 74.0934 423.499C74.385 423.664 74.7264 423.747 75.1175 423.747C75.3794 423.747 75.6163 423.711 75.8285 423.638C76.0406 423.562 76.2245 423.451 76.3803 423.305C76.5361 423.159 76.6537 422.978 76.7333 422.763L78.4137 422.952C78.3076 423.396 78.1054 423.784 77.8072 424.115C77.5122 424.443 77.1343 424.698 76.6736 424.881C76.2129 425.06 75.6859 425.149 75.0927 425.149ZM81.7405 420.526V425H79.9408V417.364H81.661V418.661H81.7505C81.9261 418.234 82.2062 417.894 82.5907 417.642C82.9785 417.39 83.4574 417.264 84.0275 417.264C84.5544 417.264 85.0135 417.377 85.4046 417.602C85.799 417.828 86.1039 418.154 86.3194 418.582C86.5381 419.009 86.6458 419.528 86.6425 420.138V425H84.8428V420.416C84.8428 419.906 84.7102 419.506 84.4451 419.218C84.1832 418.93 83.8203 418.786 83.3563 418.786C83.0414 418.786 82.7614 418.855 82.5161 418.994C82.2741 419.13 82.0836 419.327 81.9444 419.586C81.8085 419.844 81.7405 420.158 81.7405 420.526ZM91.2359 425.134C90.636 425.134 90.099 424.98 89.6251 424.672C89.1511 424.364 88.7766 423.916 88.5015 423.33C88.2264 422.743 88.0889 422.03 88.0889 421.192C88.0889 420.343 88.2281 419.627 88.5065 419.044C88.7882 418.457 89.1677 418.015 89.645 417.717C90.1222 417.415 90.6542 417.264 91.2408 417.264C91.6883 417.264 92.0562 417.34 92.3445 417.493C92.6329 417.642 92.8616 417.823 93.0306 418.035C93.1996 418.244 93.3306 418.441 93.4234 418.626H93.4979V414.818H95.3026V425H93.5327V423.797H93.4234C93.3306 423.982 93.1963 424.18 93.0207 424.388C92.845 424.594 92.613 424.77 92.3246 424.915C92.0363 425.061 91.6734 425.134 91.2359 425.134ZM91.738 423.658C92.1192 423.658 92.444 423.555 92.7124 423.349C92.9809 423.141 93.1847 422.851 93.3239 422.479C93.4631 422.108 93.5327 421.676 93.5327 421.182C93.5327 420.688 93.4631 420.259 93.3239 419.894C93.188 419.53 92.9859 419.246 92.7174 419.044C92.4522 418.842 92.1258 418.741 91.738 418.741C91.337 418.741 91.0022 418.845 90.7337 419.054C90.4653 419.263 90.2631 419.551 90.1272 419.919C89.9913 420.287 89.9234 420.708 89.9234 421.182C89.9234 421.659 89.9913 422.085 90.1272 422.46C90.2664 422.831 90.4702 423.124 90.7387 423.339C91.0105 423.552 91.3436 423.658 91.738 423.658ZM103.186 419.382L101.545 419.561C101.499 419.395 101.418 419.24 101.302 419.094C101.189 418.948 101.037 418.83 100.844 418.741C100.652 418.651 100.417 418.607 100.138 418.607C99.7638 418.607 99.4489 418.688 99.1937 418.85C98.9418 419.013 98.8176 419.223 98.8209 419.482C98.8176 419.704 98.8988 419.884 99.0645 420.023C99.2335 420.163 99.5119 420.277 99.8997 420.366L101.202 420.645C101.925 420.801 102.462 421.048 102.813 421.386C103.168 421.724 103.347 422.166 103.35 422.713C103.347 423.194 103.206 423.618 102.927 423.986C102.652 424.35 102.269 424.635 101.779 424.841C101.288 425.046 100.725 425.149 100.089 425.149C99.154 425.149 98.4016 424.954 97.8315 424.562C97.2614 424.168 96.9217 423.62 96.8123 422.917L98.5673 422.748C98.6469 423.093 98.8159 423.353 99.0744 423.528C99.3329 423.704 99.6694 423.792 100.084 423.792C100.511 423.792 100.854 423.704 101.113 423.528C101.375 423.353 101.506 423.136 101.506 422.877C101.506 422.658 101.421 422.478 101.252 422.335C101.086 422.193 100.828 422.083 100.476 422.007L99.1739 421.734C98.4414 421.581 97.8995 421.324 97.5481 420.963C97.1968 420.598 97.0228 420.138 97.0261 419.581C97.0228 419.11 97.1504 418.703 97.4089 418.358C97.6708 418.01 98.0337 417.741 98.4977 417.553C98.965 417.36 99.5036 417.264 100.113 417.264C101.008 417.264 101.713 417.455 102.226 417.836C102.743 418.217 103.063 418.732 103.186 419.382Z" fill="#6D6D6D"/>
<rect x="252" y="41" width="83" height="25" rx="12.5" fill="#6D6D6D"/>
<path d="M275.799 48.5909V59.5H273.807L269.061 52.6339H268.981V59.5H266.675V48.5909H268.699L273.408 55.4517H273.504V48.5909H275.799ZM279.585 59.5H277.114L280.88 48.5909H283.852L287.613 59.5H285.141L282.408 51.0838H282.323L279.585 59.5ZM279.431 55.212H285.269V57.0124H279.431V55.212ZM287.177 50.4925V48.5909H296.137V50.4925H292.797V59.5H290.517V50.4925H287.177ZM299.919 48.5909V59.5H297.612V48.5909H299.919ZM303.787 48.5909L306.424 56.8793H306.525L309.167 48.5909H311.724L307.963 59.5H304.991L301.225 48.5909H303.787ZM313.037 59.5V48.5909H320.388V50.4925H315.343V53.092H320.01V54.9936H315.343V57.5984H320.409V59.5H313.037Z" fill="white"/>
<rect x="466" y="40" width="83" height="25" rx="12.5" fill="#6D6D6D"/>
<path d="M493.582 58.5L490.461 47.5909H492.98L494.786 55.1708H494.876L496.869 47.5909H499.026L501.013 55.1868H501.109L502.914 47.5909H505.434L502.312 58.5H500.065L497.987 51.3675H497.902L495.83 58.5H493.582ZM506.668 58.5V47.5909H514.019V49.4925H508.975V52.092H513.641V53.9936H508.975V56.5984H514.041V58.5H506.668ZM515.853 58.5V47.5909H520.221C521.023 47.5909 521.693 47.7099 522.229 47.9478C522.765 48.1857 523.168 48.516 523.438 48.9386C523.708 49.3576 523.843 49.8406 523.843 50.3874C523.843 50.8136 523.758 51.1882 523.587 51.5114C523.417 51.831 523.182 52.0937 522.884 52.2997C522.589 52.5021 522.252 52.646 521.872 52.7312V52.8377C522.288 52.8555 522.676 52.9727 523.039 53.1893C523.404 53.4059 523.701 53.7095 523.928 54.1001C524.155 54.4872 524.269 54.9489 524.269 55.4851C524.269 56.0639 524.125 56.5806 523.838 57.0352C523.554 57.4862 523.133 57.843 522.575 58.1058C522.018 58.3686 521.331 58.5 520.514 58.5H515.853ZM518.159 56.6143H520.04C520.682 56.6143 521.151 56.4918 521.446 56.2468C521.741 55.9982 521.888 55.668 521.888 55.256C521.888 54.9542 521.815 54.6879 521.67 54.457C521.524 54.2262 521.316 54.0451 521.046 53.9137C520.78 53.7823 520.462 53.7166 520.093 53.7166H518.159V56.6143ZM518.159 52.1559H519.869C520.185 52.1559 520.466 52.1009 520.711 51.9908C520.959 51.8771 521.155 51.7173 521.297 51.5114C521.442 51.3054 521.515 51.0586 521.515 50.771C521.515 50.3768 521.375 50.0589 521.094 49.8175C520.817 49.576 520.423 49.4553 519.912 49.4553H518.159V52.1559Z" fill="white"/>
</svg>