<svg width="882" height="454" viewBox="0 0 882 454" fill="none" xmlns="http://www.w3.org/2000/svg">
<rect width="882" height="454" fill="#F2F2F2"/>
<rect x="109" y="360" width="499" height="62" stroke="#222222" stroke-width="2" stroke-dasharray="8 10"/>
<rect x="109" y="120" width="499" height="218" stroke="#222222" stroke-width="2" stroke-dasharray="8 10"/>
<rect x="109" y="35" width="499" height="62" stroke="#222222" stroke-width="2" stroke-dasharray="8 10"/>
<rect x="115" y="126" width="488" height="206" fill="white" stroke="#222222" stroke-width="2"/>
<path d="M316.829 207.812V205.545H330.337V207.812H324.891V223H322.266V207.812H316.829ZM335.426 215.227V223H332.878V205.545H335.392V212.04H335.554C335.861 211.335 336.329 210.776 336.96 210.361C337.591 209.946 338.415 209.739 339.432 209.739C340.329 209.739 341.114 209.923 341.784 210.293C342.46 210.662 342.983 211.213 343.352 211.946C343.727 212.673 343.915 213.582 343.915 214.673V223H341.366V214.98C341.366 214.02 341.119 213.276 340.625 212.747C340.131 212.213 339.443 211.946 338.562 211.946C337.96 211.946 337.42 212.074 336.943 212.33C336.472 212.585 336.099 212.96 335.827 213.455C335.56 213.943 335.426 214.534 335.426 215.227ZM352.589 223.264C351.362 223.264 350.291 222.983 349.376 222.42C348.462 221.858 347.751 221.071 347.246 220.06C346.74 219.048 346.487 217.866 346.487 216.514C346.487 215.156 346.74 213.969 347.246 212.952C347.751 211.935 348.462 211.145 349.376 210.582C350.291 210.02 351.362 209.739 352.589 209.739C353.817 209.739 354.888 210.02 355.803 210.582C356.717 211.145 357.428 211.935 357.933 212.952C358.439 213.969 358.692 215.156 358.692 216.514C358.692 217.866 358.439 219.048 357.933 220.06C357.428 221.071 356.717 221.858 355.803 222.42C354.888 222.983 353.817 223.264 352.589 223.264ZM352.598 221.125C353.393 221.125 354.053 220.915 354.575 220.494C355.098 220.074 355.484 219.514 355.734 218.815C355.99 218.116 356.118 217.347 356.118 216.506C356.118 215.67 355.99 214.903 355.734 214.205C355.484 213.5 355.098 212.935 354.575 212.509C354.053 212.082 353.393 211.869 352.598 211.869C351.797 211.869 351.132 212.082 350.604 212.509C350.081 212.935 349.692 213.5 349.436 214.205C349.186 214.903 349.061 215.67 349.061 216.506C349.061 217.347 349.186 218.116 349.436 218.815C349.692 219.514 350.081 220.074 350.604 220.494C351.132 220.915 351.797 221.125 352.598 221.125ZM361.296 223V209.909H363.759V211.989H363.896C364.134 211.284 364.555 210.73 365.157 210.327C365.765 209.918 366.452 209.713 367.219 209.713C367.379 209.713 367.566 209.719 367.782 209.73C368.004 209.741 368.177 209.756 368.302 209.773V212.21C368.2 212.182 368.018 212.151 367.756 212.116C367.495 212.077 367.234 212.057 366.972 212.057C366.37 212.057 365.833 212.185 365.362 212.44C364.896 212.69 364.526 213.04 364.254 213.489C363.981 213.932 363.844 214.437 363.844 215.006V223H361.296ZM371.997 205.545L376.855 219.761H377.051L381.909 205.545H384.756L378.475 223H375.432L369.151 205.545H371.997ZM397.982 211.06C397.817 210.543 397.595 210.08 397.317 209.67C397.044 209.256 396.717 208.903 396.337 208.614C395.956 208.318 395.521 208.094 395.033 207.94C394.55 207.787 394.019 207.71 393.439 207.71C392.456 207.71 391.57 207.963 390.78 208.469C389.99 208.974 389.365 209.716 388.905 210.693C388.45 211.665 388.223 212.855 388.223 214.264C388.223 215.679 388.453 216.875 388.914 217.852C389.374 218.83 390.004 219.571 390.806 220.077C391.607 220.582 392.519 220.835 393.541 220.835C394.49 220.835 395.317 220.642 396.021 220.256C396.732 219.869 397.28 219.324 397.666 218.619C398.058 217.909 398.254 217.074 398.254 216.114L398.936 216.241H393.942V214.068H400.803V216.054C400.803 217.52 400.49 218.793 399.865 219.872C399.246 220.946 398.388 221.776 397.291 222.361C396.2 222.946 394.95 223.239 393.541 223.239C391.962 223.239 390.575 222.875 389.382 222.148C388.195 221.42 387.269 220.389 386.604 219.054C385.939 217.713 385.607 216.122 385.607 214.281C385.607 212.889 385.8 211.639 386.186 210.531C386.573 209.423 387.115 208.483 387.814 207.71C388.519 206.932 389.345 206.338 390.294 205.929C391.249 205.514 392.291 205.307 393.422 205.307C394.365 205.307 395.243 205.446 396.056 205.724C396.874 206.003 397.601 206.398 398.237 206.909C398.879 207.42 399.411 208.028 399.831 208.733C400.252 209.432 400.536 210.207 400.683 211.06H397.982ZM309.316 252V234.545H315.538C316.89 234.545 318.012 234.778 318.904 235.244C319.802 235.71 320.472 236.355 320.916 237.179C321.359 237.997 321.58 238.943 321.58 240.017C321.58 241.085 321.356 242.026 320.907 242.838C320.464 243.645 319.793 244.273 318.896 244.722C318.004 245.17 316.882 245.395 315.529 245.395H310.816V243.128H315.291C316.143 243.128 316.836 243.006 317.37 242.761C317.91 242.517 318.305 242.162 318.555 241.696C318.805 241.23 318.93 240.67 318.93 240.017C318.93 239.358 318.802 238.787 318.546 238.304C318.296 237.821 317.901 237.452 317.362 237.196C316.828 236.935 316.126 236.804 315.257 236.804H311.95V252H309.316ZM317.933 244.125L322.245 252H319.245L315.018 244.125H317.933ZM329.818 252.264C328.529 252.264 327.418 251.989 326.486 251.438C325.56 250.881 324.844 250.099 324.338 249.094C323.838 248.082 323.588 246.898 323.588 245.54C323.588 244.199 323.838 243.017 324.338 241.994C324.844 240.972 325.548 240.173 326.452 239.599C327.361 239.026 328.423 238.739 329.639 238.739C330.378 238.739 331.094 238.861 331.787 239.105C332.48 239.349 333.102 239.733 333.654 240.256C334.205 240.778 334.639 241.457 334.958 242.293C335.276 243.122 335.435 244.131 335.435 245.318V246.222H325.029V244.312H332.938C332.938 243.642 332.801 243.048 332.529 242.531C332.256 242.009 331.872 241.597 331.378 241.295C330.889 240.994 330.316 240.844 329.656 240.844C328.941 240.844 328.316 241.02 327.781 241.372C327.253 241.719 326.844 242.173 326.554 242.736C326.27 243.293 326.128 243.898 326.128 244.551V246.043C326.128 246.918 326.281 247.662 326.588 248.276C326.901 248.889 327.335 249.358 327.892 249.682C328.449 250 329.1 250.159 329.844 250.159C330.327 250.159 330.767 250.091 331.165 249.955C331.563 249.812 331.906 249.602 332.196 249.324C332.486 249.045 332.708 248.702 332.861 248.293L335.273 248.727C335.08 249.437 334.733 250.06 334.233 250.594C333.739 251.122 333.117 251.534 332.367 251.83C331.622 252.119 330.773 252.264 329.818 252.264ZM340.571 244.227V252H338.022V238.909H340.468V241.04H340.63C340.931 240.347 341.403 239.79 342.045 239.369C342.693 238.949 343.508 238.739 344.491 238.739C345.383 238.739 346.164 238.926 346.835 239.301C347.505 239.67 348.025 240.222 348.394 240.955C348.764 241.687 348.948 242.594 348.948 243.673V252H346.4V243.98C346.4 243.031 346.153 242.29 345.659 241.756C345.164 241.216 344.485 240.946 343.622 240.946C343.031 240.946 342.505 241.074 342.045 241.33C341.59 241.585 341.23 241.96 340.963 242.455C340.701 242.943 340.571 243.534 340.571 244.227ZM357.027 252.256C355.97 252.256 355.027 251.986 354.197 251.446C353.373 250.901 352.725 250.125 352.254 249.119C351.788 248.108 351.555 246.895 351.555 245.48C351.555 244.065 351.791 242.855 352.262 241.849C352.74 240.844 353.393 240.074 354.223 239.54C355.052 239.006 355.993 238.739 357.044 238.739C357.856 238.739 358.51 238.875 359.004 239.148C359.504 239.415 359.89 239.727 360.163 240.085C360.441 240.443 360.657 240.759 360.811 241.031H360.964V234.545H363.512V252H361.024V249.963H360.811C360.657 250.241 360.436 250.56 360.146 250.918C359.862 251.276 359.47 251.588 358.97 251.855C358.47 252.122 357.822 252.256 357.027 252.256ZM357.589 250.082C358.322 250.082 358.941 249.889 359.447 249.503C359.958 249.111 360.345 248.568 360.606 247.875C360.873 247.182 361.007 246.375 361.007 245.455C361.007 244.545 360.876 243.75 360.615 243.068C360.353 242.386 359.97 241.855 359.464 241.474C358.958 241.094 358.333 240.903 357.589 240.903C356.822 240.903 356.183 241.102 355.671 241.5C355.16 241.898 354.774 242.44 354.512 243.128C354.257 243.815 354.129 244.591 354.129 245.455C354.129 246.33 354.26 247.116 354.521 247.815C354.782 248.514 355.169 249.068 355.68 249.477C356.197 249.881 356.833 250.082 357.589 250.082ZM372.552 252.264C371.262 252.264 370.151 251.989 369.219 251.438C368.293 250.881 367.577 250.099 367.071 249.094C366.571 248.082 366.321 246.898 366.321 245.54C366.321 244.199 366.571 243.017 367.071 241.994C367.577 240.972 368.282 240.173 369.185 239.599C370.094 239.026 371.157 238.739 372.373 238.739C373.111 238.739 373.827 238.861 374.52 239.105C375.213 239.349 375.836 239.733 376.387 240.256C376.938 240.778 377.373 241.457 377.691 242.293C378.009 243.122 378.168 244.131 378.168 245.318V246.222H367.762V244.312H375.671C375.671 243.642 375.534 243.048 375.262 242.531C374.989 242.009 374.606 241.597 374.111 241.295C373.623 240.994 373.049 240.844 372.39 240.844C371.674 240.844 371.049 241.02 370.515 241.372C369.986 241.719 369.577 242.173 369.287 242.736C369.003 243.293 368.861 243.898 368.861 244.551V246.043C368.861 246.918 369.015 247.662 369.321 248.276C369.634 248.889 370.069 249.358 370.625 249.682C371.182 250 371.833 250.159 372.577 250.159C373.06 250.159 373.5 250.091 373.898 249.955C374.296 249.812 374.64 249.602 374.929 249.324C375.219 249.045 375.441 248.702 375.594 248.293L378.006 248.727C377.813 249.437 377.466 250.06 376.966 250.594C376.472 251.122 375.85 251.534 375.1 251.83C374.356 252.119 373.506 252.264 372.552 252.264ZM380.755 252V238.909H383.218V240.989H383.355C383.593 240.284 384.014 239.73 384.616 239.327C385.224 238.918 385.912 238.713 386.679 238.713C386.838 238.713 387.025 238.719 387.241 238.73C387.463 238.741 387.636 238.756 387.761 238.773V241.21C387.659 241.182 387.477 241.151 387.216 241.116C386.954 241.077 386.693 241.057 386.432 241.057C385.829 241.057 385.292 241.185 384.821 241.44C384.355 241.69 383.986 242.04 383.713 242.489C383.44 242.932 383.304 243.437 383.304 244.006V252H380.755ZM394.9 252.264C393.61 252.264 392.499 251.989 391.567 251.438C390.641 250.881 389.925 250.099 389.42 249.094C388.92 248.082 388.67 246.898 388.67 245.54C388.67 244.199 388.92 243.017 389.42 241.994C389.925 240.972 390.63 240.173 391.533 239.599C392.442 239.026 393.505 238.739 394.721 238.739C395.459 238.739 396.175 238.861 396.868 239.105C397.562 239.349 398.184 239.733 398.735 240.256C399.286 240.778 399.721 241.457 400.039 242.293C400.357 243.122 400.516 244.131 400.516 245.318V246.222H390.11V244.312H398.019C398.019 243.642 397.883 243.048 397.61 242.531C397.337 242.009 396.954 241.597 396.459 241.295C395.971 240.994 395.397 240.844 394.738 240.844C394.022 240.844 393.397 241.02 392.863 241.372C392.334 241.719 391.925 242.173 391.635 242.736C391.351 243.293 391.209 243.898 391.209 244.551V246.043C391.209 246.918 391.363 247.662 391.67 248.276C391.982 248.889 392.417 249.358 392.974 249.682C393.53 250 394.181 250.159 394.925 250.159C395.408 250.159 395.849 250.091 396.246 249.955C396.644 249.812 396.988 249.602 397.277 249.324C397.567 249.045 397.789 248.702 397.942 248.293L400.354 248.727C400.161 249.437 399.814 250.06 399.314 250.594C398.82 251.122 398.198 251.534 397.448 251.83C396.704 252.119 395.854 252.264 394.9 252.264ZM403.104 252V238.909H405.567V240.989H405.703C405.942 240.284 406.362 239.73 406.964 239.327C407.572 238.918 408.26 238.713 409.027 238.713C409.186 238.713 409.373 238.719 409.589 238.73C409.811 238.741 409.984 238.756 410.109 238.773V241.21C410.007 241.182 409.825 241.151 409.564 241.116C409.302 241.077 409.041 241.057 408.78 241.057C408.177 241.057 407.64 241.185 407.169 241.44C406.703 241.69 406.334 242.04 406.061 242.489C405.788 242.932 405.652 243.437 405.652 244.006V252H403.104Z" fill="#222222"/>
<rect x="281" y="365" width="155" height="51" fill="white" stroke="#222222" stroke-width="2"/>
<path d="M310.575 391.273C310.575 393.136 310.234 394.739 309.552 396.08C308.87 397.415 307.935 398.443 306.748 399.165C305.566 399.881 304.222 400.239 302.717 400.239C301.205 400.239 299.856 399.881 298.668 399.165C297.487 398.443 296.555 397.412 295.873 396.071C295.191 394.73 294.85 393.131 294.85 391.273C294.85 389.409 295.191 387.81 295.873 386.474C296.555 385.134 297.487 384.105 298.668 383.389C299.856 382.668 301.205 382.307 302.717 382.307C304.222 382.307 305.566 382.668 306.748 383.389C307.935 384.105 308.87 385.134 309.552 386.474C310.234 387.81 310.575 389.409 310.575 391.273ZM307.967 391.273C307.967 389.852 307.737 388.656 307.276 387.685C306.822 386.707 306.197 385.969 305.401 385.469C304.612 384.963 303.717 384.71 302.717 384.71C301.711 384.71 300.813 384.963 300.024 385.469C299.234 385.969 298.609 386.707 298.149 387.685C297.694 388.656 297.467 389.852 297.467 391.273C297.467 392.693 297.694 393.892 298.149 394.869C298.609 395.841 299.234 396.58 300.024 397.085C300.813 397.585 301.711 397.835 302.717 397.835C303.717 397.835 304.612 397.585 305.401 397.085C306.197 396.58 306.822 395.841 307.276 394.869C307.737 393.892 307.967 392.693 307.967 391.273ZM313.414 404.909V386.909H315.902V389.031H316.115C316.263 388.759 316.476 388.443 316.754 388.085C317.033 387.727 317.419 387.415 317.914 387.148C318.408 386.875 319.061 386.739 319.874 386.739C320.931 386.739 321.874 387.006 322.703 387.54C323.533 388.074 324.183 388.844 324.655 389.849C325.132 390.855 325.371 392.065 325.371 393.48C325.371 394.895 325.135 396.108 324.664 397.119C324.192 398.125 323.544 398.901 322.72 399.446C321.896 399.986 320.956 400.256 319.899 400.256C319.104 400.256 318.453 400.122 317.948 399.855C317.448 399.588 317.056 399.276 316.771 398.918C316.487 398.56 316.269 398.241 316.115 397.963H315.962V404.909H313.414ZM315.911 393.455C315.911 394.375 316.044 395.182 316.311 395.875C316.578 396.568 316.965 397.111 317.47 397.503C317.976 397.889 318.595 398.082 319.328 398.082C320.09 398.082 320.726 397.881 321.237 397.477C321.749 397.068 322.135 396.514 322.396 395.815C322.664 395.116 322.797 394.33 322.797 393.455C322.797 392.591 322.666 391.815 322.405 391.128C322.149 390.44 321.763 389.898 321.246 389.5C320.735 389.102 320.095 388.903 319.328 388.903C318.59 388.903 317.965 389.094 317.453 389.474C316.948 389.855 316.564 390.386 316.303 391.068C316.041 391.75 315.911 392.545 315.911 393.455ZM333.628 400.264C332.338 400.264 331.228 399.989 330.296 399.438C329.37 398.881 328.654 398.099 328.148 397.094C327.648 396.082 327.398 394.898 327.398 393.54C327.398 392.199 327.648 391.017 328.148 389.994C328.654 388.972 329.358 388.173 330.262 387.599C331.171 387.026 332.233 386.739 333.449 386.739C334.188 386.739 334.904 386.861 335.597 387.105C336.29 387.349 336.912 387.733 337.463 388.256C338.014 388.778 338.449 389.457 338.767 390.293C339.085 391.122 339.245 392.131 339.245 393.318V394.222H328.838V392.312H336.747C336.747 391.642 336.611 391.048 336.338 390.531C336.066 390.009 335.682 389.597 335.188 389.295C334.699 388.994 334.125 388.844 333.466 388.844C332.75 388.844 332.125 389.02 331.591 389.372C331.063 389.719 330.654 390.173 330.364 390.736C330.08 391.293 329.938 391.898 329.938 392.551V394.043C329.938 394.918 330.091 395.662 330.398 396.276C330.71 396.889 331.145 397.358 331.702 397.682C332.259 398 332.909 398.159 333.654 398.159C334.137 398.159 334.577 398.091 334.975 397.955C335.372 397.812 335.716 397.602 336.006 397.324C336.296 397.045 336.517 396.702 336.671 396.293L339.083 396.727C338.889 397.437 338.543 398.06 338.043 398.594C337.549 399.122 336.926 399.534 336.176 399.83C335.432 400.119 334.583 400.264 333.628 400.264ZM344.38 392.227V400H341.832V386.909H344.278V389.04H344.44C344.741 388.347 345.213 387.79 345.855 387.369C346.502 386.949 347.318 386.739 348.301 386.739C349.193 386.739 349.974 386.926 350.644 387.301C351.315 387.67 351.835 388.222 352.204 388.955C352.573 389.687 352.758 390.594 352.758 391.673V400H350.21V391.98C350.21 391.031 349.963 390.29 349.468 389.756C348.974 389.216 348.295 388.946 347.431 388.946C346.84 388.946 346.315 389.074 345.855 389.33C345.4 389.585 345.039 389.96 344.772 390.455C344.511 390.943 344.38 391.534 344.38 392.227ZM367.953 388.06C367.788 387.543 367.566 387.08 367.288 386.67C367.015 386.256 366.689 385.903 366.308 385.614C365.927 385.318 365.493 385.094 365.004 384.94C364.521 384.787 363.99 384.71 363.41 384.71C362.427 384.71 361.541 384.963 360.751 385.469C359.961 385.974 359.336 386.716 358.876 387.693C358.422 388.665 358.194 389.855 358.194 391.264C358.194 392.679 358.424 393.875 358.885 394.852C359.345 395.83 359.975 396.571 360.777 397.077C361.578 397.582 362.49 397.835 363.512 397.835C364.461 397.835 365.288 397.642 365.993 397.256C366.703 396.869 367.251 396.324 367.637 395.619C368.029 394.909 368.225 394.074 368.225 393.114L368.907 393.241H363.913V391.068H370.774V393.054C370.774 394.52 370.461 395.793 369.836 396.872C369.217 397.946 368.359 398.776 367.262 399.361C366.172 399.946 364.922 400.239 363.512 400.239C361.933 400.239 360.547 399.875 359.353 399.148C358.166 398.42 357.24 397.389 356.575 396.054C355.91 394.713 355.578 393.122 355.578 391.281C355.578 389.889 355.771 388.639 356.157 387.531C356.544 386.423 357.086 385.483 357.785 384.71C358.49 383.932 359.316 383.338 360.265 382.929C361.22 382.514 362.262 382.307 363.393 382.307C364.336 382.307 365.214 382.446 366.027 382.724C366.845 383.003 367.572 383.398 368.208 383.909C368.85 384.42 369.382 385.028 369.802 385.733C370.223 386.432 370.507 387.207 370.654 388.06H367.953ZM373.877 400V382.545H376.51V397.733H384.419V400H373.877ZM393.627 381.727L388.002 402.625H385.726L391.351 381.727H393.627ZM395.756 400V382.545H406.699V384.812H398.39V390.131H406.128V392.389H398.39V397.733H406.802V400H395.756ZM419.497 387.131C419.406 386.324 419.031 385.699 418.372 385.256C417.713 384.807 416.883 384.582 415.883 384.582C415.167 384.582 414.548 384.696 414.025 384.923C413.503 385.145 413.096 385.452 412.807 385.844C412.523 386.23 412.381 386.67 412.381 387.165C412.381 387.58 412.477 387.937 412.67 388.239C412.869 388.54 413.128 388.793 413.446 388.997C413.77 389.196 414.116 389.364 414.486 389.5C414.855 389.631 415.21 389.739 415.551 389.824L417.256 390.267C417.812 390.403 418.383 390.588 418.969 390.821C419.554 391.054 420.096 391.361 420.596 391.741C421.096 392.122 421.5 392.594 421.807 393.156C422.119 393.719 422.275 394.392 422.275 395.176C422.275 396.165 422.02 397.043 421.508 397.81C421.003 398.577 420.267 399.182 419.301 399.625C418.341 400.068 417.179 400.29 415.815 400.29C414.508 400.29 413.378 400.082 412.423 399.668C411.469 399.253 410.721 398.665 410.182 397.903C409.642 397.136 409.344 396.227 409.287 395.176H411.929C411.98 395.807 412.185 396.332 412.542 396.753C412.906 397.168 413.369 397.477 413.932 397.682C414.5 397.881 415.122 397.98 415.798 397.98C416.542 397.98 417.204 397.864 417.784 397.631C418.369 397.392 418.829 397.062 419.165 396.642C419.5 396.216 419.667 395.719 419.667 395.151C419.667 394.634 419.52 394.21 419.224 393.881C418.935 393.551 418.54 393.278 418.04 393.062C417.545 392.847 416.986 392.656 416.361 392.491L414.298 391.929C412.9 391.548 411.792 390.989 410.974 390.25C410.162 389.511 409.756 388.534 409.756 387.318C409.756 386.312 410.028 385.435 410.574 384.685C411.119 383.935 411.858 383.352 412.79 382.938C413.721 382.517 414.773 382.307 415.943 382.307C417.125 382.307 418.167 382.514 419.071 382.929C419.98 383.344 420.696 383.915 421.219 384.642C421.741 385.364 422.014 386.193 422.037 387.131H419.497Z" fill="#222222"/>
<rect x="448" y="365" width="155" height="51" fill="white" stroke="#222222" stroke-width="2"/>
<path d="M480.283 400L475.442 382.545H478.212L481.612 396.062H481.774L485.311 382.545H488.056L491.593 396.071H491.754L495.147 382.545H497.925L493.075 400H490.425L486.752 386.926H486.615L482.942 400H480.283ZM504.235 400.264C502.945 400.264 501.834 399.989 500.902 399.438C499.976 398.881 499.26 398.099 498.755 397.094C498.255 396.082 498.005 394.898 498.005 393.54C498.005 392.199 498.255 391.017 498.755 389.994C499.26 388.972 499.965 388.173 500.868 387.599C501.777 387.026 502.84 386.739 504.056 386.739C504.794 386.739 505.51 386.861 506.203 387.105C506.897 387.349 507.519 387.733 508.07 388.256C508.621 388.778 509.056 389.457 509.374 390.293C509.692 391.122 509.851 392.131 509.851 393.318V394.222H499.445V392.312H507.354C507.354 391.642 507.218 391.048 506.945 390.531C506.672 390.009 506.289 389.597 505.794 389.295C505.306 388.994 504.732 388.844 504.073 388.844C503.357 388.844 502.732 389.02 502.198 389.372C501.669 389.719 501.26 390.173 500.97 390.736C500.686 391.293 500.544 391.898 500.544 392.551V394.043C500.544 394.918 500.698 395.662 501.005 396.276C501.317 396.889 501.752 397.358 502.309 397.682C502.865 398 503.516 398.159 504.26 398.159C504.743 398.159 505.184 398.091 505.581 397.955C505.979 397.812 506.323 397.602 506.612 397.324C506.902 397.045 507.124 396.702 507.277 396.293L509.689 396.727C509.496 397.437 509.149 398.06 508.649 398.594C508.155 399.122 507.533 399.534 506.783 399.83C506.039 400.119 505.189 400.264 504.235 400.264ZM512.643 400V382.545H515.191V389.031H515.345C515.493 388.759 515.706 388.443 515.984 388.085C516.262 387.727 516.649 387.415 517.143 387.148C517.637 386.875 518.291 386.739 519.103 386.739C520.16 386.739 521.103 387.006 521.933 387.54C522.762 388.074 523.413 388.844 523.885 389.849C524.362 390.855 524.6 392.065 524.6 393.48C524.6 394.895 524.365 396.108 523.893 397.119C523.421 398.125 522.774 398.901 521.95 399.446C521.126 399.986 520.186 400.256 519.129 400.256C518.333 400.256 517.683 400.122 517.177 399.855C516.677 399.588 516.285 399.276 516.001 398.918C515.717 398.56 515.498 398.241 515.345 397.963H515.132V400H512.643ZM515.14 393.455C515.14 394.375 515.274 395.182 515.541 395.875C515.808 396.568 516.194 397.111 516.7 397.503C517.206 397.889 517.825 398.082 518.558 398.082C519.319 398.082 519.956 397.881 520.467 397.477C520.978 397.068 521.365 396.514 521.626 395.815C521.893 395.116 522.027 394.33 522.027 393.455C522.027 392.591 521.896 391.815 521.635 391.128C521.379 390.44 520.993 389.898 520.475 389.5C519.964 389.102 519.325 388.903 518.558 388.903C517.819 388.903 517.194 389.094 516.683 389.474C516.177 389.855 515.794 390.386 515.532 391.068C515.271 391.75 515.14 392.545 515.14 393.455ZM539.239 388.06C539.074 387.543 538.853 387.08 538.574 386.67C538.302 386.256 537.975 385.903 537.594 385.614C537.213 385.318 536.779 385.094 536.29 384.94C535.807 384.787 535.276 384.71 534.696 384.71C533.713 384.71 532.827 384.963 532.037 385.469C531.248 385.974 530.623 386.716 530.162 387.693C529.708 388.665 529.48 389.855 529.48 391.264C529.48 392.679 529.711 393.875 530.171 394.852C530.631 395.83 531.262 396.571 532.063 397.077C532.864 397.582 533.776 397.835 534.799 397.835C535.748 397.835 536.574 397.642 537.279 397.256C537.989 396.869 538.537 396.324 538.924 395.619C539.316 394.909 539.512 394.074 539.512 393.114L540.194 393.241H535.199V391.068H542.06V393.054C542.06 394.52 541.748 395.793 541.123 396.872C540.503 397.946 539.645 398.776 538.549 399.361C537.458 399.946 536.208 400.239 534.799 400.239C533.219 400.239 531.833 399.875 530.64 399.148C529.452 398.42 528.526 397.389 527.861 396.054C527.196 394.713 526.864 393.122 526.864 391.281C526.864 389.889 527.057 388.639 527.444 387.531C527.83 386.423 528.373 385.483 529.071 384.71C529.776 383.932 530.603 383.338 531.552 382.929C532.506 382.514 533.549 382.307 534.679 382.307C535.623 382.307 536.5 382.446 537.313 382.724C538.131 383.003 538.858 383.398 539.495 383.909C540.137 384.42 540.668 385.028 541.088 385.733C541.509 386.432 541.793 387.207 541.941 388.06H539.239ZM545.163 400V382.545H551.385C552.743 382.545 553.868 382.793 554.76 383.287C555.652 383.781 556.319 384.457 556.763 385.315C557.206 386.168 557.427 387.128 557.427 388.196C557.427 389.27 557.203 390.236 556.754 391.094C556.311 391.946 555.64 392.622 554.743 393.122C553.851 393.616 552.728 393.864 551.376 393.864H547.098V391.631H551.138C551.995 391.631 552.691 391.483 553.226 391.188C553.76 390.886 554.152 390.477 554.402 389.96C554.652 389.443 554.777 388.855 554.777 388.196C554.777 387.537 554.652 386.952 554.402 386.44C554.152 385.929 553.757 385.528 553.217 385.239C552.683 384.949 551.978 384.804 551.103 384.804H547.797V400H545.163ZM571.499 382.545H574.141V394.026C574.141 395.247 573.854 396.33 573.28 397.273C572.706 398.21 571.9 398.949 570.86 399.489C569.82 400.023 568.601 400.29 567.204 400.29C565.812 400.29 564.596 400.023 563.556 399.489C562.516 398.949 561.709 398.21 561.135 397.273C560.562 396.33 560.275 395.247 560.275 394.026V382.545H562.908V393.812C562.908 394.602 563.081 395.304 563.428 395.918C563.78 396.531 564.277 397.014 564.92 397.366C565.562 397.713 566.323 397.886 567.204 397.886C568.09 397.886 568.854 397.713 569.496 397.366C570.144 397.014 570.638 396.531 570.979 395.918C571.326 395.304 571.499 394.602 571.499 393.812V382.545Z" fill="#222222"/>
<rect x="367" y="40" width="236" height="51" fill="white" stroke="#222222" stroke-width="2"/>
<path d="M425.483 57.5455H428.108V69.9205C428.108 71.0398 427.886 71.9972 427.443 72.7926C427.005 73.5881 426.389 74.196 425.593 74.6165C424.798 75.0312 423.866 75.2386 422.798 75.2386C421.815 75.2386 420.932 75.0597 420.147 74.7017C419.369 74.3437 418.753 73.8239 418.298 73.142C417.849 72.4545 417.625 71.6193 417.625 70.6364H420.241C420.241 71.1193 420.352 71.5369 420.574 71.8892C420.801 72.2415 421.11 72.517 421.503 72.7159C421.9 72.9091 422.355 73.0057 422.866 73.0057C423.423 73.0057 423.895 72.8892 424.281 72.6562C424.673 72.4176 424.971 72.0682 425.176 71.608C425.38 71.1477 425.483 70.5852 425.483 69.9205V57.5455ZM441.221 62.1307C441.13 61.3239 440.755 60.6989 440.096 60.2557C439.437 59.8068 438.607 59.5824 437.607 59.5824C436.891 59.5824 436.272 59.696 435.749 59.9233C435.226 60.1449 434.82 60.4517 434.53 60.8438C434.246 61.2301 434.104 61.6705 434.104 62.1648C434.104 62.5795 434.201 62.9375 434.394 63.2386C434.593 63.5398 434.851 63.7926 435.169 63.9972C435.493 64.196 435.84 64.3636 436.209 64.5C436.579 64.6307 436.934 64.7386 437.275 64.8239L438.979 65.267C439.536 65.4034 440.107 65.5881 440.692 65.821C441.277 66.054 441.82 66.3608 442.32 66.7415C442.82 67.1222 443.223 67.5938 443.53 68.1562C443.843 68.7188 443.999 69.392 443.999 70.1761C443.999 71.1648 443.743 72.0426 443.232 72.8097C442.726 73.5767 441.991 74.1818 441.025 74.625C440.064 75.0682 438.902 75.2898 437.539 75.2898C436.232 75.2898 435.101 75.0824 434.147 74.6676C433.192 74.2528 432.445 73.6648 431.905 72.9034C431.366 72.1364 431.067 71.2273 431.01 70.1761H433.652C433.704 70.8068 433.908 71.3324 434.266 71.7528C434.63 72.1676 435.093 72.4773 435.655 72.6818C436.223 72.8807 436.846 72.9801 437.522 72.9801C438.266 72.9801 438.928 72.8636 439.508 72.6307C440.093 72.392 440.553 72.0625 440.888 71.642C441.223 71.2159 441.391 70.7187 441.391 70.1506C441.391 69.6335 441.243 69.2102 440.948 68.8807C440.658 68.5511 440.263 68.2784 439.763 68.0625C439.269 67.8466 438.709 67.6562 438.084 67.4915L436.022 66.929C434.624 66.5483 433.516 65.9886 432.698 65.25C431.885 64.5114 431.479 63.5341 431.479 62.3182C431.479 61.3125 431.752 60.4347 432.297 59.6847C432.843 58.9347 433.581 58.3523 434.513 57.9375C435.445 57.517 436.496 57.3068 437.667 57.3068C438.848 57.3068 439.891 57.5142 440.794 57.929C441.704 58.3438 442.419 58.9148 442.942 59.642C443.465 60.3636 443.738 61.1932 443.76 62.1307H441.221ZM453.349 56.7273L447.724 77.625H445.449L451.074 56.7273H453.349ZM454.618 59.8125V57.5455H468.126V59.8125H462.68V75H460.055V59.8125H454.618ZM480.391 62.1307C480.3 61.3239 479.925 60.6989 479.266 60.2557C478.607 59.8068 477.778 59.5824 476.778 59.5824C476.062 59.5824 475.442 59.696 474.92 59.9233C474.397 60.1449 473.991 60.4517 473.701 60.8438C473.417 61.2301 473.275 61.6705 473.275 62.1648C473.275 62.5795 473.371 62.9375 473.565 63.2386C473.763 63.5398 474.022 63.7926 474.34 63.9972C474.664 64.196 475.011 64.3636 475.38 64.5C475.749 64.6307 476.104 64.7386 476.445 64.8239L478.15 65.267C478.707 65.4034 479.278 65.5881 479.863 65.821C480.448 66.054 480.991 66.3608 481.491 66.7415C481.991 67.1222 482.394 67.5938 482.701 68.1562C483.013 68.7188 483.17 69.392 483.17 70.1761C483.17 71.1648 482.914 72.0426 482.403 72.8097C481.897 73.5767 481.161 74.1818 480.195 74.625C479.235 75.0682 478.073 75.2898 476.709 75.2898C475.403 75.2898 474.272 75.0824 473.317 74.6676C472.363 74.2528 471.616 73.6648 471.076 72.9034C470.536 72.1364 470.238 71.2273 470.181 70.1761H472.823C472.874 70.8068 473.079 71.3324 473.437 71.7528C473.8 72.1676 474.263 72.4773 474.826 72.6818C475.394 72.8807 476.016 72.9801 476.692 72.9801C477.437 72.9801 478.099 72.8636 478.678 72.6307C479.263 72.392 479.724 72.0625 480.059 71.642C480.394 71.2159 480.562 70.7187 480.562 70.1506C480.562 69.6335 480.414 69.2102 480.119 68.8807C479.829 68.5511 479.434 68.2784 478.934 68.0625C478.44 67.8466 477.88 67.6562 477.255 67.4915L475.192 66.929C473.795 66.5483 472.687 65.9886 471.869 65.25C471.056 64.5114 470.65 63.5341 470.65 62.3182C470.65 61.3125 470.923 60.4347 471.468 59.6847C472.013 58.9347 472.752 58.3523 473.684 57.9375C474.616 57.517 475.667 57.3068 476.837 57.3068C478.019 57.3068 479.062 57.5142 479.965 57.929C480.874 58.3438 481.59 58.9148 482.113 59.642C482.636 60.3636 482.908 61.1932 482.931 62.1307H480.391Z" fill="#222222"/>
<rect x="115" y="40" width="236" height="51" fill="white" stroke="#222222" stroke-width="2"/>
<path d="M181.196 63.2216H178.537C178.434 62.6534 178.244 62.1534 177.966 61.7216C177.687 61.2898 177.346 60.9233 176.943 60.6222C176.539 60.321 176.088 60.0937 175.588 59.9403C175.093 59.7869 174.568 59.7102 174.011 59.7102C173.005 59.7102 172.105 59.9631 171.309 60.4688C170.52 60.9744 169.895 61.7159 169.434 62.6932C168.98 63.6705 168.753 64.8636 168.753 66.2727C168.753 67.6932 168.98 68.892 169.434 69.8693C169.895 70.8466 170.522 71.5852 171.318 72.0852C172.113 72.5852 173.008 72.8352 174.003 72.8352C174.554 72.8352 175.076 72.7614 175.571 72.6136C176.071 72.4602 176.522 72.2358 176.926 71.9403C177.329 71.6449 177.67 71.2841 177.949 70.858C178.233 70.4261 178.429 69.9318 178.537 69.375L181.196 69.3835C181.054 70.2415 180.778 71.0312 180.369 71.7528C179.966 72.4688 179.446 73.0881 178.809 73.6108C178.179 74.1278 177.457 74.5284 176.645 74.8125C175.832 75.0966 174.946 75.2386 173.985 75.2386C172.474 75.2386 171.128 74.8807 169.946 74.1648C168.764 73.4432 167.832 72.4119 167.15 71.071C166.474 69.7301 166.136 68.1307 166.136 66.2727C166.136 64.4091 166.477 62.8097 167.159 61.4744C167.841 60.1335 168.772 59.1051 169.954 58.3892C171.136 57.6676 172.48 57.3068 173.985 57.3068C174.912 57.3068 175.775 57.4403 176.576 57.7074C177.383 57.9687 178.108 58.3551 178.75 58.8665C179.392 59.3722 179.923 59.9915 180.343 60.7244C180.764 61.4517 181.048 62.2841 181.196 63.2216ZM190.55 56.7273L184.925 77.625H182.65L188.275 56.7273H190.55ZM207.177 63.2216H204.518C204.415 62.6534 204.225 62.1534 203.947 61.7216C203.668 61.2898 203.327 60.9233 202.924 60.6222C202.52 60.321 202.069 60.0937 201.569 59.9403C201.074 59.7869 200.549 59.7102 199.992 59.7102C198.986 59.7102 198.086 59.9631 197.29 60.4688C196.501 60.9744 195.876 61.7159 195.415 62.6932C194.961 63.6705 194.733 64.8636 194.733 66.2727C194.733 67.6932 194.961 68.892 195.415 69.8693C195.876 70.8466 196.503 71.5852 197.299 72.0852C198.094 72.5852 198.989 72.8352 199.983 72.8352C200.535 72.8352 201.057 72.7614 201.552 72.6136C202.052 72.4602 202.503 72.2358 202.907 71.9403C203.31 71.6449 203.651 71.2841 203.929 70.858C204.214 70.4261 204.41 69.9318 204.518 69.375L207.177 69.3835C207.035 70.2415 206.759 71.0312 206.35 71.7528C205.947 72.4688 205.427 73.0881 204.79 73.6108C204.16 74.1278 203.438 74.5284 202.626 74.8125C201.813 75.0966 200.927 75.2386 199.966 75.2386C198.455 75.2386 197.108 74.8807 195.927 74.1648C194.745 73.4432 193.813 72.4119 193.131 71.071C192.455 69.7301 192.117 68.1307 192.117 66.2727C192.117 64.4091 192.458 62.8097 193.14 61.4744C193.822 60.1335 194.753 59.1051 195.935 58.3892C197.117 57.6676 198.461 57.3068 199.966 57.3068C200.893 57.3068 201.756 57.4403 202.557 57.7074C203.364 57.9687 204.089 58.3551 204.731 58.8665C205.373 59.3722 205.904 59.9915 206.324 60.7244C206.745 61.4517 207.029 62.2841 207.177 63.2216ZM215.014 72.0682V60.5455H217.307V72.0682H215.014ZM210.403 67.4489V65.1648H221.926V67.4489H210.403ZM230.758 72.0682V60.5455H233.051V72.0682H230.758ZM226.148 67.4489V65.1648H237.67V67.4489H226.148Z" fill="#222222"/>
<rect x="115" y="365" width="155" height="51" fill="white" stroke="#222222" stroke-width="2"/>
<path d="M183.807 388.222H181.148C181.046 387.653 180.855 387.153 180.577 386.722C180.299 386.29 179.958 385.923 179.554 385.622C179.151 385.321 178.699 385.094 178.199 384.94C177.705 384.787 177.179 384.71 176.622 384.71C175.617 384.71 174.716 384.963 173.921 385.469C173.131 385.974 172.506 386.716 172.046 387.693C171.591 388.67 171.364 389.864 171.364 391.273C171.364 392.693 171.591 393.892 172.046 394.869C172.506 395.847 173.134 396.585 173.929 397.085C174.725 397.585 175.62 397.835 176.614 397.835C177.165 397.835 177.688 397.761 178.182 397.614C178.682 397.46 179.134 397.236 179.537 396.94C179.941 396.645 180.282 396.284 180.56 395.858C180.844 395.426 181.04 394.932 181.148 394.375L183.807 394.384C183.665 395.241 183.39 396.031 182.98 396.753C182.577 397.469 182.057 398.088 181.421 398.611C180.79 399.128 180.068 399.528 179.256 399.812C178.443 400.097 177.557 400.239 176.597 400.239C175.086 400.239 173.739 399.881 172.557 399.165C171.375 398.443 170.443 397.412 169.762 396.071C169.086 394.73 168.747 393.131 168.747 391.273C168.747 389.409 169.088 387.81 169.77 386.474C170.452 385.134 171.384 384.105 172.566 383.389C173.747 382.668 175.091 382.307 176.597 382.307C177.523 382.307 178.387 382.44 179.188 382.707C179.995 382.969 180.719 383.355 181.361 383.866C182.003 384.372 182.534 384.991 182.955 385.724C183.375 386.452 183.659 387.284 183.807 388.222ZM186.718 400V382.545H192.94C194.298 382.545 195.423 382.793 196.315 383.287C197.207 383.781 197.875 384.457 198.318 385.315C198.761 386.168 198.983 387.128 198.983 388.196C198.983 389.27 198.758 390.236 198.309 391.094C197.866 391.946 197.196 392.622 196.298 393.122C195.406 393.616 194.284 393.864 192.931 393.864H188.653V391.631H192.693C193.551 391.631 194.247 391.483 194.781 391.188C195.315 390.886 195.707 390.477 195.957 389.96C196.207 389.443 196.332 388.855 196.332 388.196C196.332 387.537 196.207 386.952 195.957 386.44C195.707 385.929 195.312 385.528 194.772 385.239C194.238 384.949 193.534 384.804 192.659 384.804H189.352V400H186.718ZM213.054 382.545H215.696V394.026C215.696 395.247 215.409 396.33 214.836 397.273C214.262 398.21 213.455 398.949 212.415 399.489C211.375 400.023 210.157 400.29 208.759 400.29C207.367 400.29 206.151 400.023 205.111 399.489C204.071 398.949 203.265 398.21 202.691 397.273C202.117 396.33 201.83 395.247 201.83 394.026V382.545H204.463V393.812C204.463 394.602 204.637 395.304 204.983 395.918C205.336 396.531 205.833 397.014 206.475 397.366C207.117 397.713 207.878 397.886 208.759 397.886C209.645 397.886 210.409 397.713 211.052 397.366C211.699 397.014 212.194 396.531 212.534 395.918C212.881 395.304 213.054 394.602 213.054 393.812V382.545Z" fill="#222222"/>
<line x1="359" y1="337" x2="359" y2="359" stroke="#222222" stroke-width="4"/>
<line x1="359" y1="98" x2="359" y2="120" stroke="#222222" stroke-width="4"/>
<line x1="631" y1="235" x2="631" y2="389" stroke="#222222" stroke-width="4"/>
<line x1="655" y1="235" x2="607" y2="235" stroke="#222222" stroke-width="4"/>
<line x1="657" y1="391" x2="629" y2="391" stroke="#222222" stroke-width="4"/>
<rect x="656" y="78" width="121" height="265" stroke="#222222" stroke-width="2" stroke-dasharray="8 10"/>
<rect x="656" y="366" width="121" height="46" stroke="#222222" stroke-width="2" stroke-dasharray="8 10"/>
<rect x="662" y="84" width="109" height="34" fill="white" stroke="black" stroke-width="2"/>
<path d="M691.127 108V93.4545H693.322V106.111H699.913V108H691.127ZM706.641 108.22C705.618 108.22 704.726 107.986 703.964 107.517C703.201 107.048 702.609 106.393 702.188 105.55C701.767 104.707 701.556 103.722 701.556 102.595C701.556 101.464 701.767 100.474 702.188 99.6264C702.609 98.7789 703.201 98.1207 703.964 97.652C704.726 97.1832 705.618 96.9489 706.641 96.9489C707.664 96.9489 708.556 97.1832 709.319 97.652C710.081 98.1207 710.673 98.7789 711.094 99.6264C711.516 100.474 711.726 101.464 711.726 102.595C711.726 103.722 711.516 104.707 711.094 105.55C710.673 106.393 710.081 107.048 709.319 107.517C708.556 107.986 707.664 108.22 706.641 108.22ZM706.648 106.438C707.311 106.438 707.86 106.262 708.296 105.912C708.732 105.562 709.053 105.095 709.262 104.513C709.475 103.93 709.581 103.289 709.581 102.588C709.581 101.892 709.475 101.253 709.262 100.67C709.053 100.083 708.732 99.6122 708.296 99.2571C707.86 98.902 707.311 98.7244 706.648 98.7244C705.981 98.7244 705.427 98.902 704.986 99.2571C704.551 99.6122 704.226 100.083 704.013 100.67C703.805 101.253 703.701 101.892 703.701 102.588C703.701 103.289 703.805 103.93 704.013 104.513C704.226 105.095 704.551 105.562 704.986 105.912C705.427 106.262 705.981 106.438 706.648 106.438ZM718.989 97.0909V98.7955H713.03V97.0909H718.989ZM714.628 94.4773H716.752V104.797C716.752 105.209 716.813 105.519 716.936 105.727C717.06 105.931 717.218 106.071 717.412 106.146C717.611 106.217 717.827 106.253 718.059 106.253C718.229 106.253 718.378 106.241 718.506 106.217C718.634 106.194 718.733 106.175 718.804 106.161L719.188 107.915C719.065 107.962 718.89 108.009 718.662 108.057C718.435 108.109 718.151 108.137 717.81 108.142C717.251 108.152 716.731 108.052 716.248 107.844C715.765 107.635 715.374 107.313 715.076 106.878C714.777 106.442 714.628 105.895 714.628 105.237V94.4773ZM726.23 97.0909V98.7955H720.272V97.0909H726.23ZM721.87 94.4773H723.993V104.797C723.993 105.209 724.055 105.519 724.178 105.727C724.301 105.931 724.46 106.071 724.654 106.146C724.853 106.217 725.068 106.253 725.3 106.253C725.47 106.253 725.62 106.241 725.747 106.217C725.875 106.194 725.975 106.175 726.046 106.161L726.429 107.915C726.306 107.962 726.131 108.009 725.904 108.057C725.676 108.109 725.392 108.137 725.051 108.142C724.493 108.152 723.972 108.052 723.489 107.844C723.006 107.635 722.615 107.313 722.317 106.878C722.019 106.442 721.87 105.895 721.87 105.237V94.4773ZM728.38 108V97.0909H730.503V108H728.38ZM729.452 95.4077C729.083 95.4077 728.765 95.2846 728.5 95.0384C728.24 94.7874 728.11 94.4891 728.11 94.1435C728.11 93.7931 728.24 93.4948 728.5 93.2486C728.765 92.9976 729.083 92.8722 729.452 92.8722C729.821 92.8722 730.136 92.9976 730.397 93.2486C730.662 93.4948 730.794 93.7931 730.794 94.1435C730.794 94.4891 730.662 94.7874 730.397 95.0384C730.136 95.2846 729.821 95.4077 729.452 95.4077ZM737.862 108.22C736.787 108.22 735.861 107.991 735.085 107.531C734.313 107.067 733.716 106.416 733.295 105.578C732.878 104.735 732.67 103.748 732.67 102.616C732.67 101.499 732.878 100.514 733.295 99.6619C733.716 98.8097 734.303 98.1444 735.056 97.6662C735.814 97.188 736.699 96.9489 737.713 96.9489C738.328 96.9489 738.925 97.0507 739.502 97.2543C740.08 97.4579 740.598 97.7775 741.058 98.2131C741.517 98.6487 741.879 99.2145 742.144 99.9105C742.41 100.602 742.542 101.442 742.542 102.432V103.185H733.87V101.594H740.461C740.461 101.035 740.347 100.54 740.12 100.109C739.893 99.6738 739.573 99.3305 739.161 99.0795C738.754 98.8286 738.276 98.7031 737.727 98.7031C737.13 98.7031 736.609 98.8499 736.164 99.1435C735.724 99.4323 735.383 99.8111 735.142 100.28C734.905 100.744 734.786 101.248 734.786 101.793V103.036C734.786 103.765 734.914 104.385 735.17 104.896C735.43 105.408 735.793 105.798 736.257 106.068C736.721 106.333 737.263 106.466 737.883 106.466C738.285 106.466 738.652 106.409 738.984 106.295C739.315 106.177 739.602 106.002 739.843 105.77C740.085 105.538 740.269 105.251 740.397 104.911L742.407 105.273C742.246 105.865 741.957 106.383 741.541 106.828C741.129 107.268 740.61 107.612 739.985 107.858C739.365 108.099 738.657 108.22 737.862 108.22Z" fill="#222222"/>
<rect x="662" y="128" width="109" height="34" fill="white" stroke="black" stroke-width="2"/>
<path d="M705.665 141.276C705.589 140.603 705.277 140.082 704.727 139.713C704.178 139.339 703.487 139.152 702.653 139.152C702.057 139.152 701.541 139.247 701.105 139.436C700.67 139.621 700.331 139.876 700.09 140.203C699.853 140.525 699.734 140.892 699.734 141.304C699.734 141.65 699.815 141.948 699.976 142.199C700.142 142.45 700.357 142.661 700.622 142.831C700.892 142.997 701.181 143.136 701.489 143.25C701.796 143.359 702.092 143.449 702.376 143.52L703.797 143.889C704.261 144.003 704.737 144.157 705.225 144.351C705.712 144.545 706.164 144.801 706.581 145.118C706.998 145.435 707.334 145.828 707.59 146.297C707.85 146.766 707.98 147.327 707.98 147.98C707.98 148.804 707.767 149.536 707.341 150.175C706.92 150.814 706.306 151.318 705.501 151.688C704.701 152.057 703.733 152.241 702.597 152.241C701.508 152.241 700.565 152.069 699.77 151.723C698.975 151.377 698.352 150.887 697.902 150.253C697.452 149.614 697.204 148.856 697.156 147.98H699.358C699.401 148.506 699.571 148.944 699.869 149.294C700.172 149.64 700.558 149.898 701.027 150.068C701.501 150.234 702.019 150.317 702.582 150.317C703.203 150.317 703.754 150.22 704.237 150.026C704.725 149.827 705.109 149.552 705.388 149.202C705.667 148.847 705.807 148.432 705.807 147.959C705.807 147.528 705.684 147.175 705.438 146.901C705.196 146.626 704.867 146.399 704.45 146.219C704.038 146.039 703.572 145.88 703.051 145.743L701.332 145.274C700.168 144.957 699.244 144.491 698.563 143.875C697.885 143.259 697.547 142.445 697.547 141.432C697.547 140.594 697.774 139.862 698.229 139.237C698.683 138.612 699.299 138.127 700.075 137.781C700.852 137.431 701.728 137.256 702.703 137.256C703.688 137.256 704.557 137.429 705.31 137.774C706.067 138.12 706.664 138.596 707.1 139.202C707.535 139.803 707.762 140.494 707.781 141.276H705.665ZM711.674 137.455L715.722 149.301H715.886L719.934 137.455H722.306L717.072 152H714.536L709.302 137.455H711.674ZM733.328 142.05C733.19 141.619 733.006 141.233 732.774 140.892C732.546 140.546 732.274 140.253 731.957 140.011C731.64 139.765 731.278 139.578 730.87 139.45C730.468 139.322 730.025 139.259 729.542 139.259C728.723 139.259 727.984 139.469 727.326 139.891C726.668 140.312 726.147 140.93 725.764 141.744C725.385 142.554 725.196 143.546 725.196 144.72C725.196 145.899 725.387 146.896 725.771 147.71C726.154 148.525 726.68 149.143 727.348 149.564C728.015 149.985 728.775 150.196 729.627 150.196C730.418 150.196 731.107 150.035 731.694 149.713C732.286 149.391 732.743 148.937 733.065 148.349C733.392 147.758 733.555 147.062 733.555 146.261L734.123 146.368H729.961V144.557H735.679V146.212C735.679 147.433 735.418 148.494 734.897 149.393C734.381 150.288 733.666 150.98 732.752 151.467C731.843 151.955 730.802 152.199 729.627 152.199C728.311 152.199 727.156 151.896 726.162 151.29C725.172 150.684 724.4 149.824 723.846 148.712C723.292 147.594 723.015 146.268 723.015 144.734C723.015 143.574 723.176 142.533 723.498 141.609C723.82 140.686 724.272 139.902 724.855 139.259C725.442 138.61 726.131 138.115 726.921 137.774C727.717 137.429 728.586 137.256 729.528 137.256C730.314 137.256 731.046 137.372 731.723 137.604C732.404 137.836 733.01 138.165 733.541 138.591C734.076 139.017 734.519 139.524 734.869 140.111C735.219 140.693 735.456 141.339 735.579 142.05H733.328Z" fill="#222222"/>
<rect x="662" y="172" width="109" height="34" fill="white" stroke="black" stroke-width="2"/>
<path d="M698.694 183.344V181.455H709.951V183.344H705.413V196H703.225V183.344H698.694ZM711.521 183.344V181.455H722.778V183.344H718.24V196H716.053V183.344H711.521ZM725.066 196V181.455H734.086V183.344H727.261V187.776H733.44V189.658H727.261V196H725.066Z" fill="#222222"/>
<rect x="662" y="216" width="109" height="34" fill="white" stroke="black" stroke-width="2"/>
<path d="M696.941 240V225.455H702.125C703.257 225.455 704.194 225.661 704.938 226.072C705.681 226.484 706.237 227.048 706.607 227.763C706.976 228.473 707.161 229.273 707.161 230.163C707.161 231.058 706.974 231.863 706.6 232.578C706.23 233.288 705.672 233.852 704.924 234.268C704.18 234.68 703.245 234.886 702.118 234.886H698.553V233.026H701.919C702.634 233.026 703.214 232.902 703.659 232.656C704.104 232.405 704.431 232.064 704.639 231.634C704.848 231.203 704.952 230.713 704.952 230.163C704.952 229.614 704.848 229.126 704.639 228.7C704.431 228.274 704.102 227.94 703.652 227.699C703.207 227.457 702.62 227.337 701.891 227.337H699.135V240H696.941ZM721.274 225.455V240H719.257L711.863 229.332H711.728V240H709.534V225.455H711.565L718.965 236.136H719.1V225.455H721.274ZM734.119 230.05C733.981 229.619 733.797 229.233 733.565 228.892C733.337 228.546 733.065 228.253 732.748 228.011C732.431 227.765 732.069 227.578 731.661 227.45C731.259 227.322 730.816 227.259 730.333 227.259C729.514 227.259 728.775 227.469 728.117 227.891C727.459 228.312 726.938 228.93 726.555 229.744C726.176 230.554 725.987 231.546 725.987 232.72C725.987 233.899 726.178 234.896 726.562 235.71C726.945 236.525 727.471 237.143 728.139 237.564C728.806 237.985 729.566 238.196 730.418 238.196C731.209 238.196 731.898 238.035 732.485 237.713C733.077 237.391 733.534 236.937 733.856 236.349C734.183 235.758 734.346 235.062 734.346 234.261L734.914 234.368H730.752V232.557H736.47V234.212C736.47 235.433 736.209 236.494 735.688 237.393C735.172 238.288 734.457 238.98 733.543 239.467C732.634 239.955 731.593 240.199 730.418 240.199C729.102 240.199 727.947 239.896 726.953 239.29C725.963 238.684 725.191 237.824 724.637 236.712C724.083 235.594 723.806 234.268 723.806 232.734C723.806 231.574 723.967 230.533 724.289 229.609C724.611 228.686 725.063 227.902 725.646 227.259C726.233 226.61 726.922 226.115 727.712 225.774C728.508 225.429 729.377 225.256 730.319 225.256C731.105 225.256 731.837 225.372 732.514 225.604C733.195 225.836 733.801 226.165 734.332 226.591C734.867 227.017 735.31 227.524 735.66 228.111C736.01 228.693 736.247 229.339 736.37 230.05H734.119Z" fill="#222222"/>
<rect x="662" y="260" width="109" height="34" fill="white" stroke="black" stroke-width="2"/>
<path d="M704.547 269.455H706.735V279.767C706.735 280.7 706.55 281.498 706.181 282.161C705.816 282.823 705.302 283.33 704.639 283.68C703.977 284.026 703.2 284.199 702.31 284.199C701.491 284.199 700.755 284.05 700.101 283.751C699.452 283.453 698.939 283.02 698.56 282.452C698.186 281.879 697.999 281.183 697.999 280.364H700.179C700.179 280.766 700.272 281.114 700.456 281.408C700.646 281.701 700.904 281.931 701.23 282.097C701.562 282.258 701.941 282.338 702.367 282.338C702.831 282.338 703.224 282.241 703.546 282.047C703.872 281.848 704.121 281.557 704.291 281.173C704.462 280.79 704.547 280.321 704.547 279.767V269.455ZM709.729 284V269.455H714.914C716.045 269.455 716.983 269.661 717.726 270.072C718.469 270.484 719.026 271.048 719.395 271.763C719.764 272.473 719.949 273.273 719.949 274.163C719.949 275.058 719.762 275.863 719.388 276.578C719.019 277.288 718.46 277.852 717.712 278.268C716.968 278.68 716.033 278.886 714.906 278.886H711.341V277.026H714.708C715.423 277.026 716.003 276.902 716.448 276.656C716.893 276.405 717.219 276.064 717.428 275.634C717.636 275.203 717.74 274.713 717.74 274.163C717.74 273.614 717.636 273.126 717.428 272.7C717.219 272.274 716.89 271.94 716.441 271.699C715.995 271.457 715.408 271.337 714.679 271.337H711.923V284H709.729ZM732.166 274.05C732.028 273.619 731.844 273.233 731.612 272.892C731.384 272.546 731.112 272.253 730.795 272.011C730.478 271.765 730.115 271.578 729.708 271.45C729.306 271.322 728.863 271.259 728.38 271.259C727.561 271.259 726.822 271.469 726.164 271.891C725.506 272.312 724.985 272.93 724.602 273.744C724.223 274.554 724.033 275.546 724.033 276.72C724.033 277.899 724.225 278.896 724.609 279.71C724.992 280.525 725.518 281.143 726.185 281.564C726.853 281.985 727.613 282.196 728.465 282.196C729.256 282.196 729.945 282.035 730.532 281.713C731.124 281.391 731.581 280.937 731.903 280.349C732.23 279.758 732.393 279.062 732.393 278.261L732.961 278.368H728.799V276.557H734.516V278.212C734.516 279.433 734.256 280.494 733.735 281.393C733.219 282.288 732.504 282.98 731.59 283.467C730.681 283.955 729.64 284.199 728.465 284.199C727.149 284.199 725.994 283.896 724.999 283.29C724.01 282.684 723.238 281.824 722.684 280.712C722.13 279.594 721.853 278.268 721.853 276.734C721.853 275.574 722.014 274.533 722.336 273.609C722.658 272.686 723.11 271.902 723.693 271.259C724.28 270.61 724.969 270.115 725.759 269.774C726.555 269.429 727.424 269.256 728.366 269.256C729.152 269.256 729.883 269.372 730.56 269.604C731.242 269.836 731.848 270.165 732.379 270.591C732.914 271.017 733.356 271.524 733.707 272.111C734.057 272.693 734.294 273.339 734.417 274.05H732.166Z" fill="#222222"/>
<rect x="662" y="304" width="109" height="34" fill="white" stroke="black" stroke-width="2"/>
<path d="M693.482 328L689.448 313.455H691.756L694.59 324.719H694.725L697.673 313.455H699.96L702.907 324.726H703.042L705.869 313.455H708.184L704.143 328H701.934L698.873 317.105H698.759L695.698 328H693.482ZM713.442 328.22C712.367 328.22 711.442 327.991 710.665 327.531C709.893 327.067 709.297 326.416 708.875 325.578C708.459 324.735 708.25 323.748 708.25 322.616C708.25 321.499 708.459 320.514 708.875 319.662C709.297 318.81 709.884 318.144 710.637 317.666C711.394 317.188 712.28 316.949 713.293 316.949C713.909 316.949 714.505 317.051 715.083 317.254C715.66 317.458 716.179 317.777 716.638 318.213C717.097 318.649 717.46 319.214 717.725 319.911C717.99 320.602 718.123 321.442 718.123 322.432V323.185H709.451V321.594H716.042C716.042 321.035 715.928 320.54 715.701 320.109C715.473 319.674 715.154 319.33 714.742 319.08C714.335 318.829 713.856 318.703 713.307 318.703C712.711 318.703 712.19 318.85 711.745 319.143C711.304 319.432 710.963 319.811 710.722 320.28C710.485 320.744 710.367 321.248 710.367 321.793V323.036C710.367 323.765 710.495 324.385 710.75 324.896C711.011 325.408 711.373 325.798 711.837 326.068C712.301 326.333 712.843 326.466 713.463 326.466C713.866 326.466 714.233 326.409 714.564 326.295C714.896 326.177 715.182 326.002 715.424 325.77C715.665 325.538 715.85 325.251 715.978 324.911L717.988 325.273C717.827 325.865 717.538 326.383 717.121 326.828C716.709 327.268 716.191 327.612 715.566 327.858C714.945 328.099 714.238 328.22 713.442 328.22ZM720.449 328V313.455H722.573V318.859H722.701C722.824 318.632 723.001 318.369 723.233 318.071C723.465 317.773 723.787 317.512 724.199 317.29C724.611 317.062 725.156 316.949 725.833 316.949C726.713 316.949 727.499 317.171 728.191 317.616C728.882 318.062 729.424 318.703 729.817 319.541C730.215 320.379 730.414 321.388 730.414 322.567C730.414 323.746 730.217 324.757 729.824 325.599C729.431 326.437 728.891 327.084 728.205 327.538C727.518 327.988 726.735 328.213 725.854 328.213C725.191 328.213 724.649 328.102 724.228 327.879C723.811 327.657 723.484 327.396 723.247 327.098C723.011 326.8 722.828 326.535 722.701 326.303H722.523V328H720.449ZM722.53 322.545C722.53 323.312 722.641 323.985 722.864 324.562C723.086 325.14 723.408 325.592 723.83 325.919C724.251 326.241 724.767 326.402 725.378 326.402C726.013 326.402 726.543 326.234 726.969 325.898C727.395 325.557 727.717 325.095 727.935 324.513C728.158 323.93 728.269 323.275 728.269 322.545C728.269 321.826 728.16 321.179 727.942 320.607C727.729 320.034 727.407 319.581 726.976 319.25C726.55 318.919 726.017 318.753 725.378 318.753C724.763 318.753 724.242 318.911 723.816 319.229C723.394 319.546 723.075 319.989 722.857 320.557C722.639 321.125 722.53 321.788 722.53 322.545ZM732.769 328V313.455H737.953C739.085 313.455 740.023 313.661 740.766 314.072C741.509 314.484 742.066 315.048 742.435 315.763C742.804 316.473 742.989 317.273 742.989 318.163C742.989 319.058 742.802 319.863 742.428 320.578C742.058 321.288 741.5 321.852 740.752 322.268C740.008 322.68 739.073 322.886 737.946 322.886H734.381V321.026H737.747C738.462 321.026 739.042 320.902 739.487 320.656C739.933 320.405 740.259 320.064 740.468 319.634C740.676 319.203 740.78 318.713 740.78 318.163C740.78 317.614 740.676 317.126 740.468 316.7C740.259 316.274 739.93 315.94 739.48 315.699C739.035 315.457 738.448 315.337 737.719 315.337H734.963V328H732.769Z" fill="#222222"/>
<rect x="662" y="372" width="109" height="34" fill="white" stroke="black" stroke-width="2"/>
<path d="M712.097 386.05C711.96 385.619 711.775 385.233 711.543 384.892C711.316 384.546 711.043 384.253 710.726 384.011C710.409 383.765 710.047 383.578 709.639 383.45C709.237 383.322 708.794 383.259 708.311 383.259C707.492 383.259 706.754 383.469 706.095 383.891C705.437 384.312 704.916 384.93 704.533 385.744C704.154 386.554 703.965 387.546 703.965 388.72C703.965 389.899 704.156 390.896 704.54 391.71C704.924 392.525 705.449 393.143 706.117 393.564C706.784 393.985 707.544 394.196 708.397 394.196C709.187 394.196 709.876 394.035 710.463 393.713C711.055 393.391 711.512 392.937 711.834 392.349C712.161 391.758 712.324 391.062 712.324 390.261L712.892 390.368H708.73V388.557H714.448V390.212C714.448 391.433 714.187 392.494 713.666 393.393C713.15 394.288 712.435 394.98 711.522 395.467C710.612 395.955 709.571 396.199 708.397 396.199C707.08 396.199 705.925 395.896 704.931 395.29C703.941 394.684 703.169 393.824 702.615 392.712C702.061 391.594 701.784 390.268 701.784 388.734C701.784 387.574 701.945 386.533 702.267 385.609C702.589 384.686 703.041 383.902 703.624 383.259C704.211 382.61 704.9 382.115 705.691 381.774C706.486 381.429 707.355 381.256 708.297 381.256C709.083 381.256 709.815 381.372 710.492 381.604C711.174 381.836 711.78 382.165 712.31 382.591C712.845 383.017 713.288 383.524 713.638 384.111C713.988 384.693 714.225 385.339 714.348 386.05H712.097ZM719.228 381.455V396H717.034V381.455H719.228ZM722.224 396V381.455H731.244V383.344H724.419V387.776H730.598V389.658H724.419V396H722.224Z" fill="#222222"/>
<rect x="263" y="50" width="81" height="32" rx="16" fill="#222222"/>
<path d="M287.329 60.8182V71H285.47L281.04 64.5916H280.966V71H278.813V60.8182H280.702L285.097 67.2216H285.187V60.8182H287.329ZM290.723 71H288.416L291.931 60.8182H294.705L298.215 71H295.908L293.358 63.1449H293.278L290.723 71ZM290.579 66.9979H296.028V68.6783H290.579V66.9979ZM297.669 62.593V60.8182H306.031V62.593H302.914V71H300.786V62.593H297.669ZM309.421 60.8182V71H307.268V60.8182H309.421ZM312.891 60.8182L315.352 68.554H315.447L317.913 60.8182H320.299L316.789 71H314.015L310.5 60.8182H312.891ZM321.385 71V60.8182H328.245V62.593H323.537V65.0192H327.892V66.794H323.537V69.2251H328.265V71H321.385Z" fill="white"/>
<rect x="512" y="50" width="81" height="32" rx="16" fill="#222222"/>
<path d="M539.65 71L536.737 60.8182H539.088L540.773 67.8928H540.858L542.717 60.8182H544.731L546.585 67.9077H546.675L548.36 60.8182H550.712L547.798 71H545.7L543.761 64.343H543.682L541.748 71H539.65ZM551.724 71V60.8182H558.585V62.593H553.877V65.0192H558.232V66.794H553.877V69.2251H558.604V71H551.724ZM560.156 71V60.8182H564.233C564.982 60.8182 565.607 60.9292 566.107 61.1513C566.608 61.3733 566.984 61.6816 567.236 62.076C567.488 62.4671 567.613 62.9179 567.613 63.4283C567.613 63.826 567.534 64.1757 567.375 64.4773C567.216 64.7756 566.997 65.0208 566.719 65.2131C566.443 65.402 566.129 65.5362 565.774 65.6158V65.7152C566.162 65.7318 566.525 65.8411 566.863 66.0433C567.204 66.2455 567.481 66.5289 567.693 66.8935C567.905 67.2547 568.011 67.6856 568.011 68.1861C568.011 68.7263 567.877 69.2086 567.608 69.6328C567.343 70.0537 566.951 70.3868 566.43 70.6321C565.91 70.8774 565.269 71 564.506 71H560.156ZM562.309 69.2401H564.064C564.664 69.2401 565.101 69.1257 565.376 68.897C565.651 68.665 565.789 68.3568 565.789 67.9723C565.789 67.6906 565.721 67.442 565.585 67.2266C565.449 67.0111 565.255 66.8421 565.003 66.7195C564.755 66.5968 564.458 66.5355 564.113 66.5355H562.309V69.2401ZM562.309 65.0788H563.905C564.2 65.0788 564.461 65.0275 564.69 64.9247C564.922 64.8187 565.104 64.6695 565.237 64.4773C565.373 64.285 565.441 64.0547 565.441 63.7862C565.441 63.4183 565.31 63.1217 565.048 62.8963C564.79 62.6709 564.422 62.5582 563.944 62.5582H562.309V65.0788Z" fill="white"/>
<path d="M52.3648 69H50.8875L55.1603 57.3636H56.6148L60.8875 69H59.4103L55.933 59.2045H55.8421L52.3648 69ZM52.9103 64.4545H58.8648V65.7045H52.9103V64.4545ZM62.62 69V57.3636H66.5518C67.4647 57.3636 68.2109 57.5284 68.7905 57.858C69.3738 58.1837 69.8056 58.625 70.0859 59.1818C70.3662 59.7386 70.5064 60.3598 70.5064 61.0455C70.5064 61.7311 70.3662 62.3542 70.0859 62.9148C69.8094 63.4754 69.3814 63.9223 68.8018 64.2557C68.2223 64.5852 67.4799 64.75 66.5746 64.75H63.7564V63.5H66.5291C67.1541 63.5 67.656 63.392 68.0348 63.1761C68.4136 62.9602 68.6882 62.6686 68.8587 62.3011C69.0329 61.9299 69.12 61.5114 69.12 61.0455C69.12 60.5795 69.0329 60.1629 68.8587 59.7955C68.6882 59.428 68.4117 59.1402 68.0291 58.9318C67.6465 58.7197 67.139 58.6136 66.5064 58.6136H64.0291V69H62.62ZM74.1054 57.3636V69H72.6963V57.3636H74.1054Z" fill="black"/>
<path d="M55.799 224H54.3899C54.3066 223.595 54.1607 223.239 53.9524 222.932C53.7478 222.625 53.4978 222.367 53.2024 222.159C52.9107 221.947 52.5869 221.788 52.2308 221.682C51.8747 221.576 51.5035 221.523 51.1172 221.523C50.4126 221.523 49.7744 221.701 49.2024 222.057C48.6342 222.413 48.1816 222.938 47.8444 223.631C47.5111 224.324 47.3444 225.174 47.3444 226.182C47.3444 227.189 47.5111 228.04 47.8444 228.733C48.1816 229.426 48.6342 229.951 49.2024 230.307C49.7744 230.663 50.4126 230.841 51.1172 230.841C51.5035 230.841 51.8747 230.788 52.2308 230.682C52.5869 230.576 52.9107 230.419 53.2024 230.21C53.4978 229.998 53.7478 229.739 53.9524 229.432C54.1607 229.121 54.3066 228.765 54.3899 228.364H55.799C55.6929 228.958 55.4997 229.491 55.2194 229.96C54.9391 230.43 54.5906 230.83 54.174 231.159C53.7573 231.485 53.2895 231.733 52.7706 231.903C52.2554 232.074 51.7043 232.159 51.1172 232.159C50.1247 232.159 49.2422 231.917 48.4694 231.432C47.6967 230.947 47.0888 230.258 46.6456 229.364C46.2024 228.47 45.9808 227.409 45.9808 226.182C45.9808 224.955 46.2024 223.894 46.6456 223C47.0888 222.106 47.6967 221.417 48.4694 220.932C49.2422 220.447 50.1247 220.205 51.1172 220.205C51.7043 220.205 52.2554 220.29 52.7706 220.46C53.2895 220.631 53.7573 220.881 54.174 221.21C54.5906 221.536 54.9391 221.934 55.2194 222.403C55.4997 222.869 55.6929 223.402 55.799 224ZM61.3596 232.182C60.5717 232.182 59.8804 231.994 59.2857 231.619C58.6948 231.244 58.2327 230.72 57.8994 230.045C57.5698 229.371 57.4051 228.583 57.4051 227.682C57.4051 226.773 57.5698 225.979 57.8994 225.301C58.2327 224.623 58.6948 224.097 59.2857 223.722C59.8804 223.347 60.5717 223.159 61.3596 223.159C62.1475 223.159 62.8369 223.347 63.4278 223.722C64.0225 224.097 64.4846 224.623 64.8141 225.301C65.1475 225.979 65.3141 226.773 65.3141 227.682C65.3141 228.583 65.1475 229.371 64.8141 230.045C64.4846 230.72 64.0225 231.244 63.4278 231.619C62.8369 231.994 62.1475 232.182 61.3596 232.182ZM61.3596 230.977C61.9581 230.977 62.4505 230.824 62.8369 230.517C63.2232 230.21 63.5092 229.807 63.6948 229.307C63.8804 228.807 63.9732 228.265 63.9732 227.682C63.9732 227.098 63.8804 226.555 63.6948 226.051C63.5092 225.547 63.2232 225.14 62.8369 224.83C62.4505 224.519 61.9581 224.364 61.3596 224.364C60.7611 224.364 60.2687 224.519 59.8823 224.83C59.496 225.14 59.21 225.547 59.0244 226.051C58.8388 226.555 58.746 227.098 58.746 227.682C58.746 228.265 58.8388 228.807 59.0244 229.307C59.21 229.807 59.496 230.21 59.8823 230.517C60.2687 230.824 60.7611 230.977 61.3596 230.977ZM67.281 232V223.273H68.5765V224.591H68.6674C68.8265 224.159 69.1144 223.809 69.531 223.54C69.9477 223.271 70.4174 223.136 70.9401 223.136C71.0386 223.136 71.1617 223.138 71.3094 223.142C71.4572 223.146 71.5689 223.152 71.6447 223.159V224.523C71.5992 224.511 71.495 224.494 71.3322 224.472C71.1731 224.445 71.0045 224.432 70.8265 224.432C70.4022 224.432 70.0234 224.521 69.6901 224.699C69.3606 224.873 69.0992 225.116 68.906 225.426C68.7166 225.733 68.6219 226.083 68.6219 226.477V232H67.281ZM76.5476 232.182C75.7067 232.182 74.9813 231.996 74.3715 231.625C73.7654 231.25 73.2976 230.727 72.9681 230.057C72.6423 229.383 72.4794 228.598 72.4794 227.705C72.4794 226.811 72.6423 226.023 72.9681 225.341C73.2976 224.655 73.7559 224.121 74.3431 223.739C74.934 223.352 75.6234 223.159 76.4113 223.159C76.8658 223.159 77.3147 223.235 77.7578 223.386C78.201 223.538 78.6044 223.784 78.9681 224.125C79.3317 224.462 79.6215 224.909 79.8374 225.466C80.0533 226.023 80.1613 226.708 80.1613 227.523V228.091H73.434V226.932H78.7976C78.7976 226.439 78.6991 226 78.5022 225.614C78.309 225.227 78.0325 224.922 77.6726 224.699C77.3166 224.475 76.8961 224.364 76.4113 224.364C75.8772 224.364 75.415 224.496 75.0249 224.761C74.6385 225.023 74.3412 225.364 74.1328 225.784C73.9245 226.205 73.8203 226.655 73.8203 227.136V227.909C73.8203 228.568 73.934 229.127 74.1613 229.585C74.3923 230.04 74.7124 230.386 75.1215 230.625C75.5306 230.86 76.0059 230.977 76.5476 230.977C76.8999 230.977 77.2181 230.928 77.5022 230.83C77.79 230.727 78.0381 230.576 78.2465 230.375C78.4548 230.17 78.6158 229.917 78.7294 229.614L80.0249 229.977C79.8885 230.417 79.6594 230.803 79.3374 231.136C79.0154 231.466 78.6177 231.723 78.1442 231.909C77.6707 232.091 77.1385 232.182 76.5476 232.182Z" fill="black"/>
<path d="M804.41 386.273C804.342 385.697 804.066 385.25 803.581 384.932C803.096 384.614 802.501 384.455 801.797 384.455C801.281 384.455 800.831 384.538 800.444 384.705C800.062 384.871 799.763 385.1 799.547 385.392C799.334 385.684 799.228 386.015 799.228 386.386C799.228 386.697 799.302 386.964 799.45 387.188C799.602 387.407 799.795 387.591 800.03 387.739C800.264 387.883 800.511 388.002 800.768 388.097C801.026 388.187 801.263 388.261 801.478 388.318L802.66 388.636C802.963 388.716 803.3 388.826 803.672 388.966C804.047 389.106 804.405 389.297 804.745 389.54C805.09 389.778 805.374 390.085 805.598 390.46C805.821 390.835 805.933 391.295 805.933 391.841C805.933 392.47 805.768 393.038 805.439 393.545C805.113 394.053 804.636 394.456 804.007 394.756C803.382 395.055 802.622 395.205 801.728 395.205C800.895 395.205 800.173 395.07 799.564 394.801C798.958 394.532 798.48 394.157 798.132 393.676C797.787 393.195 797.592 392.636 797.547 392H799.001C799.039 392.439 799.187 392.803 799.444 393.091C799.706 393.375 800.035 393.587 800.433 393.727C800.834 393.864 801.266 393.932 801.728 393.932C802.266 393.932 802.749 393.845 803.177 393.67C803.605 393.492 803.944 393.246 804.194 392.932C804.444 392.614 804.569 392.242 804.569 391.818C804.569 391.432 804.461 391.117 804.245 390.875C804.03 390.633 803.745 390.436 803.393 390.284C803.041 390.133 802.66 390 802.251 389.886L800.819 389.477C799.91 389.216 799.191 388.843 798.66 388.358C798.13 387.873 797.865 387.239 797.865 386.455C797.865 385.803 798.041 385.235 798.393 384.75C798.749 384.261 799.227 383.883 799.825 383.614C800.427 383.341 801.1 383.205 801.842 383.205C802.592 383.205 803.259 383.339 803.842 383.608C804.425 383.873 804.888 384.237 805.228 384.699C805.573 385.161 805.755 385.686 805.774 386.273H804.41ZM810.556 395.205C810.003 395.205 809.501 395.1 809.05 394.892C808.6 394.68 808.242 394.375 807.977 393.977C807.711 393.576 807.579 393.091 807.579 392.523C807.579 392.023 807.677 391.617 807.874 391.307C808.071 390.992 808.334 390.746 808.664 390.568C808.994 390.39 809.357 390.258 809.755 390.17C810.156 390.08 810.56 390.008 810.965 389.955C811.495 389.886 811.925 389.835 812.255 389.801C812.588 389.763 812.831 389.701 812.982 389.614C813.138 389.527 813.215 389.375 813.215 389.159V389.114C813.215 388.553 813.062 388.117 812.755 387.807C812.452 387.496 811.992 387.341 811.374 387.341C810.734 387.341 810.232 387.481 809.869 387.761C809.505 388.042 809.249 388.341 809.102 388.659L807.829 388.205C808.056 387.674 808.359 387.261 808.738 386.966C809.12 386.667 809.537 386.458 809.988 386.341C810.442 386.22 810.889 386.159 811.329 386.159C811.609 386.159 811.931 386.193 812.295 386.261C812.662 386.326 813.016 386.46 813.357 386.665C813.702 386.869 813.988 387.178 814.215 387.591C814.442 388.004 814.556 388.557 814.556 389.25V395H813.215V393.818H813.147C813.056 394.008 812.905 394.21 812.692 394.426C812.48 394.642 812.198 394.826 811.846 394.977C811.494 395.129 811.064 395.205 810.556 395.205ZM810.761 394C811.291 394 811.738 393.896 812.102 393.688C812.469 393.479 812.745 393.21 812.931 392.881C813.12 392.551 813.215 392.205 813.215 391.841V390.614C813.158 390.682 813.033 390.744 812.84 390.801C812.651 390.854 812.431 390.902 812.181 390.943C811.935 390.981 811.694 391.015 811.459 391.045C811.228 391.072 811.041 391.095 810.897 391.114C810.549 391.159 810.223 391.233 809.92 391.335C809.62 391.434 809.378 391.583 809.192 391.784C809.011 391.981 808.92 392.25 808.92 392.591C808.92 393.057 809.092 393.409 809.437 393.648C809.785 393.883 810.227 394 810.761 394ZM823.747 386.273L820.52 395H819.156L815.929 386.273H817.384L819.793 393.227H819.884L822.293 386.273H823.747ZM828.784 395.182C827.943 395.182 827.218 394.996 826.608 394.625C826.002 394.25 825.534 393.727 825.204 393.057C824.879 392.383 824.716 391.598 824.716 390.705C824.716 389.811 824.879 389.023 825.204 388.341C825.534 387.655 825.992 387.121 826.579 386.739C827.17 386.352 827.86 386.159 828.647 386.159C829.102 386.159 829.551 386.235 829.994 386.386C830.437 386.538 830.841 386.784 831.204 387.125C831.568 387.462 831.858 387.909 832.074 388.466C832.29 389.023 832.397 389.708 832.397 390.523V391.091H825.67V389.932H831.034C831.034 389.439 830.935 389 830.738 388.614C830.545 388.227 830.269 387.922 829.909 387.699C829.553 387.475 829.132 387.364 828.647 387.364C828.113 387.364 827.651 387.496 827.261 387.761C826.875 388.023 826.577 388.364 826.369 388.784C826.161 389.205 826.057 389.655 826.057 390.136V390.909C826.057 391.568 826.17 392.127 826.397 392.585C826.629 393.04 826.949 393.386 827.358 393.625C827.767 393.86 828.242 393.977 828.784 393.977C829.136 393.977 829.454 393.928 829.738 393.83C830.026 393.727 830.274 393.576 830.483 393.375C830.691 393.17 830.852 392.917 830.966 392.614L832.261 392.977C832.125 393.417 831.896 393.803 831.574 394.136C831.252 394.466 830.854 394.723 830.38 394.909C829.907 395.091 829.375 395.182 828.784 395.182ZM834.357 395V386.273H835.653V387.591H835.744C835.903 387.159 836.191 386.809 836.607 386.54C837.024 386.271 837.494 386.136 838.016 386.136C838.115 386.136 838.238 386.138 838.386 386.142C838.533 386.146 838.645 386.152 838.721 386.159V387.523C838.675 387.511 838.571 387.494 838.408 387.472C838.249 387.445 838.081 387.432 837.903 387.432C837.478 387.432 837.1 387.521 836.766 387.699C836.437 387.873 836.175 388.116 835.982 388.426C835.793 388.733 835.698 389.083 835.698 389.477V395H834.357ZM846.412 388.227L845.208 388.568C845.132 388.367 845.02 388.172 844.872 387.983C844.729 387.79 844.532 387.631 844.282 387.506C844.032 387.381 843.711 387.318 843.321 387.318C842.787 387.318 842.342 387.441 841.986 387.688C841.634 387.93 841.458 388.239 841.458 388.614C841.458 388.947 841.579 389.21 841.821 389.403C842.064 389.597 842.443 389.758 842.958 389.886L844.253 390.205C845.033 390.394 845.615 390.684 845.997 391.074C846.38 391.46 846.571 391.958 846.571 392.568C846.571 393.068 846.427 393.515 846.139 393.909C845.855 394.303 845.458 394.614 844.946 394.841C844.435 395.068 843.84 395.182 843.162 395.182C842.272 395.182 841.535 394.989 840.952 394.602C840.369 394.216 839.999 393.652 839.844 392.909L841.117 392.591C841.238 393.061 841.467 393.413 841.804 393.648C842.145 393.883 842.59 394 843.139 394C843.764 394 844.261 393.867 844.628 393.602C844.999 393.333 845.185 393.011 845.185 392.636C845.185 392.333 845.079 392.08 844.867 391.875C844.655 391.667 844.329 391.511 843.889 391.409L842.435 391.068C841.636 390.879 841.049 390.585 840.674 390.188C840.302 389.786 840.117 389.284 840.117 388.682C840.117 388.189 840.255 387.754 840.532 387.375C840.812 386.996 841.193 386.699 841.674 386.483C842.158 386.267 842.708 386.159 843.321 386.159C844.185 386.159 844.863 386.348 845.355 386.727C845.852 387.106 846.204 387.606 846.412 388.227Z" fill="black"/>
<path d="M796.087 242V230.364H797.496V240.75H802.905V242H796.087ZM808.37 242.182C807.582 242.182 806.891 241.994 806.296 241.619C805.705 241.244 805.243 240.72 804.91 240.045C804.58 239.371 804.416 238.583 804.416 237.682C804.416 236.773 804.58 235.979 804.91 235.301C805.243 234.623 805.705 234.097 806.296 233.722C806.891 233.347 807.582 233.159 808.37 233.159C809.158 233.159 809.848 233.347 810.438 233.722C811.033 234.097 811.495 234.623 811.825 235.301C812.158 235.979 812.325 236.773 812.325 237.682C812.325 238.583 812.158 239.371 811.825 240.045C811.495 240.72 811.033 241.244 810.438 241.619C809.848 241.994 809.158 242.182 808.37 242.182ZM808.37 240.977C808.969 240.977 809.461 240.824 809.847 240.517C810.234 240.21 810.52 239.807 810.705 239.307C810.891 238.807 810.984 238.265 810.984 237.682C810.984 237.098 810.891 236.555 810.705 236.051C810.52 235.547 810.234 235.14 809.847 234.83C809.461 234.519 808.969 234.364 808.37 234.364C807.772 234.364 807.279 234.519 806.893 234.83C806.507 235.14 806.221 235.547 806.035 236.051C805.849 236.555 805.757 237.098 805.757 237.682C805.757 238.265 805.849 238.807 806.035 239.307C806.221 239.807 806.507 240.21 806.893 240.517C807.279 240.824 807.772 240.977 808.37 240.977ZM816.86 242.205C816.307 242.205 815.805 242.1 815.354 241.892C814.903 241.68 814.545 241.375 814.28 240.977C814.015 240.576 813.883 240.091 813.883 239.523C813.883 239.023 813.981 238.617 814.178 238.307C814.375 237.992 814.638 237.746 814.968 237.568C815.297 237.39 815.661 237.258 816.059 237.17C816.46 237.08 816.864 237.008 817.269 236.955C817.799 236.886 818.229 236.835 818.559 236.801C818.892 236.763 819.134 236.701 819.286 236.614C819.441 236.527 819.519 236.375 819.519 236.159V236.114C819.519 235.553 819.366 235.117 819.059 234.807C818.756 234.496 818.295 234.341 817.678 234.341C817.038 234.341 816.536 234.481 816.172 234.761C815.809 235.042 815.553 235.341 815.405 235.659L814.133 235.205C814.36 234.674 814.663 234.261 815.042 233.966C815.424 233.667 815.841 233.458 816.292 233.341C816.746 233.22 817.193 233.159 817.633 233.159C817.913 233.159 818.235 233.193 818.598 233.261C818.966 233.326 819.32 233.46 819.661 233.665C820.006 233.869 820.292 234.178 820.519 234.591C820.746 235.004 820.86 235.557 820.86 236.25V242H819.519V240.818H819.451C819.36 241.008 819.208 241.21 818.996 241.426C818.784 241.642 818.502 241.826 818.15 241.977C817.797 242.129 817.367 242.205 816.86 242.205ZM817.064 241C817.595 241 818.042 240.896 818.405 240.688C818.773 240.479 819.049 240.21 819.235 239.881C819.424 239.551 819.519 239.205 819.519 238.841V237.614C819.462 237.682 819.337 237.744 819.144 237.801C818.955 237.854 818.735 237.902 818.485 237.943C818.239 237.981 817.998 238.015 817.763 238.045C817.532 238.072 817.345 238.095 817.201 238.114C816.852 238.159 816.526 238.233 816.223 238.335C815.924 238.434 815.682 238.583 815.496 238.784C815.314 238.981 815.223 239.25 815.223 239.591C815.223 240.057 815.396 240.409 815.741 240.648C816.089 240.883 816.53 241 817.064 241ZM826.523 242.182C825.795 242.182 825.153 241.998 824.597 241.631C824.04 241.259 823.604 240.737 823.29 240.062C822.975 239.384 822.818 238.583 822.818 237.659C822.818 236.742 822.975 235.947 823.29 235.273C823.604 234.598 824.042 234.078 824.602 233.71C825.163 233.343 825.811 233.159 826.545 233.159C827.114 233.159 827.563 233.254 827.892 233.443C828.225 233.629 828.479 233.841 828.653 234.08C828.831 234.314 828.97 234.508 829.068 234.659H829.182V230.364H830.523V242H829.227V240.659H829.068C828.97 240.818 828.83 241.019 828.648 241.261C828.466 241.5 828.206 241.714 827.869 241.903C827.532 242.089 827.083 242.182 826.523 242.182ZM826.705 240.977C827.242 240.977 827.697 240.837 828.068 240.557C828.439 240.273 828.722 239.881 828.915 239.381C829.108 238.877 829.205 238.295 829.205 237.636C829.205 236.985 829.11 236.415 828.92 235.926C828.731 235.434 828.451 235.051 828.08 234.778C827.708 234.502 827.25 234.364 826.705 234.364C826.136 234.364 825.663 234.509 825.284 234.801C824.909 235.089 824.627 235.481 824.438 235.977C824.252 236.47 824.159 237.023 824.159 237.636C824.159 238.258 824.254 238.822 824.443 239.33C824.636 239.833 824.92 240.235 825.295 240.534C825.674 240.83 826.144 240.977 826.705 240.977ZM836.744 242.182C835.903 242.182 835.178 241.996 834.568 241.625C833.962 241.25 833.494 240.727 833.164 240.057C832.839 239.383 832.676 238.598 832.676 237.705C832.676 236.811 832.839 236.023 833.164 235.341C833.494 234.655 833.952 234.121 834.539 233.739C835.13 233.352 835.82 233.159 836.607 233.159C837.062 233.159 837.511 233.235 837.954 233.386C838.397 233.538 838.801 233.784 839.164 234.125C839.528 234.462 839.818 234.909 840.034 235.466C840.25 236.023 840.357 236.708 840.357 237.523V238.091H833.63V236.932H838.994C838.994 236.439 838.895 236 838.698 235.614C838.505 235.227 838.229 234.922 837.869 234.699C837.513 234.475 837.092 234.364 836.607 234.364C836.073 234.364 835.611 234.496 835.221 234.761C834.835 235.023 834.537 235.364 834.329 235.784C834.121 236.205 834.017 236.655 834.017 237.136V237.909C834.017 238.568 834.13 239.127 834.357 239.585C834.589 240.04 834.909 240.386 835.318 240.625C835.727 240.86 836.202 240.977 836.744 240.977C837.096 240.977 837.414 240.928 837.698 240.83C837.986 240.727 838.234 240.576 838.443 240.375C838.651 240.17 838.812 239.917 838.926 239.614L840.221 239.977C840.085 240.417 839.856 240.803 839.534 241.136C839.212 241.466 838.814 241.723 838.34 241.909C837.867 242.091 837.335 242.182 836.744 242.182ZM842.317 242V233.273H843.613V234.591H843.704C843.863 234.159 844.151 233.809 844.567 233.54C844.984 233.271 845.454 233.136 845.976 233.136C846.075 233.136 846.198 233.138 846.346 233.142C846.493 233.146 846.605 233.152 846.681 233.159V234.523C846.635 234.511 846.531 234.494 846.368 234.472C846.209 234.445 846.041 234.432 845.863 234.432C845.438 234.432 845.06 234.521 844.726 234.699C844.397 234.873 844.135 235.116 843.942 235.426C843.753 235.733 843.658 236.083 843.658 236.477V242H842.317ZM854.372 235.227L853.168 235.568C853.092 235.367 852.98 235.172 852.832 234.983C852.689 234.79 852.492 234.631 852.242 234.506C851.992 234.381 851.671 234.318 851.281 234.318C850.747 234.318 850.302 234.441 849.946 234.688C849.594 234.93 849.418 235.239 849.418 235.614C849.418 235.947 849.539 236.21 849.781 236.403C850.024 236.597 850.403 236.758 850.918 236.886L852.213 237.205C852.993 237.394 853.575 237.684 853.957 238.074C854.34 238.46 854.531 238.958 854.531 239.568C854.531 240.068 854.387 240.515 854.099 240.909C853.815 241.303 853.418 241.614 852.906 241.841C852.395 242.068 851.8 242.182 851.122 242.182C850.232 242.182 849.495 241.989 848.912 241.602C848.329 241.216 847.959 240.652 847.804 239.909L849.077 239.591C849.198 240.061 849.427 240.413 849.764 240.648C850.105 240.883 850.55 241 851.099 241C851.724 241 852.221 240.867 852.588 240.602C852.959 240.333 853.145 240.011 853.145 239.636C853.145 239.333 853.039 239.08 852.827 238.875C852.615 238.667 852.289 238.511 851.849 238.409L850.395 238.068C849.596 237.879 849.009 237.585 848.634 237.188C848.262 236.786 848.077 236.284 848.077 235.682C848.077 235.189 848.215 234.754 848.492 234.375C848.772 233.996 849.153 233.699 849.634 233.483C850.118 233.267 850.668 233.159 851.281 233.159C852.145 233.159 852.823 233.348 853.315 233.727C853.812 234.106 854.164 234.606 854.372 235.227Z" fill="black"/>
<path d="M37.3122 387V375.364H41.244C42.1531 375.364 42.8993 375.519 43.4827 375.83C44.066 376.136 44.4978 376.559 44.7781 377.097C45.0584 377.634 45.1986 378.246 45.1986 378.932C45.1986 379.617 45.0584 380.225 44.7781 380.756C44.4978 381.286 44.0679 381.703 43.4884 382.006C42.9088 382.305 42.1683 382.455 41.2668 382.455H38.0849V381.182H41.2213C41.8425 381.182 42.3425 381.091 42.7213 380.909C43.1039 380.727 43.3804 380.47 43.5509 380.136C43.7251 379.799 43.8122 379.398 43.8122 378.932C43.8122 378.466 43.7251 378.059 43.5509 377.71C43.3766 377.362 43.0982 377.093 42.7156 376.903C42.3331 376.71 41.8274 376.614 41.1986 376.614H38.7213V387H37.3122ZM42.7895 381.773L45.6531 387H44.0168L41.1986 381.773H42.7895ZM49.853 387.205C49.2999 387.205 48.798 387.1 48.3473 386.892C47.8965 386.68 47.5386 386.375 47.2734 385.977C47.0083 385.576 46.8757 385.091 46.8757 384.523C46.8757 384.023 46.9742 383.617 47.1711 383.307C47.3681 382.992 47.6314 382.746 47.9609 382.568C48.2905 382.39 48.6541 382.258 49.0518 382.17C49.4533 382.08 49.8567 382.008 50.262 381.955C50.7924 381.886 51.2223 381.835 51.5518 381.801C51.8852 381.763 52.1276 381.701 52.2791 381.614C52.4344 381.527 52.512 381.375 52.512 381.159V381.114C52.512 380.553 52.3586 380.117 52.0518 379.807C51.7488 379.496 51.2886 379.341 50.6711 379.341C50.031 379.341 49.5291 379.481 49.1655 379.761C48.8018 380.042 48.5461 380.341 48.3984 380.659L47.1257 380.205C47.353 379.674 47.656 379.261 48.0348 378.966C48.4174 378.667 48.834 378.458 49.2848 378.341C49.7393 378.22 50.1863 378.159 50.6257 378.159C50.906 378.159 51.228 378.193 51.5916 378.261C51.959 378.326 52.3132 378.46 52.6541 378.665C52.9988 378.869 53.2848 379.178 53.512 379.591C53.7393 380.004 53.853 380.557 53.853 381.25V387H52.512V385.818H52.4439C52.353 386.008 52.2014 386.21 51.9893 386.426C51.7772 386.642 51.495 386.826 51.1427 386.977C50.7905 387.129 50.3605 387.205 49.853 387.205ZM50.0575 386C50.5878 386 51.0348 385.896 51.3984 385.688C51.7658 385.479 52.0424 385.21 52.228 384.881C52.4174 384.551 52.512 384.205 52.512 383.841V382.614C52.4552 382.682 52.3302 382.744 52.137 382.801C51.9477 382.854 51.728 382.902 51.478 382.943C51.2317 382.981 50.9912 383.015 50.7564 383.045C50.5253 383.072 50.3378 383.095 50.1939 383.114C49.8454 383.159 49.5196 383.233 49.2166 383.335C48.9174 383.434 48.6749 383.583 48.4893 383.784C48.3075 383.981 48.2166 384.25 48.2166 384.591C48.2166 385.057 48.3889 385.409 48.7336 385.648C49.0821 385.883 49.5234 386 50.0575 386ZM62.4022 380.227L61.1977 380.568C61.1219 380.367 61.0102 380.172 60.8624 379.983C60.7185 379.79 60.5215 379.631 60.2715 379.506C60.0215 379.381 59.7015 379.318 59.3113 379.318C58.7772 379.318 58.3321 379.441 57.9761 379.688C57.6238 379.93 57.4477 380.239 57.4477 380.614C57.4477 380.947 57.5689 381.21 57.8113 381.403C58.0537 381.597 58.4325 381.758 58.9477 381.886L60.2431 382.205C61.0234 382.394 61.6049 382.684 61.9874 383.074C62.37 383.46 62.5613 383.958 62.5613 384.568C62.5613 385.068 62.4174 385.515 62.1295 385.909C61.8454 386.303 61.4477 386.614 60.9363 386.841C60.4249 387.068 59.8302 387.182 59.1522 387.182C58.2621 387.182 57.5253 386.989 56.942 386.602C56.3587 386.216 55.9893 385.652 55.834 384.909L57.1068 384.591C57.228 385.061 57.4571 385.413 57.7943 385.648C58.1352 385.883 58.5802 386 59.1295 386C59.7545 386 60.2507 385.867 60.6181 385.602C60.9893 385.333 61.1749 385.011 61.1749 384.636C61.1749 384.333 61.0689 384.08 60.8568 383.875C60.6446 383.667 60.3189 383.511 59.8795 383.409L58.4249 383.068C57.6257 382.879 57.0386 382.585 56.6636 382.188C56.2924 381.786 56.1068 381.284 56.1068 380.682C56.1068 380.189 56.245 379.754 56.5215 379.375C56.8018 378.996 57.1825 378.699 57.6636 378.483C58.1484 378.267 58.6977 378.159 59.3113 378.159C60.1749 378.159 60.853 378.348 61.3454 378.727C61.8416 379.106 62.1939 379.606 62.4022 380.227ZM68.2952 378.273V379.409H63.7725V378.273H68.2952ZM65.0907 376.182H66.4316V384.5C66.4316 384.879 66.4865 385.163 66.5964 385.352C66.71 385.538 66.8539 385.663 67.0282 385.727C67.2062 385.788 67.3937 385.818 67.5907 385.818C67.7384 385.818 67.8596 385.811 67.9543 385.795C68.049 385.777 68.1248 385.761 68.1816 385.75L68.4543 386.955C68.3634 386.989 68.2365 387.023 68.0736 387.057C67.9108 387.095 67.7043 387.114 67.4543 387.114C67.0755 387.114 66.7043 387.032 66.3407 386.869C65.9808 386.706 65.6816 386.458 65.443 386.125C65.2081 385.792 65.0907 385.371 65.0907 384.864V376.182ZM73.7976 387.182C72.9567 387.182 72.2313 386.996 71.6215 386.625C71.0154 386.25 70.5476 385.727 70.2181 385.057C69.8923 384.383 69.7294 383.598 69.7294 382.705C69.7294 381.811 69.8923 381.023 70.2181 380.341C70.5476 379.655 71.0059 379.121 71.5931 378.739C72.184 378.352 72.8734 378.159 73.6613 378.159C74.1158 378.159 74.5647 378.235 75.0078 378.386C75.451 378.538 75.8544 378.784 76.2181 379.125C76.5817 379.462 76.8715 379.909 77.0874 380.466C77.3033 381.023 77.4113 381.708 77.4113 382.523V383.091H70.684V381.932H76.0476C76.0476 381.439 75.9491 381 75.7522 380.614C75.559 380.227 75.2825 379.922 74.9226 379.699C74.5666 379.475 74.1461 379.364 73.6613 379.364C73.1272 379.364 72.665 379.496 72.2749 379.761C71.8885 380.023 71.5912 380.364 71.3828 380.784C71.1745 381.205 71.0703 381.655 71.0703 382.136V382.909C71.0703 383.568 71.184 384.127 71.4113 384.585C71.6423 385.04 71.9624 385.386 72.3715 385.625C72.7806 385.86 73.2559 385.977 73.7976 385.977C74.1499 385.977 74.4681 385.928 74.7522 385.83C75.04 385.727 75.2881 385.576 75.4965 385.375C75.7048 385.17 75.8658 384.917 75.9794 384.614L77.2749 384.977C77.1385 385.417 76.9094 385.803 76.5874 386.136C76.2654 386.466 75.8677 386.723 75.3942 386.909C74.9207 387.091 74.3885 387.182 73.7976 387.182ZM79.371 387V378.273H80.6665V379.591H80.7574C80.9165 379.159 81.2044 378.809 81.621 378.54C82.0377 378.271 82.5074 378.136 83.0301 378.136C83.1286 378.136 83.2517 378.138 83.3994 378.142C83.5472 378.146 83.6589 378.152 83.7347 378.159V379.523C83.6892 379.511 83.585 379.494 83.4222 379.472C83.2631 379.445 83.0945 379.432 82.9165 379.432C82.4922 379.432 82.1135 379.521 81.7801 379.699C81.4506 379.873 81.1892 380.116 80.996 380.426C80.8066 380.733 80.7119 381.083 80.7119 381.477V387H79.371ZM24.8532 406V394.364H28.9213C29.7319 394.364 30.4005 394.504 30.927 394.784C31.4535 395.061 31.8456 395.434 32.1032 395.903C32.3607 396.369 32.4895 396.886 32.4895 397.455C32.4895 397.955 32.4005 398.367 32.2225 398.693C32.0482 399.019 31.8172 399.277 31.5293 399.466C31.2452 399.655 30.9365 399.795 30.6032 399.886V400C30.9592 400.023 31.3172 400.148 31.677 400.375C32.0369 400.602 32.338 400.928 32.5804 401.352C32.8228 401.777 32.9441 402.295 32.9441 402.909C32.9441 403.492 32.8115 404.017 32.5463 404.483C32.2812 404.949 31.8626 405.318 31.2907 405.591C30.7187 405.864 29.9744 406 29.0577 406H24.8532ZM26.2622 404.75H29.0577C29.9782 404.75 30.6316 404.572 31.0179 404.216C31.4081 403.856 31.6032 403.42 31.6032 402.909C31.6032 402.515 31.5028 402.152 31.302 401.818C31.1013 401.481 30.8153 401.212 30.4441 401.011C30.0728 400.807 29.6335 400.705 29.1259 400.705H26.2622V404.75ZM26.2622 399.477H28.8759C29.3001 399.477 29.6827 399.394 30.0236 399.227C30.3683 399.061 30.641 398.826 30.8418 398.523C31.0463 398.22 31.1486 397.864 31.1486 397.455C31.1486 396.943 30.9706 396.509 30.6145 396.153C30.2585 395.794 29.6941 395.614 28.9213 395.614H26.2622V399.477ZM37.5658 406.205C37.0127 406.205 36.5108 406.1 36.0601 405.892C35.6093 405.68 35.2514 405.375 34.9862 404.977C34.7211 404.576 34.5885 404.091 34.5885 403.523C34.5885 403.023 34.687 402.617 34.8839 402.307C35.0809 401.992 35.3442 401.746 35.6737 401.568C36.0033 401.39 36.3669 401.258 36.7646 401.17C37.1661 401.08 37.5696 401.008 37.9749 400.955C38.5052 400.886 38.9351 400.835 39.2646 400.801C39.598 400.763 39.8404 400.701 39.9919 400.614C40.1472 400.527 40.2249 400.375 40.2249 400.159V400.114C40.2249 399.553 40.0714 399.117 39.7646 398.807C39.4616 398.496 39.0014 398.341 38.3839 398.341C37.7438 398.341 37.2419 398.481 36.8783 398.761C36.5146 399.042 36.2589 399.341 36.1112 399.659L34.8385 399.205C35.0658 398.674 35.3688 398.261 35.7476 397.966C36.1302 397.667 36.5468 397.458 36.9976 397.341C37.4521 397.22 37.8991 397.159 38.3385 397.159C38.6188 397.159 38.9408 397.193 39.3044 397.261C39.6718 397.326 40.026 397.46 40.3669 397.665C40.7116 397.869 40.9976 398.178 41.2249 398.591C41.4521 399.004 41.5658 399.557 41.5658 400.25V406H40.2249V404.818H40.1567C40.0658 405.008 39.9143 405.21 39.7021 405.426C39.49 405.642 39.2078 405.826 38.8555 405.977C38.5033 406.129 38.0733 406.205 37.5658 406.205ZM37.7703 405C38.3006 405 38.7476 404.896 39.1112 404.688C39.4786 404.479 39.7552 404.21 39.9408 403.881C40.1302 403.551 40.2249 403.205 40.2249 402.841V401.614C40.168 401.682 40.043 401.744 39.8499 401.801C39.6605 401.854 39.4408 401.902 39.1908 401.943C38.9446 401.981 38.704 402.015 38.4692 402.045C38.2381 402.072 38.0506 402.095 37.9067 402.114C37.5582 402.159 37.2324 402.233 36.9294 402.335C36.6302 402.434 36.3877 402.583 36.2021 402.784C36.0203 402.981 35.9294 403.25 35.9294 403.591C35.9294 404.057 36.1018 404.409 36.4464 404.648C36.7949 404.883 37.2362 405 37.7703 405ZM47.4787 406.182C46.6605 406.182 45.9559 405.989 45.365 405.602C44.7741 405.216 44.3196 404.684 44.0014 404.006C43.6832 403.328 43.5241 402.553 43.5241 401.682C43.5241 400.795 43.687 400.013 44.0128 399.335C44.3423 398.653 44.8006 398.121 45.3878 397.739C45.9787 397.352 46.6681 397.159 47.4559 397.159C48.0696 397.159 48.6226 397.273 49.115 397.5C49.6075 397.727 50.0109 398.045 50.3253 398.455C50.6396 398.864 50.8347 399.341 50.9105 399.886H49.5696C49.4673 399.489 49.24 399.136 48.8878 398.83C48.5393 398.519 48.0696 398.364 47.4787 398.364C46.9559 398.364 46.4976 398.5 46.1037 398.773C45.7135 399.042 45.4086 399.422 45.1889 399.915C44.973 400.403 44.865 400.977 44.865 401.636C44.865 402.311 44.9711 402.898 45.1832 403.398C45.3991 403.898 45.7021 404.286 46.0923 404.562C46.4862 404.839 46.9484 404.977 47.4787 404.977C47.8271 404.977 48.1434 404.917 48.4275 404.795C48.7116 404.674 48.9521 404.5 49.1491 404.273C49.3461 404.045 49.4862 403.773 49.5696 403.455H50.9105C50.8347 403.97 50.6472 404.434 50.348 404.847C50.0525 405.256 49.6605 405.581 49.1718 405.824C48.687 406.062 48.1226 406.182 47.4787 406.182ZM54.0407 402.818L54.018 401.159H54.2907L58.1089 397.273H59.768L55.6998 401.386H55.5862L54.0407 402.818ZM52.7907 406V394.364H54.1316V406H52.7907ZM58.3362 406L54.9271 401.682L55.8816 400.75L60.0407 406H58.3362ZM64.7136 406.182C63.8726 406.182 63.1473 405.996 62.5374 405.625C61.9314 405.25 61.4636 404.727 61.134 404.057C60.8082 403.383 60.6454 402.598 60.6454 401.705C60.6454 400.811 60.8082 400.023 61.134 399.341C61.4636 398.655 61.9219 398.121 62.509 397.739C63.0999 397.352 63.7893 397.159 64.5772 397.159C65.0317 397.159 65.4806 397.235 65.9238 397.386C66.367 397.538 66.7704 397.784 67.134 398.125C67.4976 398.462 67.7874 398.909 68.0033 399.466C68.2192 400.023 68.3272 400.708 68.3272 401.523V402.091H61.5999V400.932H66.9636C66.9636 400.439 66.8651 400 66.6681 399.614C66.4749 399.227 66.1984 398.922 65.8386 398.699C65.4825 398.475 65.062 398.364 64.5772 398.364C64.0431 398.364 63.581 398.496 63.1908 398.761C62.8045 399.023 62.5071 399.364 62.2988 399.784C62.0904 400.205 61.9863 400.655 61.9863 401.136V401.909C61.9863 402.568 62.0999 403.127 62.3272 403.585C62.5582 404.04 62.8783 404.386 63.2874 404.625C63.6965 404.86 64.1719 404.977 64.7136 404.977C65.0658 404.977 65.384 404.928 65.6681 404.83C65.956 404.727 66.2041 404.576 66.4124 404.375C66.6207 404.17 66.7817 403.917 66.8954 403.614L68.1908 403.977C68.0545 404.417 67.8253 404.803 67.5033 405.136C67.1814 405.466 66.7836 405.723 66.3101 405.909C65.8367 406.091 65.3045 406.182 64.7136 406.182ZM71.6279 400.75V406H70.287V397.273H71.5824V398.636H71.696C71.9006 398.193 72.2112 397.837 72.6279 397.568C73.0445 397.295 73.5824 397.159 74.2415 397.159C74.8324 397.159 75.3495 397.28 75.7926 397.523C76.2358 397.761 76.5805 398.125 76.8267 398.614C77.0729 399.098 77.196 399.712 77.196 400.455V406H75.8551V400.545C75.8551 399.86 75.6771 399.326 75.321 398.943C74.965 398.557 74.4764 398.364 73.8551 398.364C73.4271 398.364 73.0445 398.456 72.7074 398.642C72.3741 398.828 72.1108 399.098 71.9176 399.455C71.7245 399.811 71.6279 400.242 71.6279 400.75ZM82.8618 406.182C82.1345 406.182 81.4925 405.998 80.9357 405.631C80.3788 405.259 79.9432 404.737 79.6288 404.062C79.3144 403.384 79.1572 402.583 79.1572 401.659C79.1572 400.742 79.3144 399.947 79.6288 399.273C79.9432 398.598 80.3807 398.078 80.9413 397.71C81.5019 397.343 82.1497 397.159 82.8845 397.159C83.4527 397.159 83.9016 397.254 84.2311 397.443C84.5644 397.629 84.8182 397.841 84.9925 398.08C85.1705 398.314 85.3088 398.508 85.4072 398.659H85.5209V394.364H86.8618V406H85.5663V404.659H85.4072C85.3088 404.818 85.1686 405.019 84.9868 405.261C84.805 405.5 84.5455 405.714 84.2084 405.903C83.8713 406.089 83.4224 406.182 82.8618 406.182ZM83.0436 404.977C83.5815 404.977 84.036 404.837 84.4072 404.557C84.7785 404.273 85.0607 403.881 85.2538 403.381C85.447 402.877 85.5436 402.295 85.5436 401.636C85.5436 400.985 85.4489 400.415 85.2595 399.926C85.0701 399.434 84.7898 399.051 84.4186 398.778C84.0474 398.502 83.5891 398.364 83.0436 398.364C82.4754 398.364 82.0019 398.509 81.6232 398.801C81.2482 399.089 80.966 399.481 80.7766 399.977C80.591 400.47 80.4982 401.023 80.4982 401.636C80.4982 402.258 80.5929 402.822 80.7822 403.33C80.9754 403.833 81.2595 404.235 81.6345 404.534C82.0133 404.83 82.483 404.977 83.0436 404.977ZM95.6057 399.227L94.4011 399.568C94.3254 399.367 94.2136 399.172 94.0659 398.983C93.9219 398.79 93.725 398.631 93.475 398.506C93.225 398.381 92.9049 398.318 92.5147 398.318C91.9807 398.318 91.5356 398.441 91.1795 398.688C90.8272 398.93 90.6511 399.239 90.6511 399.614C90.6511 399.947 90.7723 400.21 91.0147 400.403C91.2572 400.597 91.636 400.758 92.1511 400.886L93.4466 401.205C94.2269 401.394 94.8083 401.684 95.1909 402.074C95.5735 402.46 95.7647 402.958 95.7647 403.568C95.7647 404.068 95.6208 404.515 95.3329 404.909C95.0488 405.303 94.6511 405.614 94.1397 405.841C93.6284 406.068 93.0337 406.182 92.3557 406.182C91.4655 406.182 90.7288 405.989 90.1454 405.602C89.5621 405.216 89.1928 404.652 89.0375 403.909L90.3102 403.591C90.4314 404.061 90.6606 404.413 90.9977 404.648C91.3386 404.883 91.7837 405 92.3329 405C92.9579 405 93.4541 404.867 93.8216 404.602C94.1928 404.333 94.3784 404.011 94.3784 403.636C94.3784 403.333 94.2723 403.08 94.0602 402.875C93.8481 402.667 93.5223 402.511 93.0829 402.409L91.6284 402.068C90.8291 401.879 90.242 401.585 89.867 401.188C89.4958 400.786 89.3102 400.284 89.3102 399.682C89.3102 399.189 89.4485 398.754 89.725 398.375C90.0053 397.996 90.386 397.699 90.867 397.483C91.3519 397.267 91.9011 397.159 92.5147 397.159C93.3784 397.159 94.0564 397.348 94.5488 397.727C95.045 398.106 95.3973 398.606 95.6057 399.227Z" fill="black"/>
</svg>